<svg width="794" height="554" viewBox="0 0 794 554" fill="none" xmlns="http://www.w3.org/2000/svg">
<g filter="url(#filter0_d_96_659)">
<rect x="216" y="151" width="87.992" height="87.992" rx="30" fill="white"/>
<mask id="mask0_96_659" style="mask-type:alpha" maskUnits="userSpaceOnUse" x="234" y="170" width="51" height="50">
<rect x="234.668" y="170.002" width="49.8693" height="49.8693" fill="#D9D9D9"/>
</mask>
<g mask="url(#mask0_96_659)">
<path d="M257.526 207.404H259.604L267.915 194.936H261.681V186.625H259.604L251.292 199.092H257.526V207.404ZM259.604 215.715C254.859 215.715 250.902 214.088 247.734 210.832C244.565 207.577 242.98 203.525 242.98 198.677C242.98 195.213 244.357 191.447 247.11 187.378C249.863 183.309 254.028 178.902 259.604 174.157C265.179 178.902 269.344 183.309 272.097 187.378C274.85 191.447 276.227 195.213 276.227 198.677C276.227 203.525 274.642 207.577 271.474 210.832C268.305 214.088 264.348 215.715 259.604 215.715ZM259.604 211.559C263.205 211.559 266.184 210.339 268.538 207.897C270.893 205.456 272.071 202.382 272.071 198.677C272.071 196.148 271.023 193.291 268.928 190.105C266.833 186.919 263.725 183.439 259.604 179.664C255.482 183.439 252.374 186.919 250.279 190.105C248.184 193.291 247.136 196.148 247.136 198.677C247.136 202.382 248.314 205.456 250.669 207.897C253.024 210.339 256.002 211.559 259.604 211.559Z" fill="#00BFBA"/>
</g>
<rect x="626" y="214" width="87.992" height="87.992" rx="30" fill="white"/>
<mask id="mask1_96_659" style="mask-type:alpha" maskUnits="userSpaceOnUse" x="644" y="233" width="51" height="50">
<rect x="644.812" y="233.089" width="49.8693" height="49.8693" fill="#D9D9D9"/>
</mask>
<g mask="url(#mask1_96_659)">
<path d="M655.202 268.413C652.258 268.413 649.791 267.418 647.799 265.426C645.808 263.435 644.812 260.967 644.812 258.024C644.812 255.08 645.825 252.613 647.851 250.621C649.877 248.63 652.328 247.634 655.202 247.634C657.869 247.634 660.111 248.431 661.929 250.024C663.747 251.617 664.899 253.591 665.384 255.946H666.734L662.994 245.556H659.358V241.401H669.747V245.556H667.461L668.189 247.634H678.163L675.15 239.323H669.747V235.167H675.15C676.05 235.167 676.855 235.409 677.565 235.894C678.275 236.379 678.786 237.037 679.098 237.868L682.63 247.53H684.292C687.167 247.53 689.617 248.543 691.643 250.569C693.669 252.595 694.682 255.045 694.682 257.92C694.682 260.829 693.678 263.305 691.669 265.348C689.66 267.392 687.201 268.413 684.292 268.413C681.799 268.413 679.608 267.634 677.721 266.076C675.834 264.517 674.63 262.526 674.111 260.102H665.384C664.899 262.491 663.721 264.474 661.851 266.05C659.981 267.625 657.765 268.413 655.202 268.413ZM655.202 264.257C656.622 264.257 657.843 263.868 658.864 263.089C659.886 262.309 660.604 261.314 661.02 260.102H655.202V255.946H661.02C660.604 254.699 659.886 253.695 658.864 252.933C657.843 252.171 656.622 251.79 655.202 251.79C653.436 251.79 651.955 252.387 650.76 253.582C649.566 254.777 648.968 256.258 648.968 258.024C648.968 259.755 649.566 261.227 650.76 262.439C651.955 263.651 653.436 264.257 655.202 264.257ZM671.202 255.946H674.111C674.284 255.149 674.518 254.405 674.812 253.712C675.106 253.02 675.496 252.379 675.981 251.79H669.643L671.202 255.946ZM684.292 264.257C686.059 264.257 687.539 263.651 688.734 262.439C689.929 261.227 690.526 259.755 690.526 258.024C690.526 256.258 689.929 254.777 688.734 253.582C687.539 252.387 686.059 251.79 684.292 251.79H684.085L686.162 257.297L682.214 258.751L680.24 253.245C679.548 253.833 679.011 254.526 678.63 255.323C678.249 256.119 678.059 257.019 678.059 258.024C678.059 259.755 678.656 261.227 679.851 262.439C681.046 263.651 682.526 264.257 684.292 264.257ZM671.825 280.881L659.358 274.647H667.669V270.491L680.137 276.725H671.825V280.881Z" fill="#00BFBA"/>
</g>
<rect x="80" y="258" width="87.992" height="87.992" rx="30" fill="white"/>
<mask id="mask2_96_659" style="mask-type:alpha" maskUnits="userSpaceOnUse" x="99" y="277" width="50" height="50">
<rect x="99.1172" y="277.062" width="49.8693" height="49.8693" fill="#D9D9D9"/>
</mask>
<g mask="url(#mask2_96_659)">
<path d="M109.299 312.594C107.325 310.516 105.828 308.213 104.806 305.685C103.784 303.157 103.273 300.542 103.273 297.841C103.273 295.139 103.784 292.525 104.806 289.997C105.828 287.469 107.325 285.166 109.299 283.088L111.793 285.581C110.13 287.243 108.884 289.157 108.053 291.321C107.221 293.486 106.806 295.659 106.806 297.841C106.806 300.022 107.221 302.196 108.053 304.36C108.884 306.524 110.13 308.438 111.793 310.1L109.299 312.594ZM114.286 307.607C112.936 306.256 111.905 304.732 111.195 303.035C110.485 301.338 110.13 299.607 110.13 297.841C110.13 296.074 110.485 294.343 111.195 292.646C111.905 290.949 112.936 289.425 114.286 288.075L116.78 290.568C115.741 291.503 114.962 292.611 114.442 293.893C113.923 295.174 113.663 296.49 113.663 297.841C113.663 299.087 113.923 300.351 114.442 301.633C114.962 302.914 115.741 304.074 116.78 305.113L114.286 307.607ZM113.663 322.775L120.676 301.737C120.122 301.252 119.68 300.68 119.351 300.022C119.022 299.364 118.858 298.637 118.858 297.841C118.858 296.386 119.36 295.157 120.364 294.152C121.368 293.148 122.598 292.646 124.052 292.646C125.507 292.646 126.736 293.148 127.741 294.152C128.745 295.157 129.247 296.386 129.247 297.841C129.247 298.637 129.083 299.364 128.754 300.022C128.425 300.68 127.983 301.252 127.429 301.737L134.442 322.775H130.286L128.935 318.62H119.221L117.819 322.775H113.663ZM120.572 314.464H127.533L124.052 304.074L120.572 314.464ZM133.818 307.607L131.325 305.113C132.364 304.178 133.143 303.07 133.663 301.789C134.182 300.507 134.442 299.191 134.442 297.841C134.442 296.594 134.182 295.33 133.663 294.049C133.143 292.767 132.364 291.607 131.325 290.568L133.818 288.075C135.169 289.425 136.173 290.949 136.831 292.646C137.489 294.343 137.87 296.074 137.974 297.841C137.974 299.607 137.619 301.338 136.909 303.035C136.199 304.732 135.169 306.256 133.818 307.607ZM138.805 312.594L136.312 310.1C137.974 308.438 139.221 306.524 140.052 304.36C140.883 302.196 141.299 300.022 141.299 297.841C141.299 295.659 140.883 293.486 140.052 291.321C139.221 289.157 137.974 287.243 136.312 285.581L138.805 283.088C140.779 285.166 142.277 287.469 143.299 289.997C144.32 292.525 144.831 295.139 144.831 297.841C144.831 300.542 144.346 303.157 143.377 305.685C142.407 308.213 140.883 310.516 138.805 312.594Z" fill="#00BFBA"/>
</g>
<rect x="474" y="40" width="87.992" height="87.992" rx="30" fill="white"/>
<mask id="mask3_96_659" style="mask-type:alpha" maskUnits="userSpaceOnUse" x="492" y="59" width="51" height="50">
<rect x="492.812" y="59.0613" width="49.8693" height="49.8693" fill="#D9D9D9"/>
</mask>
<g mask="url(#mask3_96_659)">
<path d="M510.475 98.5411L515.67 90.2296H512.553V83.9959L507.359 92.3075H510.475V98.5411ZM505.281 79.8401H517.748V69.4507H505.281V79.8401ZM505.281 98.5411H517.748V83.9959H505.281V98.5411ZM501.125 102.697V69.4507C501.125 68.3079 501.532 67.3295 502.346 66.5157C503.16 65.7018 504.138 65.2949 505.281 65.2949H517.748C518.891 65.2949 519.869 65.7018 520.683 66.5157C521.497 67.3295 521.904 68.3079 521.904 69.4507V83.9959H524.501C525.506 83.9959 526.363 84.3509 527.073 85.0608C527.783 85.7708 528.138 86.6279 528.138 87.6322V97.2425C528.138 97.8312 528.38 98.368 528.865 98.8528C529.35 99.3377 529.886 99.5801 530.475 99.5801C531.099 99.5801 531.644 99.3377 532.112 98.8528C532.579 98.368 532.813 97.8312 532.813 97.2425V77.7623H532.293C531.705 77.7623 531.211 77.5631 530.813 77.1649C530.415 76.7666 530.215 76.2731 530.215 75.6844V71.5286H531.254V68.4118H533.332V71.5286H535.41V68.4118H537.488V71.5286H538.527V75.6844C538.527 76.2731 538.328 76.7666 537.93 77.1649C537.531 77.5631 537.038 77.7623 536.449 77.7623H535.93V97.2425C535.93 98.697 535.401 99.9697 534.345 101.061C533.289 102.151 531.999 102.697 530.475 102.697C528.986 102.697 527.705 102.151 526.631 101.061C525.558 99.9697 525.021 98.697 525.021 97.2425V87.6322C525.021 87.4591 524.977 87.3292 524.891 87.2426C524.804 87.156 524.674 87.1127 524.501 87.1127H521.904V102.697H501.125Z" fill="#00BFBA"/>
</g>
<rect x="216" y="346" width="87.992" height="87.992" rx="30" fill="white"/>
<mask id="mask4_96_659" style="mask-type:alpha" maskUnits="userSpaceOnUse" x="235" y="365" width="50" height="50">
<rect x="235.117" y="365.006" width="49.8693" height="49.8693" fill="#D9D9D9"/>
</mask>
<g mask="url(#mask4_96_659)">
<path d="M259.014 404.486H261.092V400.642L268.365 393.369V383.707H251.742V393.369L259.014 400.642V404.486ZM254.859 408.641V402.408L247.586 395.135V383.707C247.586 382.564 247.993 381.586 248.807 380.772C249.621 379.958 250.599 379.551 251.742 379.551H253.82L251.742 381.629V371.24H255.897V379.551H264.209V371.24H268.365V381.629L266.287 379.551H268.365C269.508 379.551 270.486 379.958 271.3 380.772C272.114 381.586 272.521 382.564 272.521 383.707V395.135L265.248 402.408V408.641H254.859Z" fill="#00BFBA"/>
</g>
</g>
<defs>
<filter id="filter0_d_96_659" x="0" y="0" width="793.992" height="553.992" filterUnits="userSpaceOnUse" color-interpolation-filters="sRGB">
<feFlood flood-opacity="0" result="BackgroundImageFix"/>
<feColorMatrix in="SourceAlpha" type="matrix" values="0 0 0 0 0 0 0 0 0 0 0 0 0 0 0 0 0 0 127 0" result="hardAlpha"/>
<feOffset dy="40"/>
<feGaussianBlur stdDeviation="40"/>
<feComposite in2="hardAlpha" operator="out"/>
<feColorMatrix type="matrix" values="0 0 0 0 0 0 0 0 0 0 0 0 0 0 0 0 0 0 0.16 0"/>
<feBlend mode="normal" in2="BackgroundImageFix" result="effect1_dropShadow_96_659"/>
<feBlend mode="normal" in="SourceGraphic" in2="effect1_dropShadow_96_659" result="shape"/>
</filter>
</defs>
</svg>
