<svg width="493" height="250" viewBox="0 0 493 250" fill="none" xmlns="http://www.w3.org/2000/svg">
<path d="M80.112 37H72.752L70.16 13H75.12L76.656 32.744L78.672 13H85.2L87.344 32.712L88.88 13H93.84L91.248 37H83.984L82 17.256L80.112 37ZM103.026 37.48C98.1623 37.48 95.1863 34.728 95.1863 29.16V20.84C95.1863 15.272 98.1623 12.52 103.026 12.52C107.89 12.52 110.866 15.272 110.866 20.84V29.16C110.866 34.728 107.89 37.48 103.026 37.48ZM103.026 32.84C104.53 32.84 105.426 31.976 105.426 29.32V20.68C105.426 18.024 104.53 17.16 103.026 17.16C101.554 17.16 100.626 18.024 100.626 20.68V29.32C100.626 31.976 101.522 32.84 103.026 32.84ZM119.132 37H113.756V13H121.756C125.852 13 128.828 15.176 128.828 19.24V20.168C128.828 23.144 127.228 25.064 124.796 25.896L129.436 37H123.452L119.132 25.192V37ZM121.02 17.48H119.132V23.624H121.02C122.524 23.624 123.452 22.76 123.452 20.616V20.168C123.452 18.184 122.524 17.48 121.02 17.48ZM136.726 13V24.424L140.694 13H146.358L141.622 24.264L146.582 37H140.63L136.726 25.544V37H131.35V13H136.726ZM163.143 37H155.783L153.191 13H158.151L159.687 32.744L161.703 13H168.231L170.375 32.712L171.911 13H176.871L174.279 37H167.015L165.031 17.256L163.143 37ZM184.071 37H178.631V13H184.071V22.344H188.871V13H194.311V37H188.871V27.016H184.071V37ZM209.474 32.36V37H197.506V13H209.474V17.64H202.882V22.44H208.834V27.08H202.882V32.36H209.474ZM219.91 13L223.302 33.192V13H227.718V37H219.845L216.454 16.488V37H212.038V13H219.91ZM246.463 37H241.023V29.16L236.062 13H241.247L243.743 22.76L246.239 13H251.423L246.463 29.16V37ZM260.245 37.48C255.381 37.48 252.405 34.728 252.405 29.16V20.84C252.405 15.272 255.381 12.52 260.245 12.52C265.109 12.52 268.085 15.272 268.085 20.84V29.16C268.085 34.728 265.109 37.48 260.245 37.48ZM260.245 32.84C261.749 32.84 262.645 31.976 262.645 29.32V20.68C262.645 18.024 261.749 17.16 260.245 17.16C258.773 17.16 257.845 18.024 257.845 20.68V29.32C257.845 31.976 258.741 32.84 260.245 32.84ZM270.815 13H276.255V29.64C276.255 32.008 277.087 32.84 278.495 32.84C279.871 32.84 280.735 32.008 280.735 29.64V13H286.175V29.48C286.175 34.824 283.263 37.48 278.495 37.48C273.727 37.48 270.815 34.824 270.815 29.48V13ZM304.8 37H297.44L294.848 13H299.808L301.344 32.744L303.36 13H309.888L312.032 32.712L313.568 13H318.528L315.936 37H308.672L306.688 17.256L304.8 37ZM322.374 13H330.822L334.597 37H329.382L328.806 32.68H324.39L323.814 37H318.598L322.374 13ZM324.998 28.2H328.198L326.598 16.52L324.998 28.2ZM344.222 13L347.614 33.192V13H352.03V37H344.158L340.766 16.488V37H336.35V13H344.222ZM363.289 37H357.849V17.64H353.945V13H367.193V17.64H363.289V37ZM383.914 37H378.474V17.64H374.57V13H387.818V17.64H383.914V37ZM397.089 37.48C392.225 37.48 389.249 34.728 389.249 29.16V20.84C389.249 15.272 392.225 12.52 397.089 12.52C401.953 12.52 404.929 15.272 404.929 20.84V29.16C404.929 34.728 401.953 37.48 397.089 37.48ZM397.089 32.84C398.593 32.84 399.489 31.976 399.489 29.32V20.68C399.489 18.024 398.593 17.16 397.089 17.16C395.617 17.16 394.689 18.024 394.689 20.68V29.32C394.689 31.976 395.585 32.84 397.089 32.84Z" fill="#0F1114"/>
<path d="M45.8347 23.0834V25C45.8321 29.4926 44.3774 33.8639 41.6874 37.4622C38.9975 41.0604 35.2165 43.6927 30.9083 44.9665C26.6001 46.2403 21.9956 46.0873 17.7815 44.5304C13.5673 42.9735 9.96933 40.0961 7.52414 36.3273C5.07894 32.5584 3.91753 28.1002 4.21313 23.6174C4.50872 19.1346 6.24548 14.8674 9.16439 11.4523C12.0833 8.03717 16.0279 5.65709 20.41 4.66701C24.7921 3.67694 29.3769 4.12991 33.4805 5.95838" stroke="#00BFBA" stroke-width="4" stroke-linecap="round" stroke-linejoin="round"/>
<path d="M45.8333 8.33337L25 29.1875L18.75 22.9375" stroke="#00BFBA" stroke-width="4" stroke-linecap="round" stroke-linejoin="round"/>
<path d="M76.976 237H71.6V213H79.6C83.696 213 86.672 215.176 86.672 219.24V220.168C86.672 223.144 85.072 225.064 82.64 225.896L87.28 237H81.296L76.976 225.192V237ZM78.864 217.48H76.976V223.624H78.864C80.368 223.624 81.296 222.76 81.296 220.616V220.168C81.296 218.184 80.368 217.48 78.864 217.48ZM101.162 232.36V237H89.1938V213H101.162V217.64H94.5698V222.44H100.522V227.08H94.5698V232.36H101.162ZM106.061 213H114.509L118.285 237H113.069L112.493 232.68H108.077L107.501 237H102.285L106.061 213ZM108.685 228.2H111.885L110.285 216.52L108.685 228.2ZM129.801 226.76H135.241V229.16C135.241 234.728 132.265 237.48 127.401 237.48C122.537 237.48 119.561 234.728 119.561 229.16V220.84C119.561 215.272 122.537 212.52 127.401 212.52C132.265 212.52 135.241 215.272 135.241 220.84V222.92H129.801V220.68C129.801 218.024 128.905 217.16 127.401 217.16C125.929 217.16 125.001 218.024 125.001 220.68V229.32C125.001 231.944 125.897 232.84 127.401 232.84C128.905 232.84 129.801 231.944 129.801 229.32V226.76ZM143.571 237H138.131V213H143.571V222.344H148.371V213H153.811V237H148.371V227.016H143.571V237ZM172.556 237H167.116V229.16L162.156 213H167.34L169.836 222.76L172.332 213H177.516L172.556 229.16V237ZM186.339 237.48C181.475 237.48 178.499 234.728 178.499 229.16V220.84C178.499 215.272 181.475 212.52 186.339 212.52C191.203 212.52 194.179 215.272 194.179 220.84V229.16C194.179 234.728 191.203 237.48 186.339 237.48ZM186.339 232.84C187.843 232.84 188.739 231.976 188.739 229.32V220.68C188.739 218.024 187.843 217.16 186.339 217.16C184.867 217.16 183.939 218.024 183.939 220.68V229.32C183.939 231.976 184.835 232.84 186.339 232.84ZM196.909 213H202.349V229.64C202.349 232.008 203.181 232.84 204.589 232.84C205.965 232.84 206.829 232.008 206.829 229.64V213H212.269V229.48C212.269 234.824 209.357 237.48 204.589 237.48C199.821 237.48 196.909 234.824 196.909 229.48V213ZM220.695 237H215.319V213H223.319C227.415 213 230.391 215.176 230.391 219.24V220.168C230.391 223.144 228.791 225.064 226.359 225.896L230.999 237H225.015L220.695 225.192V237ZM222.583 217.48H220.695V223.624H222.583C224.087 223.624 225.015 222.76 225.015 220.616V220.168C225.015 218.184 224.087 217.48 222.583 217.48ZM252.256 232.36V237H240.288V213H252.256V217.64H245.664V222.44H251.616V227.08H245.664V232.36H252.256ZM257.155 213H265.603L269.379 237H264.163L263.587 232.68H259.171L258.595 237H253.379L257.155 213ZM259.779 228.2H262.979L261.379 216.52L259.779 228.2ZM276.507 237H271.131V213H279.131C283.227 213 286.203 215.176 286.203 219.24V220.168C286.203 223.144 284.603 225.064 282.171 225.896L286.811 237H280.827L276.507 225.192V237ZM278.395 217.48H276.507V223.624H278.395C279.899 223.624 280.827 222.76 280.827 220.616V220.168C280.827 218.184 279.899 217.48 278.395 217.48ZM296.597 213L299.989 233.192V213H304.405V237H296.533L293.141 216.488V237H288.725V213H296.597ZM313.04 237H307.6V213H313.04V237ZM324.097 213L327.489 233.192V213H331.905V237H324.033L320.641 216.488V237H316.225V213H324.097ZM341.436 237.48C337.34 237.48 334.78 234.728 334.78 229.16V220.84C334.78 215.272 337.756 212.52 342.62 212.52C347.484 212.52 350.46 215.272 350.46 220.84V222.024H345.02V220.68C345.02 218.024 344.124 217.16 342.62 217.16C341.148 217.16 340.22 218.024 340.22 220.68V229.32C340.22 231.944 341.116 232.84 342.62 232.84C344.092 232.84 345.02 231.944 345.02 229.48V228.36H342.3V224.04H350.46V237H346.492V234.632C345.468 236.552 343.708 237.48 341.436 237.48ZM352.93 218.952C352.93 214.344 356.002 212.52 359.714 212.52C363.49 212.52 366.466 214.6 366.466 218.92V220.68H361.442V219.016C361.442 217.544 360.77 216.84 359.714 216.84C358.754 216.84 358.05 217.448 358.05 218.568C358.05 220.136 358.978 220.84 360.546 222.024L363.202 224.072C365.25 225.608 366.786 227.56 366.786 230.664C366.786 235.24 363.618 237.48 359.746 237.48C355.874 237.48 352.706 235.208 352.706 231.08V229H357.826V230.856C357.826 232.264 358.594 233.16 359.746 233.16C360.93 233.16 361.634 232.456 361.634 231.304C361.634 229.672 360.674 228.936 359.01 227.656L356.45 225.704C354.37 224.136 352.93 222.216 352.93 218.952ZM382.749 237.48C378.653 237.48 376.093 234.728 376.093 229.16V220.84C376.093 215.272 379.069 212.52 383.933 212.52C388.797 212.52 391.773 215.272 391.773 220.84V222.024H386.333V220.68C386.333 218.024 385.437 217.16 383.933 217.16C382.461 217.16 381.533 218.024 381.533 220.68V229.32C381.533 231.944 382.429 232.84 383.933 232.84C385.405 232.84 386.333 231.944 386.333 229.48V228.36H383.613V224.04H391.773V237H387.805V234.632C386.781 236.552 385.021 237.48 382.749 237.48ZM402.339 237.48C397.475 237.48 394.499 234.728 394.499 229.16V220.84C394.499 215.272 397.475 212.52 402.339 212.52C407.203 212.52 410.179 215.272 410.179 220.84V229.16C410.179 234.728 407.203 237.48 402.339 237.48ZM402.339 232.84C403.843 232.84 404.739 231.976 404.739 229.32V220.68C404.739 218.024 403.843 217.16 402.339 217.16C400.867 217.16 399.939 218.024 399.939 220.68V229.32C399.939 231.976 400.835 232.84 402.339 232.84ZM415.249 213H423.697L427.472 237H422.257L421.681 232.68H417.265L416.689 237H411.473L415.249 213ZM417.873 228.2H421.073L419.473 216.52L417.873 228.2ZM441.193 232.36V237H429.225V213H434.665V232.36H441.193ZM442.524 218.952C442.524 214.344 445.596 212.52 449.308 212.52C453.084 212.52 456.06 214.6 456.06 218.92V220.68H451.036V219.016C451.036 217.544 450.364 216.84 449.308 216.84C448.348 216.84 447.644 217.448 447.644 218.568C447.644 220.136 448.572 220.84 450.14 222.024L452.796 224.072C454.844 225.608 456.38 227.56 456.38 230.664C456.38 235.24 453.212 237.48 449.34 237.48C445.468 237.48 442.3 235.208 442.3 231.08V229H447.42V230.856C447.42 232.264 448.188 233.16 449.34 233.16C450.524 233.16 451.228 232.456 451.228 231.304C451.228 229.672 450.268 228.936 448.604 227.656L446.044 225.704C443.964 224.136 442.524 222.216 442.524 218.952Z" fill="#0F1114"/>
<path d="M45.8347 223.083V225C45.8321 229.493 44.3774 233.864 41.6874 237.462C38.9975 241.06 35.2165 243.693 30.9083 244.967C26.6001 246.24 21.9956 246.087 17.7815 244.53C13.5673 242.974 9.96933 240.096 7.52414 236.327C5.07894 232.558 3.91753 228.1 4.21313 223.617C4.50872 219.135 6.24548 214.867 9.16439 211.452C12.0833 208.037 16.0279 205.657 20.41 204.667C24.7921 203.677 29.3769 204.13 33.4805 205.958" stroke="#00BFBA" stroke-width="4" stroke-linecap="round" stroke-linejoin="round"/>
<path d="M45.8333 208.333L25 229.188L18.75 222.938" stroke="#00BFBA" stroke-width="4" stroke-linecap="round" stroke-linejoin="round"/>
<path d="M77.936 137.48C73.84 137.48 71.28 134.728 71.28 129.16V120.84C71.28 115.272 74.256 112.52 79.12 112.52C83.984 112.52 86.96 115.272 86.96 120.84V122.024H81.52V120.68C81.52 118.024 80.624 117.16 79.12 117.16C77.648 117.16 76.72 118.024 76.72 120.68V129.32C76.72 131.944 77.616 132.84 79.12 132.84C80.592 132.84 81.52 131.944 81.52 129.48V128.36H78.8V124.04H86.96V137H82.992V134.632C81.968 136.552 80.208 137.48 77.936 137.48ZM101.974 132.36V137H90.0063V113H101.974V117.64H95.3823V122.44H101.334V127.08H95.3823V132.36H101.974ZM112.602 137H107.161V117.64H103.258V113H116.506V117.64H112.602V137ZM130.851 137H125.475V113H133.475C137.571 113 140.547 115.176 140.547 119.24V120.168C140.547 123.144 138.947 125.064 136.515 125.896L141.155 137H135.171L130.851 125.192V137ZM132.739 117.48H130.851V123.624H132.739C134.243 123.624 135.171 122.76 135.171 120.616V120.168C135.171 118.184 134.243 117.48 132.739 117.48ZM150.589 137.48C145.725 137.48 142.749 134.728 142.749 129.16V120.84C142.749 115.272 145.725 112.52 150.589 112.52C155.453 112.52 158.429 115.272 158.429 120.84V129.16C158.429 134.728 155.453 137.48 150.589 137.48ZM150.589 132.84C152.093 132.84 152.989 131.976 152.989 129.32V120.68C152.989 118.024 152.093 117.16 150.589 117.16C149.117 117.16 148.189 118.024 148.189 120.68V129.32C148.189 131.976 149.085 132.84 150.589 132.84ZM161.159 113H166.599V129.64C166.599 132.008 167.431 132.84 168.839 132.84C170.215 132.84 171.079 132.008 171.079 129.64V113H176.519V129.48C176.519 134.824 173.607 137.48 168.839 137.48C164.071 137.48 161.159 134.824 161.159 129.48V113ZM187.441 113L190.833 133.192V113H195.249V137H187.377L183.985 116.488V137H179.569V113H187.441ZM205.964 113C210.828 113 213.804 115.688 213.804 121.16V128.84C213.804 134.312 210.828 137 205.964 137H198.444V113H205.964ZM205.964 132.36C207.468 132.36 208.364 131.528 208.364 129V121C208.364 118.472 207.468 117.64 205.964 117.64H203.884V132.36H205.964ZM225.014 130.28H216.374V125.96H225.014V130.28ZM234.039 137H228.599V117.64H224.695V113H237.943V117.64H234.039V137ZM245.29 137H239.85V113H245.29V122.344H250.09V113H255.53V137H250.09V127.016H245.29V137ZM270.693 132.36V137H258.725V113H270.693V117.64H264.101V122.44H270.053V127.08H264.101V132.36H270.693ZM281.264 130.28H272.624V125.96H281.264V130.28ZM294.051 126.76H299.491V129.16C299.491 134.728 296.515 137.48 291.651 137.48C286.787 137.48 283.811 134.728 283.811 129.16V120.84C283.811 115.272 286.787 112.52 291.651 112.52C296.515 112.52 299.491 115.272 299.491 120.84V122.92H294.051V120.68C294.051 118.024 293.155 117.16 291.651 117.16C290.179 117.16 289.251 118.024 289.251 120.68V129.32C289.251 131.944 290.147 132.84 291.651 132.84C293.155 132.84 294.051 131.944 294.051 129.32V126.76ZM314.349 132.36V137H302.381V113H307.821V132.36H314.349ZM323.62 137.48C318.756 137.48 315.78 134.728 315.78 129.16V120.84C315.78 115.272 318.756 112.52 323.62 112.52C328.484 112.52 331.46 115.272 331.46 120.84V129.16C331.46 134.728 328.484 137.48 323.62 137.48ZM323.62 132.84C325.124 132.84 326.02 131.976 326.02 129.32V120.68C326.02 118.024 325.124 117.16 323.62 117.16C322.148 117.16 321.22 118.024 321.22 120.68V129.32C321.22 131.976 322.116 132.84 323.62 132.84ZM344.27 126.76H349.71V129.16C349.71 134.728 346.734 137.48 341.87 137.48C337.006 137.48 334.03 134.728 334.03 129.16V120.84C334.03 115.272 337.006 112.52 341.87 112.52C346.734 112.52 349.71 115.272 349.71 120.84V122.92H344.27V120.68C344.27 118.024 343.374 117.16 341.87 117.16C340.398 117.16 339.47 118.024 339.47 120.68V129.32C339.47 131.944 340.366 132.84 341.87 132.84C343.374 132.84 344.27 131.944 344.27 129.32V126.76ZM357.976 113V124.424L361.944 113H367.608L362.872 124.264L367.832 137H361.88L357.976 125.544V137H352.6V113H357.976ZM375.618 118.952C375.618 114.344 378.69 112.52 382.402 112.52C386.178 112.52 389.154 114.6 389.154 118.92V120.68H384.13V119.016C384.13 117.544 383.458 116.84 382.402 116.84C381.442 116.84 380.738 117.448 380.738 118.568C380.738 120.136 381.666 120.84 383.234 122.024L385.89 124.072C387.938 125.608 389.474 127.56 389.474 130.664C389.474 135.24 386.306 137.48 382.434 137.48C378.562 137.48 375.394 135.208 375.394 131.08V129H380.514V130.856C380.514 132.264 381.282 133.16 382.434 133.16C383.618 133.16 384.322 132.456 384.322 131.304C384.322 129.672 383.362 128.936 381.698 127.656L379.138 125.704C377.058 124.136 375.618 122.216 375.618 118.952ZM391.565 113H397.005V129.64C397.005 132.008 397.837 132.84 399.245 132.84C400.621 132.84 401.485 132.008 401.485 129.64V113H406.925V129.48C406.925 134.824 404.013 137.48 399.245 137.48C394.477 137.48 391.565 134.824 391.565 129.48V113ZM415.255 137H409.975V113H417.463C421.879 113 424.695 115.432 424.695 120.04V121.32C424.695 125.992 421.879 128.52 417.463 128.52H415.255V137ZM417.207 117.48H415.255V124.04H417.207C418.743 124.04 419.639 123.176 419.639 121V120.36C419.639 118.248 418.743 117.48 417.207 117.48ZM432.224 137H426.944V113H434.432C438.848 113 441.664 115.432 441.664 120.04V121.32C441.664 125.992 438.848 128.52 434.432 128.52H432.224V137ZM434.176 117.48H432.224V124.04H434.176C435.712 124.04 436.608 123.176 436.608 121V120.36C436.608 118.248 435.712 117.48 434.176 117.48ZM451.433 137.48C446.569 137.48 443.593 134.728 443.593 129.16V120.84C443.593 115.272 446.569 112.52 451.433 112.52C456.297 112.52 459.273 115.272 459.273 120.84V129.16C459.273 134.728 456.297 137.48 451.433 137.48ZM451.433 132.84C452.937 132.84 453.833 131.976 453.833 129.32V120.68C453.833 118.024 452.937 117.16 451.433 117.16C449.961 117.16 449.033 118.024 449.033 120.68V129.32C449.033 131.976 449.929 132.84 451.433 132.84ZM467.539 137H462.163V113H470.163C474.259 113 477.235 115.176 477.235 119.24V120.168C477.235 123.144 475.635 125.064 473.203 125.896L477.843 137H471.859L467.539 125.192V137ZM469.427 117.48H467.539V123.624H469.427C470.931 123.624 471.859 122.76 471.859 120.616V120.168C471.859 118.184 470.931 117.48 469.427 117.48ZM487.82 137H482.38V117.64H478.476V113H491.724V117.64H487.82V137Z" fill="#0F1114"/>
<path d="M45.8347 123.083V125C45.8321 129.493 44.3774 133.864 41.6874 137.462C38.9975 141.06 35.2165 143.693 30.9083 144.967C26.6001 146.24 21.9956 146.087 17.7815 144.53C13.5673 142.974 9.96933 140.096 7.52414 136.327C5.07894 132.558 3.91753 128.1 4.21313 123.617C4.50872 119.135 6.24548 114.867 9.16439 111.452C12.0833 108.037 16.0279 105.657 20.41 104.667C24.7921 103.677 29.3769 104.13 33.4805 105.958" stroke="#00BFBA" stroke-width="4" stroke-linecap="round" stroke-linejoin="round"/>
<path d="M45.8333 108.333L25 129.188L18.75 122.938" stroke="#00BFBA" stroke-width="4" stroke-linecap="round" stroke-linejoin="round"/>
<line x1="24" y1="46" x2="24" y2="104" stroke="#00BFBA" stroke-width="4"/>
<line x1="24" y1="146" x2="24" y2="204" stroke="#00BFBA" stroke-width="4"/>
</svg>
