<?xml version="1.0" encoding="utf-8"?>
<svg width="428px" height="449" viewBox="0 0 100 449" fill="none" xmlns="http://www.w3.org/2000/svg">
  <defs/>
  <path d="M45.8347 23.0834V25C45.8321 29.4926 44.3774 33.8639 41.6874 37.4622C38.9975 41.0604 35.2165 43.6927 30.9083 44.9665C26.6001 46.2403 21.9956 46.0873 17.7815 44.5304C13.5673 42.9735 9.96933 40.0961 7.52414 36.3273C5.07894 32.5584 3.91753 28.1002 4.21313 23.6174C4.50872 19.1346 6.24548 14.8674 9.16439 11.4523C12.0833 8.03717 16.0279 5.65709 20.41 4.66701C24.7921 3.67694 29.3769 4.12991 33.4805 5.95838" stroke="white" stroke-width="4" stroke-linecap="round" stroke-linejoin="round" data-darkreader-inline-stroke="" style="--darkreader-inline-stroke: #e8e6e3;"/>
  <path d="M45.8333 8.33325L25 29.1874L18.75 22.9374" stroke="white" stroke-width="4" stroke-linecap="round" stroke-linejoin="round" data-darkreader-inline-stroke="" style="--darkreader-inline-stroke: #e8e6e3;"/>
  <path d="M45.8347 113.083V115C45.8321 119.493 44.3774 123.864 41.6874 127.462C38.9975 131.06 35.2165 133.693 30.9083 134.967C26.6001 136.24 21.9956 136.087 17.7815 134.53C13.5673 132.974 9.96933 130.096 7.52414 126.327C5.07894 122.558 3.91753 118.1 4.21313 113.617C4.50872 109.135 6.24548 104.867 9.16439 101.452C12.0833 98.0372 16.0279 95.6571 20.41 94.667C24.7921 93.6769 29.3769 94.1299 33.4805 95.9584" stroke="white" stroke-width="4" stroke-linecap="round" stroke-linejoin="round" data-darkreader-inline-stroke="" style="--darkreader-inline-stroke: #e8e6e3;"/>
  <path d="M45.8333 98.3333L25 119.187L18.75 112.937" stroke="white" stroke-width="4" stroke-linecap="round" stroke-linejoin="round" data-darkreader-inline-stroke="" style="--darkreader-inline-stroke: #e8e6e3;"/>
  <path d="M45.8347 203.083V205C45.8321 209.493 44.3774 213.864 41.6874 217.462C38.9975 221.06 35.2165 223.693 30.9083 224.967C26.6001 226.24 21.9956 226.087 17.7815 224.53C13.5673 222.974 9.96933 220.096 7.52414 216.327C5.07894 212.558 3.91753 208.1 4.21313 203.617C4.50872 199.135 6.24548 194.867 9.16439 191.452C12.0833 188.037 16.0279 185.657 20.41 184.667C24.7921 183.677 29.3769 184.13 33.4805 185.958" stroke="white" stroke-width="4" stroke-linecap="round" stroke-linejoin="round" data-darkreader-inline-stroke="" style="--darkreader-inline-stroke: #e8e6e3;"/>
  <path d="M45.8333 188.333L25 209.187L18.75 202.937" stroke="white" stroke-width="4" stroke-linecap="round" stroke-linejoin="round" data-darkreader-inline-stroke="" style="--darkreader-inline-stroke: #e8e6e3;"/>
  <path d="M45.8347 302.083V304C45.8321 308.493 44.3774 312.864 41.6874 316.462C38.9975 320.06 35.2165 322.693 30.9083 323.967C26.6001 325.24 21.9956 325.087 17.7815 323.53C13.5673 321.974 9.96933 319.096 7.52414 315.327C5.07894 311.558 3.91753 307.1 4.21313 302.617C4.50872 298.135 6.24548 293.867 9.16439 290.452C12.0833 287.037 16.0279 284.657 20.41 283.667C24.7921 282.677 29.3769 283.13 33.4805 284.958" stroke="white" stroke-width="4" stroke-linecap="round" stroke-linejoin="round" data-darkreader-inline-stroke="" style="--darkreader-inline-stroke: #e8e6e3;"/>
  <path d="M45.8333 287.333L25 308.187L18.75 301.937" stroke="white" stroke-width="4" stroke-linecap="round" stroke-linejoin="round" data-darkreader-inline-stroke="" style="--darkreader-inline-stroke: #e8e6e3;"/>
  <path d="M45.8347 412.083V414C45.8321 418.493 44.3774 422.864 41.6874 426.462C38.9975 430.06 35.2165 432.693 30.9083 433.967C26.6001 435.24 21.9956 435.087 17.7815 433.53C13.5673 431.974 9.96933 429.096 7.52414 425.327C5.07894 421.558 3.91753 417.1 4.21313 412.617C4.50872 408.135 6.24548 403.867 9.16439 400.452C12.0833 397.037 16.0279 394.657 20.41 393.667C24.7921 392.677 29.3769 393.13 33.4805 394.958" stroke="white" stroke-width="4" stroke-linecap="round" stroke-linejoin="round" data-darkreader-inline-stroke="" style="--darkreader-inline-stroke: #e8e6e3;"/>
  <path d="M45.8333 397.333L25 418.187L18.75 411.937" stroke="white" stroke-width="4" stroke-linecap="round" stroke-linejoin="round" data-darkreader-inline-stroke="" style="--darkreader-inline-stroke: #e8e6e3;"/>
  <line x1="24" y1="46" x2="24" y2="94" stroke="white" stroke-width="4" data-darkreader-inline-stroke="" style="--darkreader-inline-stroke: #303436;"/>
  <line x1="24" y1="136" x2="24" y2="184" stroke="white" stroke-width="4" data-darkreader-inline-stroke="" style="--darkreader-inline-stroke: #303436;"/>
  <line x1="24" y1="226" x2="24" y2="284" stroke="white" stroke-width="4" data-darkreader-inline-stroke="" style="--darkreader-inline-stroke: #303436;"/>
  <line x1="24" y1="326" x2="24" y2="394" stroke="white" stroke-width="4" data-darkreader-inline-stroke="" style="--darkreader-inline-stroke: #303436;"/>
</svg>