<svg width="243" height="243" viewBox="0 0 243 243" fill="none" xmlns="http://www.w3.org/2000/svg">
<g filter="url(#filter0_d_96_419)">
<rect x="80" y="40" width="83" height="83" rx="30" fill="white"/>
<rect x="80.5" y="40.5" width="82" height="82" rx="29.5" stroke="#C8C8C8"/>
</g>
<path d="M122.096 70.9766L122.097 70.9764L122.098 70.9751C122.338 70.7044 122.726 70.268 122.726 69.4812C122.726 68.6947 122.338 68.2573 122.098 67.9876L122.097 67.9859L122.096 67.9857C121.995 67.8719 121.943 67.8101 121.913 67.7539C121.888 67.7068 121.875 67.6588 121.875 67.5674C121.875 67.4767 121.888 67.429 121.913 67.3823C121.943 67.3263 121.995 67.2647 122.096 67.1507L122.097 67.149C122.338 66.8792 122.726 66.4436 122.726 65.6572C122.726 65.2126 122.368 64.85 121.924 64.85C121.48 64.85 121.123 65.2126 121.123 65.6572C121.123 65.7475 121.11 65.7949 121.085 65.8415C121.055 65.8975 121.003 65.9591 120.902 66.0731L120.901 66.0747C120.66 66.3446 120.272 66.7801 120.272 67.5674C120.272 68.3563 120.662 68.7938 120.901 69.0628L120.901 69.0628C121.003 69.1772 121.055 69.2389 121.085 69.2951C121.11 69.3421 121.123 69.3899 121.123 69.4812C121.123 69.572 121.11 69.6198 121.085 69.6668C121.055 69.7229 121.003 69.7847 120.902 69.8986L120.901 69.899L120.898 69.9031C120.658 70.1737 120.272 70.6099 120.272 71.3949C120.272 71.8395 120.63 72.2022 121.074 72.2022C121.518 72.2022 121.875 71.8395 121.875 71.3949C121.875 71.3036 121.888 71.2555 121.913 71.2085C121.943 71.1523 121.995 71.0905 122.096 70.9766Z" fill="#0F1114" stroke="#0F1114" stroke-width="0.3"/>
<path d="M130.721 75.3083L130.721 75.3081C130.962 75.0382 131.352 74.6007 131.352 73.8117C131.352 73.0251 130.964 72.5887 130.724 72.318L130.722 72.3156L130.721 72.3154C130.62 72.2016 130.568 72.1397 130.538 72.0836C130.513 72.0366 130.5 71.9888 130.5 71.898C130.5 71.8072 130.513 71.7597 130.538 71.7132C130.568 71.6574 130.62 71.5961 130.721 71.4826L130.722 71.4822L130.725 71.4788C130.965 71.2082 131.352 70.7727 131.352 69.9878C131.352 69.5432 130.994 69.1806 130.55 69.1806C130.106 69.1806 129.748 69.5432 129.748 69.9878C129.748 70.0781 129.736 70.1256 129.711 70.1724C129.681 70.2282 129.629 70.2899 129.528 70.4032L129.528 70.4033C129.287 70.6724 128.897 71.1099 128.897 71.898C128.897 72.6862 129.286 73.1227 129.527 73.3925L129.527 73.3934L129.527 73.3935C129.629 73.5073 129.681 73.5691 129.711 73.6253C129.736 73.6723 129.748 73.7204 129.748 73.8117C129.748 73.9031 129.736 73.9512 129.711 73.9982C129.681 74.0544 129.629 74.1161 129.528 74.2299C129.287 74.499 128.897 74.9356 128.897 75.7255C128.897 76.1701 129.255 76.5327 129.699 76.5327C130.143 76.5327 130.5 76.1691 130.5 75.7255C130.5 75.6347 130.513 75.5866 130.538 75.5395C130.568 75.4834 130.62 75.4215 130.721 75.3083ZM130.61 72.416L130.609 72.4152V75.2083C130.846 74.9434 131.202 74.5421 131.202 73.8117C131.202 73.0821 130.846 72.6817 130.61 72.416Z" fill="#0F1114" stroke="#0F1114" stroke-width="0.3"/>
<path d="M109.044 98.4884L109.044 98.4883L106.249 93.1866H104.869C104.333 93.1866 103.9 92.7477 103.9 92.21C103.9 91.6713 104.333 91.2333 104.869 91.2333H106.45C107.313 84.608 112.387 79.3475 118.792 78.1696C118.581 77.7546 118.452 77.2893 118.452 76.7893C118.452 75.0958 119.819 73.7162 121.501 73.7162C123.184 73.7162 124.55 75.0949 124.55 76.7893C124.55 77.2893 124.422 77.7546 124.211 78.1696C130.615 79.3475 135.69 84.608 136.554 91.2333H138.132C138.668 91.2333 139.101 91.6713 139.1 92.2101M109.044 98.4884L139 92.21M109.044 98.4884C109.212 98.8072 109.541 99.0063 109.9 99.0063H133.1C133.459 99.0063 133.788 98.8072 133.956 98.4884L133.956 98.4883L136.751 93.1866M109.044 98.4884L136.691 93.0866M139.1 92.2101L139 92.21M139.1 92.2101C139.1 92.2101 139.1 92.21 139.1 92.21H139M139.1 92.2101C139.1 92.7478 138.667 93.1866 138.131 93.1866H136.751M139 92.21C139 92.6933 138.611 93.0866 138.131 93.0866H136.691M136.751 93.1866L136.78 93.1332L136.691 93.0866M136.751 93.1866H136.691V93.0866M124.162 78.2624C124.127 78.2561 124.093 78.2499 124.058 78.2438C124.075 78.2132 124.092 78.1823 124.108 78.1511L124.162 78.2624ZM120.39 76.7893C120.39 76.1706 120.89 75.6694 121.5 75.6694C122.111 75.6694 122.611 76.1706 122.611 76.7893C122.611 77.4082 122.111 77.9102 121.5 77.9102C120.89 77.9102 120.39 77.4082 120.39 76.7893ZM121.5 79.8634C128.076 79.8634 133.633 84.7794 134.6 91.2333H108.401C109.369 84.7794 114.925 79.8634 121.5 79.8634ZM134.557 93.1866L132.518 97.0531H110.483L108.444 93.1866H134.557Z" fill="#0F1114" stroke="#0F1114" stroke-width="0.2"/>
<path d="M113.471 75.3082L113.471 75.308C113.712 75.0381 114.102 74.6006 114.102 73.8116C114.102 73.0249 113.714 72.5886 113.474 72.3179L113.472 72.3155L113.471 72.3153C113.37 72.2014 113.318 72.1396 113.288 72.0835C113.263 72.0365 113.25 71.9887 113.25 71.8979C113.25 71.8071 113.263 71.7596 113.288 71.7131C113.318 71.6573 113.37 71.596 113.471 71.4825L113.472 71.4821L113.475 71.4786C113.715 71.208 114.102 70.7726 114.102 69.9877C114.102 69.5431 113.744 69.1804 113.3 69.1804C112.856 69.1804 112.498 69.5431 112.498 69.9877C112.498 70.0779 112.486 70.1255 112.461 70.1722C112.431 70.2281 112.379 70.2897 112.278 70.4031L112.278 70.4031C112.037 70.6722 111.647 71.1097 111.647 71.8979C111.647 72.686 112.036 73.1226 112.277 73.3924L112.277 73.3933L112.277 73.3933C112.379 73.5072 112.431 73.569 112.461 73.6251C112.486 73.6722 112.498 73.7203 112.498 73.8116C112.498 73.903 112.486 73.951 112.461 73.9981C112.431 74.0543 112.379 74.1161 112.277 74.2299L112.277 74.23L112.275 74.2321C112.036 74.501 111.647 74.9375 111.647 75.7254C111.647 76.17 112.005 76.5326 112.449 76.5326C112.893 76.5326 113.25 76.169 113.25 75.7254C113.25 75.6345 113.263 75.5865 113.288 75.5393C113.318 75.4833 113.37 75.4214 113.471 75.3082Z" fill="#0F1114" stroke="#0F1114" stroke-width="0.3"/>
<defs>
<filter id="filter0_d_96_419" x="0" y="0" width="243" height="243" filterUnits="userSpaceOnUse" color-interpolation-filters="sRGB">
<feFlood flood-opacity="0" result="BackgroundImageFix"/>
<feColorMatrix in="SourceAlpha" type="matrix" values="0 0 0 0 0 0 0 0 0 0 0 0 0 0 0 0 0 0 127 0" result="hardAlpha"/>
<feOffset dy="40"/>
<feGaussianBlur stdDeviation="40"/>
<feComposite in2="hardAlpha" operator="out"/>
<feColorMatrix type="matrix" values="0 0 0 0 0 0 0 0 0 0 0 0 0 0 0 0 0 0 0.16 0"/>
<feBlend mode="normal" in2="BackgroundImageFix" result="effect1_dropShadow_96_419"/>
<feBlend mode="normal" in="SourceGraphic" in2="effect1_dropShadow_96_419" result="shape"/>
</filter>
</defs>
</svg>
