<svg width="63" height="52" viewBox="0 0 63 52" fill="none" xmlns="http://www.w3.org/2000/svg">
<path d="M14.8648 3.62781L14.864 3.62661C14.5219 3.14364 13.9684 2.85234 13.3726 2.85234C9.73897 2.85234 6.68666 4.26006 4.54655 6.72438C2.40964 9.18501 1.2 12.6776 1.2 16.8242C1.2 20.0992 2.35608 23.2797 4.45557 25.7876C4.46266 25.7965 4.46943 25.804 4.4754 25.8102C4.48402 25.8192 4.49209 25.8266 4.49876 25.8323C4.98803 26.4821 5.24937 27.2508 5.24937 28.068V49.2251C5.24937 50.2318 6.06557 51.0472 7.07056 51.0472H13.3718C14.3796 51.0472 15.1929 50.2315 15.1929 49.2251V24.845C16.8092 26.2441 19.2555 29.346 21.7923 36.1888C24.4416 43.3436 27.1962 47.0587 29.3961 48.9868C31.6019 50.9201 33.2416 51.0489 33.6272 51.0489H45.7804C49.016 51.0489 51.6484 48.4153 51.6484 45.1766C51.6484 43.527 51.0042 41.9875 49.8636 40.9608L49.8634 40.9605C49.2208 40.3835 48.3143 39.8919 47.3005 39.4735C46.283 39.0536 45.1383 38.6997 44.0049 38.406C41.8212 37.8401 39.6588 37.4925 38.4864 37.3275L14.8648 3.62781ZM25.2083 34.9238L25.2083 34.9237C22.5582 27.771 19.8031 24.0566 17.6032 22.1286C15.3975 20.1955 13.7583 20.0662 13.3735 20.0662C12.3756 20.0662 11.5138 20.872 11.5138 21.8866C11.5138 21.9616 11.53 22.0253 11.5397 22.0618C11.5435 22.0759 11.5463 22.0864 11.5486 22.0944C11.5506 22.1018 11.552 22.1071 11.5531 22.1115V47.4082H8.89346V28.0688C8.89346 26.3948 8.3184 24.7576 7.27104 23.4543L7.27116 23.4542L7.26497 23.4469C7.2424 23.4206 7.21911 23.4011 7.2035 23.3892C5.6846 21.5423 4.84409 19.2196 4.84409 16.8242C4.84409 14.5101 5.36795 12.0288 6.60226 10.082C7.805 8.18489 9.68547 6.78683 12.4549 6.53352L35.9635 40.0734C35.9635 40.0734 35.9636 40.0734 35.9636 40.0734C36.2612 40.4982 36.7236 40.7724 37.2374 40.8347L37.2377 40.8348C38.8153 41.0247 41.0027 41.4006 42.9862 41.902C43.978 42.1528 44.9133 42.4334 45.6934 42.7358C46.4812 43.041 47.082 43.3577 47.4289 43.6691L47.4294 43.6696C47.7837 43.986 48.0069 44.5262 48.0069 45.1758C48.0069 46.4079 47.0086 47.4082 45.7804 47.4082L33.7252 47.4099C33.7205 47.409 33.7147 47.4078 33.7078 47.4063C33.6817 47.4006 33.6401 47.3904 33.584 47.373C33.4718 47.3382 33.301 47.2745 33.0792 47.1604C32.6359 46.9324 31.9859 46.5015 31.1919 45.6934C29.6025 44.0756 27.4385 40.948 25.2083 34.9238Z" fill="#0F1114" stroke="#0F1114" stroke-width="0.6"/>
<path d="M49.3111 0.951465C42.4254 0.951465 36.825 6.55278 36.825 13.44C36.825 20.3252 42.4247 25.9265 49.3111 25.9265C56.1988 25.9265 61.8 20.3259 61.8 13.44C61.8 6.55272 56.1989 0.951465 49.3111 0.951465ZM49.3111 22.8838C44.1034 22.8838 39.8655 18.6465 39.8655 13.4393C39.8655 8.23148 44.1034 3.9948 49.3111 3.9948C54.521 3.9948 58.7581 8.23217 58.7581 13.4393C58.7581 18.6464 54.521 22.8838 49.3111 22.8838Z" fill="#00BFBA" stroke="#00BFBA" stroke-width="0.6"/>
<path d="M46.5011 8.75146C45.4675 8.75146 44.625 9.59458 44.625 10.6272C44.625 11.6619 45.4675 12.5015 46.5011 12.5015C47.5346 12.5015 48.375 11.6626 48.375 10.6272C48.375 9.59458 47.5346 8.75146 46.5011 8.75146Z" fill="#00BFBA"/>
<path d="M52.1254 8.75146C51.0912 8.75146 50.25 9.59458 50.25 10.6272C50.25 11.6619 51.0912 12.5015 52.1254 12.5015C53.1588 12.5015 54 11.6626 54 10.6272C54 9.59458 53.1588 8.75146 52.1254 8.75146Z" fill="#00BFBA"/>
<path d="M46.5011 14.3765C45.4675 14.3765 44.625 15.218 44.625 16.2511C44.625 17.2835 45.4675 18.1265 46.5011 18.1265C47.5346 18.1265 48.375 17.2842 48.375 16.2511C48.375 15.218 47.5346 14.3765 46.5011 14.3765Z" fill="#00BFBA"/>
<path d="M52.1254 14.3765C51.0912 14.3765 50.25 15.218 50.25 16.2511C50.25 17.2835 51.0912 18.1265 52.1254 18.1265C53.1588 18.1265 54 17.2842 54 16.2511C54 15.218 53.1588 14.3765 52.1254 14.3765Z" fill="#00BFBA"/>
</svg>
