<svg width="63" height="64" viewBox="0 0 63 64" fill="none" xmlns="http://www.w3.org/2000/svg">
<path d="M33.9968 3.7439C24.8205 3.7439 16.6562 8.14359 11.4938 14.9375H3.75V2.75C3.75 1.92124 3.07876 1.25 2.25 1.25C1.42124 1.25 0.75 1.92124 0.75 2.75V61.25C0.75 62.0788 1.42124 62.75 2.25 62.75C3.07876 62.75 3.75 62.0788 3.75 61.25V49.0625H11.4938C16.6562 55.8564 24.8205 60.2561 33.9968 60.2561C49.5766 60.2561 62.25 47.5811 62.25 32C62.25 16.4189 49.5766 3.7439 33.9968 3.7439ZM3.75 46.0625V17.9375H9.50618C7.11697 22.0811 5.74365 26.8823 5.74365 32C5.74365 37.1177 7.11697 41.9189 9.50618 46.0625H3.75ZM33.9968 57.2561C20.0732 57.2561 8.74365 45.9259 8.74365 32C8.74365 18.0741 20.0732 6.7439 33.9968 6.7439C47.9204 6.7439 59.25 18.0741 59.25 32C59.25 45.9259 47.9204 57.2561 33.9968 57.2561Z" fill="#0F1114" stroke="black" stroke-width="1.5"/>
<path d="M48.2875 37.1349C50.2666 36.2664 51.6631 34.281 51.6631 32C51.6631 29.6979 50.2683 27.7221 48.2828 26.8615C48.7296 26.0123 48.9692 25.0623 48.9692 24.0749C48.9692 22.4681 48.3417 20.9541 47.206 19.8185C45.3013 17.9141 42.4338 17.5611 40.1661 18.744C39.2975 16.7645 37.3118 15.3677 35.0308 15.3677C32.728 15.3677 30.7513 16.7638 29.8915 18.7512C27.6231 17.5666 24.7543 17.9211 22.8493 19.8247L22.8493 19.8248C20.9441 21.7292 20.59 24.5973 21.7741 26.8653C19.7949 27.7338 18.3984 29.7191 18.3984 32C18.3984 34.3021 19.7936 36.2779 21.7794 37.1383C21.3326 37.9876 21.093 38.9377 21.093 39.9251C21.093 41.532 21.7204 43.0459 22.8562 44.1816C23.9919 45.3172 25.5054 45.9445 27.1124 45.9445C28.0989 45.9445 29.0482 45.7052 29.897 45.2591C30.7661 47.237 32.7509 48.6324 35.0308 48.6324C37.3336 48.6324 39.3101 47.2367 40.1702 45.25C41.0394 45.7053 41.9967 45.9358 42.9556 45.9358C44.4953 45.9358 46.0383 45.349 47.2123 44.1752L48.2875 37.1349ZM48.2875 37.1349C49.4715 39.4028 49.1175 42.2707 47.2124 44.1751L48.2875 37.1349ZM24.7626 37.5748L24.7624 37.575C23.4669 38.8704 23.4669 40.9799 24.7624 42.2753C25.3909 42.9038 26.2233 43.2487 27.1124 43.2487C28.0012 43.2487 28.8332 42.9039 29.4625 42.2752C29.4625 42.2752 29.4625 42.2751 29.4626 42.2751M24.7626 37.5748L29.9927 42.8057L29.4626 42.2751M24.7626 37.5748C25.6995 36.6375 26.762 35.9003 27.798 35.424C28.6754 35.0206 29.5 34.8193 30.1954 34.8139C30.6859 35.6541 31.3877 36.3543 32.2293 36.8426M24.7626 37.5748L32.2293 36.8426M29.4626 42.2751C30.4042 41.3332 31.1431 40.2678 31.6199 39.2316C32.0232 38.3549 32.2238 37.5333 32.2293 36.8426M29.4626 42.2751L32.2293 36.8426M45.2997 26.4251L45.2997 26.4252C43.5403 28.1848 41.416 29.1712 39.8665 29.1853C39.3759 28.3451 38.6739 27.645 37.8323 27.1566C37.8379 26.4656 38.0387 25.6441 38.442 24.7677C38.9188 23.7316 39.6577 22.6664 40.5993 21.7247L40.5993 21.7246C41.8948 20.4289 44.004 20.4292 45.2997 21.7247C46.5953 23.0201 46.5953 25.1297 45.2997 26.4251ZM29.4558 21.7311L29.4559 21.7312C31.215 23.49 32.2009 25.6143 32.2156 27.1648C31.3763 27.6551 30.6768 28.3564 30.1886 29.1973C28.6432 29.1823 26.5224 28.1983 24.7554 26.4315C23.4599 25.1361 23.4599 23.0266 24.7554 21.7312C26.0516 20.4352 28.1608 20.4357 29.4558 21.7311ZM35.0308 34.9054C33.4296 34.9054 32.1256 33.6015 32.1256 32C32.1256 30.3984 33.4298 29.094 35.0308 29.094C36.6325 29.094 37.9366 30.3984 37.9366 32C37.9366 33.6015 36.6326 34.9054 35.0308 34.9054ZM45.3062 42.2689L45.3061 42.269C44.0113 43.5641 41.902 43.5645 40.6057 42.269C38.8464 40.5094 37.8606 38.3851 37.846 36.8349C38.6854 36.3447 39.385 35.6436 39.8732 34.8029C41.4171 34.8185 43.5394 35.8025 45.3062 37.5686C46.6017 38.864 46.6017 40.9735 45.3062 42.2689ZM35.0308 18.0636C36.5167 18.0636 37.7695 19.2185 37.9211 20.6578C36.4075 22.4325 35.4055 24.4907 35.1829 26.4004C35.1325 26.3989 35.0818 26.3981 35.0308 26.3981C34.9749 26.3981 34.9194 26.3991 34.8642 26.4009C34.6401 24.4934 33.6446 22.4411 32.1419 20.6741C32.2902 19.2103 33.5297 18.0636 35.0308 18.0636ZM21.0945 32C21.0945 30.5109 22.254 29.2564 23.6972 29.1092C25.4691 30.6197 27.5236 31.6269 29.4317 31.8512C29.4303 31.9005 29.4295 31.9501 29.4295 32C29.4295 32.0556 29.4305 32.1109 29.4322 32.1657C27.5245 32.3893 25.4721 33.3857 23.705 34.8891C22.2414 34.7409 21.0945 33.5015 21.0945 32ZM35.0308 45.9365C33.5446 45.9365 32.2918 44.7812 32.1409 43.3418C33.6546 41.5669 34.6563 39.5087 34.8788 37.599C34.9291 37.6005 34.9798 37.6013 35.0308 37.6013C35.0867 37.6013 35.1422 37.6004 35.1974 37.5986C35.4214 39.5062 36.4171 41.5589 37.9202 43.3264C37.7717 44.79 36.5323 45.9365 35.0308 45.9365ZM46.3729 34.8901C44.5989 33.3765 42.5408 32.3737 40.6303 32.1515C40.6318 32.1013 40.6326 32.0508 40.6326 32C40.6326 31.9452 40.6317 31.8908 40.63 31.8367C42.5361 31.6109 44.585 30.6099 46.3499 29.1093C47.8166 29.2546 48.9671 30.496 48.9671 32C48.9671 33.4866 47.8123 34.7391 46.3729 34.8901Z" fill="#00BFBA" stroke="#00BFBA" stroke-width="1.5"/>
</svg>
