<svg width="83" height="83" viewBox="0 0 83 83" fill="none" xmlns="http://www.w3.org/2000/svg">
<rect x="0.5" y="0.5" width="82" height="82" rx="29.5" fill="#EDECE7" stroke="#C8C8C8"/>
<path d="M59.3346 28.5617V50.69C59.3346 52.45 57.9047 54.1 56.1447 54.32L55.5396 54.3934C51.543 54.9251 45.3829 56.96 41.8629 58.9033C41.3862 59.1783 40.598 59.1783 40.103 58.9033L40.0296 58.8667C36.5096 56.9417 30.368 54.9251 26.3897 54.3934L25.858 54.32C24.098 54.1 22.668 52.45 22.668 50.69V28.5433C22.668 26.3617 24.4463 24.7117 26.6279 24.895C30.4779 25.2067 36.3079 27.1501 39.5712 29.1851L40.0296 29.46C40.5612 29.79 41.4414 29.79 41.973 29.46L42.2847 29.2584C43.4397 28.5434 44.9063 27.8284 46.5013 27.1867V34.6667L50.168 32.2284L53.8346 34.6667V25.0968C54.3296 25.0051 54.8063 24.95 55.2463 24.9134H55.3563C57.538 24.73 59.3346 26.3617 59.3346 28.5617Z" stroke="#0F1114" stroke-width="3" stroke-linecap="round" stroke-linejoin="round"/>
<path d="M41 30.0649V57.5649" stroke="#0F1114" stroke-width="3" stroke-linecap="round" stroke-linejoin="round"/>
<path d="M53.8333 25.0967V34.6666L50.1667 32.2283L46.5 34.6666V27.1866C48.9017 26.2333 51.5783 25.4633 53.8333 25.0967Z" stroke="#0F1114" stroke-width="3" stroke-linecap="round" stroke-linejoin="round"/>
</svg>
