<svg width="126" height="45" viewBox="0 0 126 45" fill="none" xmlns="http://www.w3.org/2000/svg">
<path d="M50.4648 31.9589V11.9783H57.0056C58.966 11.9304 60.9073 12.3716 62.6527 13.2619C64.199 14.0734 65.4858 15.3005 66.3668 16.8039C67.2314 18.3826 67.6844 20.1521 67.6844 21.9504C67.6844 23.7487 67.2314 25.5182 66.3668 27.0969C65.4896 28.6065 64.2021 29.8385 62.6527 30.651C60.9083 31.5443 58.9663 31.9857 57.0056 31.9346L50.4648 31.9589ZM54.6348 28.326H57.1089C58.2892 28.357 59.4576 28.0837 60.5008 27.5329C61.4385 27.0187 62.2085 26.2475 62.7196 25.3108C63.2431 24.2641 63.5156 23.1107 63.5156 21.9414C63.5156 20.772 63.2431 19.6186 62.7196 18.5719C62.2106 17.6398 61.4395 16.8759 60.5008 16.3741C59.4554 15.8302 58.2879 15.5613 57.1089 15.593H54.6348V28.326Z" fill="#0F1114"/>
<path d="M78.4773 32.2798C77.0523 32.3172 75.6448 31.961 74.4106 31.2505C73.2835 30.5882 72.3621 29.6285 71.7481 28.4774C71.1147 27.2907 70.7907 25.9645 70.8059 24.6206C70.7814 23.2511 71.1212 21.8996 71.7907 20.7032C72.4221 19.5863 73.3357 18.6533 74.441 17.9967C75.5818 17.327 76.8858 16.9834 78.2098 17.0038C79.2669 16.9837 80.3178 17.1688 81.3039 17.5487C82.1659 17.8917 82.9419 18.4187 83.5774 19.0926C84.1987 19.7532 84.6804 20.5315 84.9937 21.3813C85.3217 22.2878 85.4843 23.2454 85.4739 24.2089C85.4739 24.4995 85.4739 24.778 85.4374 25.0565C85.4154 25.2978 85.3644 25.5357 85.2855 25.7649H74.2829V22.8163H82.9999L81.0911 24.2089C81.2783 23.5394 81.2783 22.8318 81.0911 22.1624C80.9085 21.5885 80.5438 21.0891 80.0517 20.7395C79.5139 20.3793 78.8758 20.1971 78.2281 20.2188C77.582 20.1959 76.9447 20.3737 76.4045 20.7274C75.8774 21.096 75.4814 21.6218 75.2738 22.229C75.0059 23.0067 74.9044 23.8317 74.9759 24.6508C74.8931 25.3888 74.9954 26.1356 75.2738 26.8245C75.5182 27.4242 75.9428 27.9339 76.4895 28.2837C77.0989 28.6446 77.799 28.8253 78.5077 28.8044C79.1428 28.8217 79.7714 28.6736 80.3313 28.3745C80.8368 28.1012 81.2573 27.6949 81.547 27.1999L84.7748 28.7257C84.48 29.4518 84.0128 30.0958 83.4132 30.6026C82.7657 31.1415 82.0209 31.5525 81.2188 31.8136C80.3382 32.1229 79.4111 32.2805 78.4773 32.2798Z" fill="#0F1114"/>
<path d="M93.728 32.2797C92.7885 32.3027 91.8546 32.1295 90.9865 31.7712C90.2628 31.4765 89.6445 30.9724 89.2114 30.3241C88.7899 29.6451 88.5784 28.8575 88.6036 28.0596C88.5902 27.2935 88.7856 26.5382 89.1689 25.8739C89.5936 25.1988 90.1917 24.649 90.9013 24.2815C91.8131 23.811 92.8007 23.5036 93.8191 23.3733L98.3174 22.6467V25.5954L94.5486 26.2674C94.0689 26.332 93.6143 26.5198 93.2295 26.8124C93.0744 26.952 92.9529 27.1247 92.8739 27.3176C92.795 27.5104 92.7607 27.7185 92.7736 27.9264C92.7635 28.1297 92.8049 28.3322 92.8942 28.5153C92.9834 28.6984 93.1176 28.8561 93.2842 28.9739C93.6536 29.2325 94.0974 29.3642 94.5486 29.3493C95.1599 29.361 95.7635 29.2127 96.2993 28.9194C96.7878 28.6429 97.1913 28.2389 97.4664 27.7508C97.7467 27.2582 97.8914 26.7005 97.8858 26.1342V22.3258C97.889 22.0588 97.8309 21.7946 97.7161 21.5533C97.6013 21.312 97.4327 21.0999 97.2232 20.9332C96.7163 20.535 96.0808 20.3348 95.4361 20.3702C94.7549 20.3627 94.0895 20.5751 93.5395 20.9756C92.9884 21.3629 92.5653 21.9045 92.3238 22.5317L89.0959 21.0059C89.3705 20.197 89.8426 19.4688 90.4697 18.8867C91.1205 18.2829 91.8878 17.8173 92.725 17.5184C93.6496 17.1912 94.6251 17.0293 95.6063 17.0401C96.7364 17.0183 97.8573 17.2457 98.8888 17.7061C99.787 18.1118 100.555 18.7573 101.108 19.5709C101.646 20.3949 101.923 21.361 101.904 22.344V31.9589H98.1351V29.6036L99.0529 29.4401C98.6591 30.0406 98.1776 30.5793 97.6244 31.0385C97.1039 31.4562 96.5104 31.7743 95.8738 31.977C95.1785 32.1878 94.4547 32.29 93.728 32.2797Z" fill="#0F1114"/>
<path d="M106.215 31.9589V11.6756H110.251V31.9589H106.215Z" fill="#0F1114"/>
<path d="M113.367 31.9589V28.7438L121.817 19.4741L122.424 20.8122H113.72V17.3307H125.987V20.5457L117.756 29.8458L117.148 28.4774H125.999V31.9589H113.367Z" fill="#0F1114"/>
<path d="M38.5027 21.9807V22.1563C38.4562 27.9983 36.0936 33.5852 31.9297 37.6997C27.7658 41.8143 22.1381 44.1229 16.2728 44.1227H4.04844C2.97473 44.1227 1.945 43.6979 1.18577 42.9417C0.42654 42.1855 0 41.1598 0 40.0903V26.1645C1.44932 27.3603 3.04694 28.3655 4.75358 29.1555H4.81437C5.05144 29.2706 5.2885 29.3735 5.53165 29.4764C7.33074 30.2387 9.20515 30.811 11.1241 31.1839C11.7745 31.3171 12.4432 31.4321 13.1301 31.5229C13.1301 31.5229 16.364 32.0255 22.4731 31.5229C22.554 31.5289 22.6353 31.5289 22.7162 31.5229C23.0125 31.4873 23.2955 31.3798 23.5403 31.2098C23.7851 31.0398 23.9843 30.8126 24.1204 30.5481C24.1569 30.4755 24.1934 30.4028 24.2238 30.3241C24.3493 29.9956 24.3472 29.6323 24.2179 29.3053C24.0886 28.9783 23.8414 28.7111 23.5247 28.5561L23.4639 28.5259H23.5733C23.9056 28.5316 24.2313 28.4337 24.5049 28.2459C24.7785 28.0581 24.9863 27.7897 25.0991 27.4784C25.1019 27.4482 25.1019 27.4178 25.0991 27.3876C25.1261 27.2949 25.1424 27.1994 25.1477 27.103C25.1507 27.0748 25.1507 27.0464 25.1477 27.0182C25.1386 26.7352 25.0492 26.4605 24.89 26.2259C24.7308 25.9913 24.5083 25.8063 24.2481 25.6922H24.2055C24.4277 25.6691 24.6474 25.6266 24.862 25.5651C25.0893 25.5129 25.2966 25.3966 25.4594 25.2302C25.6221 25.0638 25.7334 24.8543 25.7799 24.6266C25.7855 24.5925 25.7855 24.5578 25.7799 24.5237C25.7828 24.4915 25.7828 24.459 25.7799 24.4268C25.7799 24.4268 25.7799 24.3844 25.7799 24.3663C25.786 24.2998 25.786 24.2329 25.7799 24.1665V24.0938C25.7828 24.0697 25.7828 24.0453 25.7799 24.0212C25.7834 23.9991 25.7834 23.9766 25.7799 23.9545C25.6996 23.7102 25.5681 23.4856 25.3942 23.2957C25.2202 23.1057 25.0078 22.9547 24.7708 22.8526H24.7101L24.6189 22.8102L24.5277 22.7678C24.8604 22.715 25.1777 22.5911 25.4577 22.4045C25.6663 22.2588 25.8396 22.0685 25.9647 21.8474C26.0899 21.6263 26.1638 21.3802 26.1811 21.127C26.1811 21.0543 26.1811 20.9877 26.1811 20.9211C26.1832 20.635 26.1095 20.3535 25.9676 20.1048C25.8257 19.8561 25.6204 19.649 25.3726 19.5043H25.3301C25.0967 19.3691 24.8418 19.2749 24.5763 19.2258H24.473H24.3028H17.7317L17.8107 19.0381C18.2063 17.7191 18.2957 16.3278 18.0721 14.9694C18.0417 14.7211 17.9991 14.4608 17.9505 14.1944C17.9176 14.0339 17.8729 13.876 17.8168 13.7221C17.7392 13.4032 17.5609 13.1175 17.3081 12.9072C17.0554 12.6968 16.7414 12.5729 16.4126 12.5536C16.2137 12.5597 16.0187 12.6103 15.8419 12.7014C15.6652 12.7926 15.5112 12.9221 15.3914 13.0803C15.2707 13.2346 15.195 13.4189 15.1725 13.6131V13.7766C15.0892 14.4481 14.9716 15.115 14.82 15.7746C14.4916 16.8226 13.9424 17.7887 13.2091 18.6083C13.0511 18.796 12.8869 18.9897 12.7167 19.1713C12.2714 19.6509 11.7942 20.0999 11.2882 20.5155C11.13 20.6204 10.951 20.6904 10.7633 20.7207C10.5756 20.751 10.3836 20.7409 10.2001 20.6911C8.98437 20.5034 7.22154 20.3036 5.90853 19.5165C5.8434 19.4776 5.78049 19.4351 5.72009 19.3893L5.61674 19.3288C4.55528 18.6399 3.62328 17.771 2.86308 16.7615C2.46103 16.2243 2.10711 15.653 1.80538 15.0542V15.0057C0.0547093 11.5121 -0.12765 7.0801 0.212759 3.39279V3.35646C0.300556 2.43787 0.729283 1.58492 1.41508 0.964552C2.10087 0.34418 2.99438 0.000996304 3.92079 0.00213394H16.133C28.3634 -0.167398 38.5027 9.78653 38.5027 21.9807Z" fill="#00BFBA"/>
</svg>
