<svg width="243" height="243" viewBox="0 0 243 243" fill="none" xmlns="http://www.w3.org/2000/svg">
<g filter="url(#filter0_d_143_383)">
<rect x="80" y="40" width="83" height="83" rx="30" fill="white"/>
<rect x="80.5" y="40.5" width="82" height="82" rx="29.5" stroke="#C8C8C8"/>
</g>
<path d="M129.332 62.75H112.665C110.824 62.75 109.332 64.4289 109.332 66.5V96.5C109.332 98.5711 110.824 100.25 112.665 100.25H129.332C131.173 100.25 132.665 98.5711 132.665 96.5V66.5C132.665 64.4289 131.173 62.75 129.332 62.75Z" fill="white" stroke="#0F1114" stroke-width="3" stroke-linecap="round" stroke-linejoin="round"/>
<path d="M121 92.75H121.017" stroke="#0F1114" stroke-width="3" stroke-linecap="round" stroke-linejoin="round"/>
<path d="M121.119 85C121.037 85 120.968 84.9663 120.911 84.8989C120.853 84.8315 120.825 84.7496 120.825 84.6533V83.6422C120.219 83.5748 119.707 83.4063 119.289 83.1367C118.872 82.8574 118.557 82.5252 118.344 82.14C118.131 81.7452 118.016 81.3359 118 80.9122C118 80.8256 118.025 80.7533 118.074 80.6956C118.131 80.6378 118.196 80.6089 118.27 80.6089H119.363C119.461 80.6089 119.539 80.6378 119.596 80.6956C119.654 80.7437 119.699 80.8063 119.732 80.8833C119.789 81.0663 119.883 81.2493 120.014 81.4322C120.153 81.6056 120.346 81.75 120.591 81.8656C120.837 81.9811 121.144 82.0389 121.512 82.0389C122.102 82.0389 122.54 81.9233 122.826 81.6922C123.113 81.4611 123.256 81.1481 123.256 80.7533C123.256 80.4741 123.178 80.2526 123.023 80.0889C122.875 79.9156 122.638 79.7615 122.311 79.6267C121.983 79.4822 121.553 79.333 121.021 79.1789C120.415 79.0056 119.904 78.7985 119.486 78.5578C119.068 78.3074 118.753 77.9944 118.54 77.6189C118.336 77.2433 118.233 76.7667 118.233 76.1889C118.233 75.4474 118.463 74.8167 118.921 74.2967C119.38 73.7767 120.014 73.4589 120.825 73.3433V72.3467C120.825 72.2504 120.853 72.1685 120.911 72.1011C120.968 72.0337 121.037 72 121.119 72H121.868C121.95 72 122.02 72.0337 122.077 72.1011C122.135 72.1685 122.163 72.2504 122.163 72.3467V73.3722C122.72 73.4685 123.187 73.6611 123.563 73.95C123.94 74.2389 124.226 74.5711 124.423 74.9467C124.619 75.3126 124.722 75.6689 124.73 76.0156C124.73 76.0926 124.705 76.1648 124.656 76.2322C124.615 76.29 124.554 76.3189 124.472 76.3189H123.33C123.256 76.3189 123.187 76.2996 123.121 76.2611C123.056 76.2226 123.002 76.1504 122.961 76.0444C122.92 75.7459 122.765 75.4907 122.495 75.2789C122.225 75.067 121.873 74.9611 121.439 74.9611C120.996 74.9611 120.64 75.0574 120.37 75.25C120.108 75.4426 119.977 75.7411 119.977 76.1456C119.977 76.4152 120.043 76.6415 120.174 76.8244C120.305 76.9978 120.518 77.1519 120.812 77.2867C121.115 77.4215 121.516 77.5659 122.016 77.72C122.712 77.903 123.277 78.1148 123.711 78.3556C124.153 78.5963 124.476 78.9044 124.681 79.28C124.894 79.6459 125 80.113 125 80.6811C125 81.2396 124.881 81.7307 124.644 82.1544C124.415 82.5685 124.087 82.9056 123.661 83.1656C123.236 83.4159 122.736 83.5796 122.163 83.6567V84.6533C122.163 84.7496 122.135 84.8315 122.077 84.8989C122.02 84.9663 121.95 85 121.868 85H121.119Z" fill="#00BFBA"/>
<defs>
<filter id="filter0_d_143_383" x="0" y="0" width="243" height="243" filterUnits="userSpaceOnUse" color-interpolation-filters="sRGB">
<feFlood flood-opacity="0" result="BackgroundImageFix"/>
<feColorMatrix in="SourceAlpha" type="matrix" values="0 0 0 0 0 0 0 0 0 0 0 0 0 0 0 0 0 0 127 0" result="hardAlpha"/>
<feOffset dy="40"/>
<feGaussianBlur stdDeviation="40"/>
<feComposite in2="hardAlpha" operator="out"/>
<feColorMatrix type="matrix" values="0 0 0 0 0 0 0 0 0 0 0 0 0 0 0 0 0 0 0.16 0"/>
<feBlend mode="normal" in2="BackgroundImageFix" result="effect1_dropShadow_143_383"/>
<feBlend mode="normal" in="SourceGraphic" in2="effect1_dropShadow_143_383" result="shape"/>
</filter>
</defs>
</svg>
