<svg width="338" height="308" viewBox="0 0 338 308" fill="none" xmlns="http://www.w3.org/2000/svg">
<path d="M105.743 307.243L197.513 0.756747H231.879L140.109 307.243H105.743ZM68.733 172.541C44.0596 172.541 26.4358 165.856 15.8615 152.486C5.28715 139.117 0 119.315 0 93.0811V77.5676C0 50.8288 5.16127 31.2793 15.4838 18.9189C25.8063 6.30631 43.556 0 68.733 0C94.1616 0 112.037 6.18018 122.36 18.5406C132.682 30.6487 137.844 49.9459 137.844 76.4324V94.2162C137.844 119.946 132.556 139.495 121.982 152.865C111.66 165.982 93.9099 172.541 68.733 172.541ZM68.733 135.081C75.279 135.081 80.0626 133.315 83.0838 129.784C86.105 126.252 87.9933 121.207 88.7486 114.649C89.5039 108.09 89.8816 100.396 89.8816 91.5676V78.3243C89.8816 64.9549 88.8745 54.8649 86.8603 48.054C85.0979 41.2432 79.0555 37.8378 68.733 37.8378C58.6622 37.8378 52.6197 41.2432 50.6056 48.054C48.5914 54.6126 47.5844 64.7027 47.5844 78.3243V91.946C47.5844 100.775 47.962 108.468 48.7173 115.027C49.7244 121.333 51.7386 126.252 54.7598 129.784C57.781 133.315 62.4387 135.081 68.733 135.081ZM268.889 308C243.964 308 226.215 301.315 215.64 287.946C205.318 274.577 200.156 254.901 200.156 228.919V213.027C200.156 186.541 205.192 166.991 215.263 154.378C225.585 141.766 243.461 135.459 268.889 135.459C294.318 135.459 312.194 141.64 322.516 154C332.839 166.108 338 185.405 338 211.892V229.297C338 255.532 332.713 275.207 322.139 288.324C311.564 301.441 293.815 308 268.889 308ZM268.889 270.541C275.435 270.541 280.093 268.775 282.863 265.243C285.884 261.712 287.772 256.793 288.527 250.486C289.534 243.928 290.038 236.36 290.038 227.784V213.784C290.038 200.162 289.031 190.072 287.017 183.514C285.003 176.703 278.96 173.297 268.889 173.297C258.819 173.297 252.776 176.703 250.762 183.514C248.748 190.324 247.741 200.414 247.741 213.784V227.784C247.741 236.36 248.118 243.928 248.874 250.486C249.629 256.793 251.517 261.712 254.539 265.243C257.812 268.775 262.595 270.541 268.889 270.541Z" fill="#0F1114"/>
</svg>
