<svg width="60" height="60" viewBox="0 0 60 60" fill="none" xmlns="http://www.w3.org/2000/svg">
<path d="M52.4963 5.61377C52.5319 5.61377 52.5675 5.61564 52.6012 5.61564C52.9425 5.64564 53.0363 5.68314 53.2144 5.75627C53.9006 6.04127 54.3469 6.59064 54.3713 7.48877C54.3713 10.0088 54.3787 12.5288 54.3713 15.0488C54.3337 19.0763 51.45 22.9013 47.5631 24.0056C43.8975 25.0463 39.8213 23.4338 37.5038 20.415C35.8313 22.6744 33.2081 24.2475 30.36 24.3544C27.2925 24.4725 24.3188 22.905 22.4812 20.4469C20.8069 22.6894 18.195 24.2475 15.36 24.3544C14.6044 24.3844 13.8525 24.3094 13.1231 24.1463C13.1044 32.3588 12.9731 40.5713 13.125 48.7819C13.155 49.7344 13.9875 50.58 14.9531 50.61C24.9806 50.7957 35.0156 50.7957 45.0431 50.61C46.0106 50.58 46.8656 49.7381 46.8713 48.7294V29.9869C46.9256 28.7756 47.4544 28.5206 47.955 28.2881C48.9806 27.8081 50.3869 28.4925 50.5931 29.6606C50.6194 29.805 50.6156 29.8406 50.6213 29.9869V48.7407C50.6025 51.6581 48.09 54.3038 45.0675 54.36C35.0419 54.42 25.0181 54.36 14.9944 54.36C12.0581 54.3413 9.39375 51.8044 9.375 48.7407V22.4869C9.37687 22.4494 9.37875 22.41 9.3825 22.3725C7.17188 20.67 5.65312 18.0263 5.625 15.0488V7.48877C5.625 7.48877 5.9175 5.65689 7.5 5.61377H52.4963ZM28.1231 35.6119V29.9869C28.1325 29.6438 28.1644 29.55 28.2281 29.3681C28.485 28.6331 29.0644 28.1381 29.9981 28.1119C30.0337 28.1119 30.0675 28.1138 30.1031 28.1138C30.4444 28.1438 30.5381 28.1813 30.7162 28.2544C31.4006 28.5375 31.8488 29.0888 31.8731 29.9869V35.6119H37.4981L37.6031 35.6138C38.0325 35.6494 38.1694 35.715 38.4038 35.8444C39.7894 36.6113 39.4444 39.3056 37.4981 39.36H31.8731V44.985C31.8338 46.41 29.9475 47.4544 28.7494 46.3838C28.3556 46.0313 28.1419 45.6713 28.1231 44.985V39.36H22.4981C22.0687 39.3488 21.9281 39.2925 21.6844 39.1744C20.5406 38.6231 20.2781 36.7631 21.4144 35.9569C21.6431 35.7938 21.9075 35.685 22.185 35.6381C22.2881 35.6194 22.3931 35.6138 22.4981 35.6119H28.1231ZM50.6213 9.36377H39.3731C39.375 11.2575 39.3787 13.1531 39.3731 15.0488C39.3713 15.0994 39.3713 15.15 39.3694 15.2006C39.5175 16.4419 39.8644 17.5819 40.6144 18.5119C42.5419 20.9081 46.5731 21.2306 48.8531 19.0819C49.9556 18.0431 50.6081 16.5488 50.6213 15.0244V9.36377ZM35.6231 9.36377H24.375C24.3769 11.2575 24.3787 13.1531 24.3731 15.0488C24.3731 15.12 24.3713 15.1931 24.3694 15.2644C24.5138 16.4325 24.8438 17.5088 25.53 18.405C27.4275 20.88 31.5319 21.27 33.855 19.0819C34.9575 18.0431 35.6081 16.5506 35.6231 15.0244V9.36377ZM20.6231 9.36377H9.375C9.375 12.555 8.74875 16.08 10.5319 18.405C12.4294 20.88 16.5337 21.27 18.855 19.0819C19.9575 18.0431 20.61 16.5506 20.6231 15.0244V9.36377Z" fill="#0F1114"/>
<path d="M28.1239 29.9868V35.6118H22.4989C22.3939 35.6137 22.2889 35.6193 22.1858 35.6381C21.9083 35.6849 21.6439 35.7937 21.4152 35.9568C20.2789 36.7631 20.5414 38.6231 21.6852 39.1743C21.9289 39.2924 22.0695 39.3487 22.4989 39.3599H28.1239V44.9849C28.1427 45.6712 28.3564 46.0312 28.7502 46.3837C29.9483 47.4543 31.8345 46.4099 31.8739 44.9849V39.3599H37.4989C39.4452 39.3056 39.7902 36.6112 38.4045 35.8443C38.1702 35.7149 38.0333 35.6493 37.6039 35.6137L37.4989 35.6118H31.8739V29.9868C31.8495 29.0887 31.4014 28.5374 30.717 28.2543C30.5389 28.1812 30.4452 28.1437 30.1039 28.1137C30.0683 28.1137 30.0345 28.1118 29.9989 28.1118C29.0652 28.1381 28.4858 28.6331 28.2289 29.3681C28.1652 29.5499 28.1333 29.6437 28.1239 29.9868Z" fill="#00BFBA"/>
</svg>
