<svg width="62" height="60" viewBox="0 0 62 60" fill="none" xmlns="http://www.w3.org/2000/svg">
<path d="M31.9469 11.1119L31.9471 11.1117L31.9481 11.1105C32.3572 10.6501 32.9991 9.92756 32.9991 8.61952C32.9991 7.31195 32.3561 6.58796 31.9486 6.12905L31.9471 6.1274L31.9469 6.12718C31.775 5.93436 31.6771 5.81872 31.6183 5.70913C31.5644 5.60864 31.5408 5.50753 31.5408 5.3388C31.5408 5.17095 31.5643 5.07062 31.618 4.97067C31.6767 4.86148 31.7743 4.74622 31.9456 4.55323L31.9473 4.55132C32.3564 4.09239 32.9991 3.37145 32.9991 2.0642C32.9991 1.36034 32.4329 0.7875 31.7319 0.7875C31.0308 0.7875 30.4646 1.36034 30.4646 2.0642C30.4646 2.23117 30.4411 2.33112 30.3874 2.43091C30.3287 2.53996 30.2311 2.65526 30.0598 2.84824L30.0581 2.85012C29.6489 3.30909 29.0062 4.03001 29.0062 5.3388C29.0062 6.64927 29.6505 7.37338 30.0583 7.83092C30.2303 8.02468 30.3283 8.14031 30.3871 8.24985C30.441 8.35014 30.4646 8.45083 30.4646 8.61952C30.4646 8.78739 30.441 8.8881 30.3871 8.98843C30.3283 9.09789 30.2304 9.21356 30.0585 9.40637L30.0581 9.40678L30.053 9.41261C29.6454 9.873 29.0062 10.5951 29.0062 11.9002C29.0062 12.6041 29.5725 13.1769 30.2735 13.1769C30.9745 13.1769 31.5408 12.6041 31.5408 11.9002C31.5408 11.7315 31.5644 11.6304 31.6183 11.5299C31.6771 11.4203 31.775 11.3047 31.9469 11.1119ZM32.8491 8.61952C32.8491 7.369 32.2382 6.68105 31.8349 6.22701V11.012C32.2397 10.5565 32.8491 9.87005 32.8491 8.61952Z" fill="#00BFBA" stroke="#00BFBA" stroke-width="0.3"/>
<path d="M17.1576 18.5374L17.1578 18.5372C17.5671 18.0782 18.2116 17.354 18.2116 16.0433C18.2116 14.7355 17.5698 14.0131 17.1607 13.5527L17.158 13.5497L17.1578 13.5495C16.9859 13.3567 16.888 13.241 16.8292 13.1315C16.7753 13.0312 16.7517 12.9305 16.7517 12.7626C16.7517 12.5948 16.7753 12.4946 16.829 12.3949C16.8878 12.2861 16.9856 12.1712 17.1576 11.9791L17.158 11.9786L17.1622 11.9739C17.5712 11.5136 18.2116 10.7929 18.2116 9.48802C18.2116 8.78417 17.6453 8.21133 16.9443 8.21133C16.2433 8.21133 15.6771 8.78417 15.6771 9.48802C15.6771 9.65504 15.6535 9.75532 15.5997 9.85524C15.5409 9.96428 15.443 10.0796 15.2711 10.2716L15.2711 10.2716C14.8617 10.7293 14.2172 11.4534 14.2172 12.7626C14.2172 14.0729 14.8613 14.7955 15.2705 15.2545L15.2709 15.255L15.2709 15.255C15.4429 15.4478 15.5408 15.5634 15.5996 15.673C15.6535 15.7735 15.6771 15.8746 15.6771 16.0433C15.6771 16.2121 15.6535 16.3132 15.5996 16.4137C15.5408 16.5233 15.4429 16.6389 15.2709 16.8317L15.2709 16.8318L15.2686 16.8343C14.8609 17.2918 14.2172 18.0142 14.2172 19.3241C14.2172 20.0279 14.7834 20.6008 15.4844 20.6008C16.1856 20.6008 16.7517 20.0263 16.7517 19.3241C16.7517 19.1562 16.7753 19.055 16.8292 18.9545C16.8879 18.845 16.9859 18.7293 17.1576 18.5374Z" fill="#00BFBA" stroke="#00BFBA" stroke-width="0.3"/>
<path d="M46.7279 18.5374L46.7282 18.5372C47.1374 18.0782 47.7819 17.354 47.7819 16.0433C47.7819 14.7355 47.1401 14.0131 46.731 13.5527L46.7283 13.5497L46.7282 13.5495C46.5562 13.3567 46.4583 13.241 46.3995 13.1315C46.3456 13.0312 46.322 12.9305 46.322 12.7626C46.322 12.5948 46.3456 12.4946 46.3993 12.3949C46.4581 12.2861 46.5559 12.1712 46.728 11.9791L46.7283 11.9786L46.7325 11.9739C47.1415 11.5136 47.7819 10.7929 47.7819 9.48802C47.7819 8.78417 47.2156 8.21133 46.5146 8.21133C45.8136 8.21133 45.2474 8.78417 45.2474 9.48802C45.2474 9.65504 45.2238 9.75532 45.17 9.85524C45.1112 9.96428 45.0133 10.0796 44.8414 10.2716L44.8414 10.2716C44.432 10.7293 43.7875 11.4534 43.7875 12.7626C43.7875 14.0729 44.4317 14.7955 44.8408 15.2545L44.8412 15.255L44.8412 15.255C45.0132 15.4478 45.1111 15.5634 45.1699 15.673C45.2238 15.7735 45.2474 15.8746 45.2474 16.0433C45.2474 16.2121 45.2238 16.3132 45.1699 16.4137C45.1111 16.5233 45.0132 16.6389 44.8412 16.8317L44.9532 16.9316L44.8414 16.8316C44.432 17.2892 43.7875 18.0118 43.7875 19.3241C43.7875 20.0279 44.3537 20.6008 45.0548 20.6008C45.7559 20.6008 46.322 20.0263 46.322 19.3241C46.322 19.1562 46.3456 19.055 46.3995 18.9545C46.4583 18.845 46.5562 18.7293 46.7279 18.5374Z" fill="#00BFBA" stroke="#00BFBA" stroke-width="0.3"/>
<path d="M9.71018 58.3127L9.71015 58.3126L4.89784 49.1858H2.49018C1.61093 49.1858 0.9 48.4659 0.9 47.583C0.9 46.6984 1.611 45.9802 2.49018 45.9802H5.26262C6.71936 34.5914 15.4516 25.5494 26.4654 23.5669C26.0822 22.8427 25.8466 22.0265 25.8466 21.1477C25.8466 18.2834 28.1584 15.9508 31.0023 15.9508C33.8461 15.9508 36.158 18.2818 36.158 21.1477C36.158 22.0265 35.9224 22.8427 35.5392 23.5669C46.553 25.5494 55.2867 34.5914 56.7434 45.9802H59.5113C60.3905 45.9802 61.1016 46.6984 61.1 47.5832M9.71018 58.3127L61 47.583M9.71018 58.3127C9.98658 58.8359 10.5253 59.1624 11.1145 59.1624H50.8855C51.4747 59.1624 52.0134 58.8359 52.2898 58.3127L52.2898 58.3126L57.1022 49.1858M9.71018 58.3127L57.0418 49.0858M61.1 47.5832L61 47.583M61.1 47.5832C61.1 47.5831 61.1 47.5831 61.1 47.583H61M61.1 47.5832C61.0999 48.466 60.389 49.1858 59.5098 49.1858H57.1022M61 47.583C61 48.4116 60.333 49.0858 59.5098 49.0858H57.0418M57.1022 49.1858L57.1303 49.1324L57.0418 49.0858M57.1022 49.1858H57.0418V49.0858M35.4891 23.6595C35.4544 23.6533 35.4197 23.6471 35.3849 23.6411C35.4021 23.6104 35.419 23.5795 35.4357 23.5484L35.4891 23.6595ZM29.0254 21.1477C29.0254 20.048 29.9136 19.1563 31.0008 19.1563C32.0879 19.1563 32.9761 20.048 32.9761 21.1477C32.9761 22.2474 32.0878 23.1405 31.0008 23.1405C29.9137 23.1405 29.0254 22.2474 29.0254 21.1477ZM31.0008 26.3461C42.3369 26.3461 51.912 34.8419 53.5398 45.9802H8.46172C10.091 34.8419 19.6646 26.3461 31.0008 26.3461ZM53.5015 49.1858L49.9308 55.9569H12.0707L8.49998 49.1858H53.5015Z" fill="#0F1114" stroke="#0F1114" stroke-width="0.2"/>
</svg>
