<svg width="549" height="392" viewBox="0 0 549 392" fill="none" xmlns="http://www.w3.org/2000/svg">
<path d="M73.48 82H71.48V67H75.82C78.24 67 79.96 68.38 79.96 71V72.08C79.96 74.8 78.24 76.28 75.82 76.28H73.48V82ZM75.62 68.84H73.48V74.44H75.62C77.06 74.44 77.96 73.7 77.96 71.88V71.2C77.96 69.5 77.06 68.84 75.62 68.84ZM84.7702 82.2C82.9902 82.2 81.3702 81.34 81.3702 79.36C81.3702 75.04 88.1102 77.2 88.1102 74.92C88.1102 73.94 87.1702 73.4 85.9502 73.4C84.6502 73.4 83.7502 74.06 83.7502 75.36H81.6702C81.6702 72.78 83.7502 71.8 85.9502 71.8C88.1102 71.8 90.1102 72.68 90.1102 75V82H88.1502V80.32C87.4902 81.64 86.2102 82.2 84.7702 82.2ZM83.4102 79.24C83.4102 80.1 84.1502 80.52 85.1702 80.52C86.7102 80.52 88.1502 79.62 88.1502 77.88V77.16C86.4502 77.98 83.4102 77.56 83.4102 79.24ZM94.8863 72V73.8C95.6063 72.5 96.8263 71.8 98.3463 71.8C98.5863 71.8 98.8263 71.82 98.9863 71.86V74.04C98.6863 73.94 98.3263 73.88 97.9263 73.88C96.0063 73.88 94.8863 74.92 94.8863 76.98V82H92.8863V72H94.8863ZM103.513 78.58C103.513 79.82 104.053 80.36 105.213 80.36C105.653 80.36 106.053 80.3 106.393 80.18V81.96C106.033 82.08 105.413 82.2 104.833 82.2C102.913 82.2 101.513 81.42 101.513 78.7V73.76H99.8727V72H101.513V69.04H103.513V72H106.393V73.76H103.513V78.58ZM115.586 76.54C115.586 74.56 114.666 73.56 113.166 73.56C111.666 73.56 110.746 74.56 110.746 76.54V82H108.746V72H110.746V73.58C111.366 72.42 112.466 71.8 113.786 71.8C115.966 71.8 117.586 73.2 117.586 76.14V82H115.586V76.54ZM129.505 77.68H121.665C121.905 79.42 123.025 80.44 124.705 80.44C125.925 80.44 126.725 79.9 127.125 79H129.285C128.665 81.06 126.925 82.2 124.625 82.2C121.785 82.2 119.705 80.06 119.705 77C119.705 73.94 121.785 71.8 124.625 71.8C127.465 71.8 129.545 73.94 129.545 77C129.545 77.24 129.525 77.46 129.505 77.68ZM124.625 73.56C123.005 73.56 121.925 74.56 121.685 76.24H127.565C127.325 74.56 126.225 73.56 124.625 73.56ZM133.773 72V73.8C134.493 72.5 135.713 71.8 137.233 71.8C137.473 71.8 137.713 71.82 137.873 71.86V74.04C137.573 73.94 137.213 73.88 136.813 73.88C134.893 73.88 133.773 74.92 133.773 76.98V82H131.773V72H133.773ZM148.098 82H145.578L142.878 72H144.798L146.858 80.26L148.958 72H151.498L153.598 80.26L155.658 72H157.578L154.878 82H152.358L150.238 73.74L148.098 82ZM160.351 69.82C159.591 69.82 159.031 69.24 159.031 68.48C159.031 67.72 159.591 67.16 160.351 67.16C161.131 67.16 161.671 67.72 161.671 68.48C161.671 69.24 161.131 69.82 160.351 69.82ZM161.351 82H159.351V72H161.351V82ZM166.872 78.58C166.872 79.82 167.412 80.36 168.572 80.36C169.012 80.36 169.412 80.3 169.752 80.18V81.96C169.392 82.08 168.772 82.2 168.192 82.2C166.272 82.2 164.872 81.42 164.872 78.7V73.76H163.232V72H164.872V69.04H166.872V72H169.752V73.76H166.872V78.58ZM178.945 76.54C178.945 74.56 178.025 73.56 176.525 73.56C175.025 73.56 174.105 74.56 174.105 76.54V82H172.105V67H174.105V73.58C174.725 72.42 175.825 71.8 177.145 71.8C179.325 71.8 180.945 73.2 180.945 76.14V82H178.945V76.54ZM192.554 67C195.354 67 197.054 68.62 197.054 72V77C197.054 80.38 195.354 82 192.554 82H188.414V67H192.554ZM192.554 80.16C194.094 80.16 195.054 79.34 195.054 77V72C195.054 69.66 194.134 68.84 192.554 68.84H190.414V80.16H192.554ZM208.88 77.68H201.04C201.28 79.42 202.4 80.44 204.08 80.44C205.3 80.44 206.1 79.9 206.5 79H208.66C208.04 81.06 206.3 82.2 204 82.2C201.16 82.2 199.08 80.06 199.08 77C199.08 73.94 201.16 71.8 204 71.8C206.84 71.8 208.92 73.94 208.92 77C208.92 77.24 208.9 77.46 208.88 77.68ZM204 73.56C202.38 73.56 201.3 74.56 201.06 76.24H206.94C206.7 74.56 205.6 73.56 204 73.56ZM214.028 82.2C212.248 82.2 210.628 81.34 210.628 79.36C210.628 75.04 217.368 77.2 217.368 74.92C217.368 73.94 216.428 73.4 215.208 73.4C213.908 73.4 213.008 74.06 213.008 75.36H210.928C210.928 72.78 213.008 71.8 215.208 71.8C217.368 71.8 219.368 72.68 219.368 75V82H217.408V80.32C216.748 81.64 215.468 82.2 214.028 82.2ZM212.668 79.24C212.668 80.1 213.408 80.52 214.428 80.52C215.968 80.52 217.408 79.62 217.408 77.88V77.16C215.708 77.98 212.668 77.56 212.668 79.24ZM224.144 82H222.144V67H224.144V82ZM234.445 82H226.405V79.72L232.105 73.76H226.505V72H234.045V74.28L228.345 80.24H234.445V82ZM243.989 82.2C242.209 82.2 240.589 81.34 240.589 79.36C240.589 75.04 247.329 77.2 247.329 74.92C247.329 73.94 246.389 73.4 245.169 73.4C243.869 73.4 242.969 74.06 242.969 75.36H240.889C240.889 72.78 242.969 71.8 245.169 71.8C247.329 71.8 249.329 72.68 249.329 75V82H247.369V80.32C246.709 81.64 245.429 82.2 243.989 82.2ZM242.629 79.24C242.629 80.1 243.369 80.52 244.389 80.52C245.929 80.52 247.369 79.62 247.369 77.88V77.16C245.669 77.98 242.629 77.56 242.629 79.24ZM258.945 76.54C258.945 74.56 258.025 73.56 256.525 73.56C255.025 73.56 254.105 74.56 254.105 76.54V82H252.105V72H254.105V73.58C254.725 72.42 255.825 71.8 257.145 71.8C259.325 71.8 260.945 73.2 260.945 76.14V82H258.945V76.54ZM267.864 71.8C269.204 71.8 270.364 72.44 271.144 73.5V67H273.144V82H271.144V80.5C270.364 81.56 269.204 82.2 267.864 82.2C265.124 82.2 263.064 80.06 263.064 77C263.064 73.94 265.124 71.8 267.864 71.8ZM268.104 73.64C266.364 73.64 265.064 74.98 265.064 77C265.064 79.02 266.364 80.36 268.104 80.36C269.844 80.36 271.144 79.02 271.144 77C271.144 74.98 269.844 73.64 268.104 73.64ZM283.278 78.58C283.278 79.82 283.818 80.36 284.978 80.36C285.418 80.36 285.818 80.3 286.158 80.18V81.96C285.798 82.08 285.178 82.2 284.598 82.2C282.678 82.2 281.278 81.42 281.278 78.7V73.76H279.638V72H281.278V69.04H283.278V72H286.158V73.76H283.278V78.58ZM297.474 77.68H289.634C289.874 79.42 290.994 80.44 292.674 80.44C293.894 80.44 294.694 79.9 295.094 79H297.254C296.634 81.06 294.894 82.2 292.594 82.2C289.754 82.2 287.674 80.06 287.674 77C287.674 73.94 289.754 71.8 292.594 71.8C295.434 71.8 297.514 73.94 297.514 77C297.514 77.24 297.494 77.46 297.474 77.68ZM292.594 73.56C290.974 73.56 289.894 74.56 289.654 76.24H295.534C295.294 74.56 294.194 73.56 292.594 73.56ZM301.742 82H299.742V67H301.742V82ZM306.703 82H304.703V67H306.703V82ZM316.173 77.42C316.173 79.42 317.073 80.44 318.553 80.44C320.013 80.44 320.913 79.42 320.913 77.42V72H322.913V82H320.913V80.4C320.293 81.58 319.233 82.2 317.933 82.2C315.793 82.2 314.173 80.8 314.173 77.82V72H316.173V77.42ZM333.595 79.18C333.595 81.06 331.915 82.2 329.595 82.2C327.135 82.2 325.275 80.96 325.275 78.78H327.355C327.355 80 328.315 80.62 329.595 80.62C330.815 80.62 331.535 80.16 331.535 79.26C331.535 76.84 325.475 78.76 325.475 74.74C325.475 72.92 327.135 71.8 329.295 71.8C331.635 71.8 333.395 73.22 333.395 75.06H331.315C331.315 74.1 330.455 73.4 329.295 73.4C328.215 73.4 327.495 73.86 327.495 74.66C327.495 76.88 333.595 75.1 333.595 79.18ZM343.442 82.2C341.662 82.2 340.042 81.34 340.042 79.36C340.042 75.04 346.782 77.2 346.782 74.92C346.782 73.94 345.842 73.4 344.622 73.4C343.322 73.4 342.422 74.06 342.422 75.36H340.342C340.342 72.78 342.422 71.8 344.622 71.8C346.782 71.8 348.782 72.68 348.782 75V82H346.822V80.32C346.162 81.64 344.882 82.2 343.442 82.2ZM342.082 79.24C342.082 80.1 342.822 80.52 343.842 80.52C345.382 80.52 346.822 79.62 346.822 77.88V77.16C345.122 77.98 342.082 77.56 342.082 79.24ZM356.838 71.8C359.578 71.8 361.638 73.94 361.638 77C361.638 80.06 359.578 82.2 356.838 82.2C355.498 82.2 354.338 81.56 353.558 80.5V82H351.558V67H353.558V73.5C354.338 72.44 355.498 71.8 356.838 71.8ZM356.598 73.64C354.858 73.64 353.558 74.98 353.558 77C353.558 79.02 354.858 80.36 356.598 80.36C358.338 80.36 359.638 79.02 359.638 77C359.638 74.98 358.338 73.64 356.598 73.64ZM368.183 82.2C365.283 82.2 363.123 80.06 363.123 77C363.123 73.94 365.283 71.8 368.183 71.8C371.083 71.8 373.243 73.94 373.243 77C373.243 80.06 371.083 82.2 368.183 82.2ZM368.183 80.36C369.923 80.36 371.243 79.02 371.243 77C371.243 74.98 369.923 73.64 368.183 73.64C366.443 73.64 365.123 74.98 365.123 77C365.123 79.02 366.443 80.36 368.183 80.36ZM377.364 77.42C377.364 79.42 378.264 80.44 379.744 80.44C381.204 80.44 382.104 79.42 382.104 77.42V72H384.104V82H382.104V80.4C381.484 81.58 380.424 82.2 379.124 82.2C376.984 82.2 375.364 80.8 375.364 77.82V72H377.364V77.42ZM389.626 78.58C389.626 79.82 390.166 80.36 391.326 80.36C391.766 80.36 392.166 80.3 392.506 80.18V81.96C392.146 82.08 391.526 82.2 390.946 82.2C389.026 82.2 387.626 81.42 387.626 78.7V73.76H385.986V72H387.626V69.04H389.626V72H392.506V73.76H389.626V78.58ZM403.753 83.12C402.913 85.5 401.933 87.16 399.473 87.16C398.913 87.16 398.353 87.06 397.973 86.94V85.18C398.353 85.3 398.813 85.4 399.293 85.4C400.553 85.4 401.233 84.66 401.873 83.1L397.913 72H399.913L402.813 80.38L405.693 72H407.693L403.753 83.12ZM413.613 82.2C410.713 82.2 408.553 80.06 408.553 77C408.553 73.94 410.713 71.8 413.613 71.8C416.513 71.8 418.673 73.94 418.673 77C418.673 80.06 416.513 82.2 413.613 82.2ZM413.613 80.36C415.353 80.36 416.673 79.02 416.673 77C416.673 74.98 415.353 73.64 413.613 73.64C411.873 73.64 410.553 74.98 410.553 77C410.553 79.02 411.873 80.36 413.613 80.36ZM422.794 77.42C422.794 79.42 423.694 80.44 425.174 80.44C426.634 80.44 427.534 79.42 427.534 77.42V72H429.534V82H427.534V80.4C426.914 81.58 425.854 82.2 424.554 82.2C422.414 82.2 420.794 80.8 420.794 77.82V72H422.794V77.42ZM434.496 72V73.8C435.216 72.5 436.436 71.8 437.956 71.8C438.196 71.8 438.436 71.82 438.596 71.86V74.04C438.296 73.94 437.936 73.88 437.536 73.88C435.616 73.88 434.496 74.92 434.496 76.98V82H432.496V72H434.496ZM450.256 71.8C452.996 71.8 455.056 73.94 455.056 77C455.056 80.06 452.996 82.2 450.256 82.2C448.916 82.2 447.756 81.56 446.976 80.5V82H444.976V67H446.976V73.5C447.756 72.44 448.916 71.8 450.256 71.8ZM450.016 73.64C448.276 73.64 446.976 74.98 446.976 77C446.976 79.02 448.276 80.36 450.016 80.36C451.756 80.36 453.056 79.02 453.056 77C453.056 74.98 451.756 73.64 450.016 73.64ZM459.181 77.42C459.181 79.42 460.081 80.44 461.561 80.44C463.021 80.44 463.921 79.42 463.921 77.42V72H465.921V82H463.921V80.4C463.301 81.58 462.241 82.2 460.941 82.2C458.801 82.2 457.181 80.8 457.181 77.82V72H459.181V77.42ZM476.602 79.18C476.602 81.06 474.922 82.2 472.602 82.2C470.142 82.2 468.282 80.96 468.282 78.78H470.362C470.362 80 471.322 80.62 472.602 80.62C473.822 80.62 474.542 80.16 474.542 79.26C474.542 76.84 468.482 78.76 468.482 74.74C468.482 72.92 470.142 71.8 472.302 71.8C474.642 71.8 476.402 73.22 476.402 75.06H474.322C474.322 74.1 473.462 73.4 472.302 73.4C471.222 73.4 470.502 73.86 470.502 74.66C470.502 76.88 476.602 75.1 476.602 79.18ZM479.96 69.82C479.2 69.82 478.64 69.24 478.64 68.48C478.64 67.72 479.2 67.16 479.96 67.16C480.74 67.16 481.28 67.72 481.28 68.48C481.28 69.24 480.74 69.82 479.96 69.82ZM480.96 82H478.96V72H480.96V82ZM490.761 76.54C490.761 74.56 489.841 73.56 488.341 73.56C486.841 73.56 485.921 74.56 485.921 76.54V82H483.921V72H485.921V73.58C486.541 72.42 487.641 71.8 488.961 71.8C491.141 71.8 492.761 73.2 492.761 76.14V82H490.761V76.54ZM504.681 77.68H496.841C497.081 79.42 498.201 80.44 499.881 80.44C501.101 80.44 501.901 79.9 502.301 79H504.461C503.841 81.06 502.101 82.2 499.801 82.2C496.961 82.2 494.881 80.06 494.881 77C494.881 73.94 496.961 71.8 499.801 71.8C502.641 71.8 504.721 73.94 504.721 77C504.721 77.24 504.701 77.46 504.681 77.68ZM499.801 73.56C498.181 73.56 497.101 74.56 496.861 76.24H502.741C502.501 74.56 501.401 73.56 499.801 73.56ZM514.669 79.18C514.669 81.06 512.989 82.2 510.669 82.2C508.209 82.2 506.349 80.96 506.349 78.78H508.429C508.429 80 509.389 80.62 510.669 80.62C511.889 80.62 512.609 80.16 512.609 79.26C512.609 76.84 506.549 78.76 506.549 74.74C506.549 72.92 508.209 71.8 510.369 71.8C512.709 71.8 514.469 73.22 514.469 75.06H512.389C512.389 74.1 511.529 73.4 510.369 73.4C509.289 73.4 508.569 73.86 508.569 74.66C508.569 76.88 514.669 75.1 514.669 79.18ZM524.747 79.18C524.747 81.06 523.067 82.2 520.747 82.2C518.287 82.2 516.427 80.96 516.427 78.78H518.507C518.507 80 519.467 80.62 520.747 80.62C521.967 80.62 522.687 80.16 522.687 79.26C522.687 76.84 516.627 78.76 516.627 74.74C516.627 72.92 518.287 71.8 520.447 71.8C522.787 71.8 524.547 73.22 524.547 75.06H522.467C522.467 74.1 521.607 73.4 520.447 73.4C519.367 73.4 518.647 73.86 518.647 74.66C518.647 76.88 524.747 75.1 524.747 79.18ZM536.154 77.42H531.314V75.58H536.154V77.42ZM75.96 108.12C75.12 110.5 74.14 112.16 71.68 112.16C71.12 112.16 70.56 112.06 70.18 111.94V110.18C70.56 110.3 71.02 110.4 71.5 110.4C72.76 110.4 73.44 109.66 74.08 108.1L70.12 97H72.12L75.02 105.38L77.9 97H79.9L75.96 108.12ZM85.8195 107.2C82.9195 107.2 80.7595 105.06 80.7595 102C80.7595 98.94 82.9195 96.8 85.8195 96.8C88.7195 96.8 90.8795 98.94 90.8795 102C90.8795 105.06 88.7195 107.2 85.8195 107.2ZM85.8195 105.36C87.5595 105.36 88.8795 104.02 88.8795 102C88.8795 99.98 87.5595 98.64 85.8195 98.64C84.0795 98.64 82.7595 99.98 82.7595 102C82.7595 104.02 84.0795 105.36 85.8195 105.36ZM95.0011 102.42C95.0011 104.42 95.9011 105.44 97.3811 105.44C98.8411 105.44 99.7411 104.42 99.7411 102.42V97H101.741V107H99.7411V105.4C99.1211 106.58 98.0611 107.2 96.7611 107.2C94.6211 107.2 93.0011 105.8 93.0011 102.82V97H95.0011V102.42ZM104.803 97L104.623 92H106.483L106.303 97H104.803ZM111.371 107H109.371V92H111.371V107ZM116.332 107H114.332V92H116.332V107ZM130.742 101.54C130.742 99.56 129.822 98.56 128.322 98.56C126.822 98.56 125.902 99.56 125.902 101.54V107H123.902V97H125.902V98.58C126.522 97.42 127.622 96.8 128.942 96.8C131.122 96.8 132.742 98.2 132.742 101.14V107H130.742V101.54ZM144.661 102.68H136.821C137.061 104.42 138.181 105.44 139.861 105.44C141.081 105.44 141.881 104.9 142.281 104H144.441C143.821 106.06 142.081 107.2 139.781 107.2C136.941 107.2 134.861 105.06 134.861 102C134.861 98.94 136.941 96.8 139.781 96.8C142.621 96.8 144.701 98.94 144.701 102C144.701 102.24 144.681 102.46 144.661 102.68ZM139.781 98.56C138.161 98.56 137.081 99.56 136.841 101.24H142.721C142.481 99.56 141.381 98.56 139.781 98.56ZM155.989 102.68H148.149C148.389 104.42 149.509 105.44 151.189 105.44C152.409 105.44 153.209 104.9 153.609 104H155.769C155.149 106.06 153.409 107.2 151.109 107.2C148.269 107.2 146.189 105.06 146.189 102C146.189 98.94 148.269 96.8 151.109 96.8C153.949 96.8 156.029 98.94 156.029 102C156.029 102.24 156.009 102.46 155.989 102.68ZM151.109 98.56C149.489 98.56 148.409 99.56 148.169 101.24H154.049C153.809 99.56 152.709 98.56 151.109 98.56ZM162.317 96.8C163.657 96.8 164.817 97.44 165.597 98.5V92H167.597V107H165.597V105.5C164.817 106.56 163.657 107.2 162.317 107.2C159.577 107.2 157.517 105.06 157.517 102C157.517 98.94 159.577 96.8 162.317 96.8ZM162.557 98.64C160.817 98.64 159.517 99.98 159.517 102C159.517 104.02 160.817 105.36 162.557 105.36C164.297 105.36 165.597 104.02 165.597 102C165.597 99.98 164.297 98.64 162.557 98.64ZM179.456 108.12C178.616 110.5 177.636 112.16 175.176 112.16C174.616 112.16 174.056 112.06 173.676 111.94V110.18C174.056 110.3 174.516 110.4 174.996 110.4C176.256 110.4 176.936 109.66 177.576 108.1L173.616 97H175.616L178.516 105.38L181.396 97H183.396L179.456 108.12ZM189.316 107.2C186.416 107.2 184.256 105.06 184.256 102C184.256 98.94 186.416 96.8 189.316 96.8C192.216 96.8 194.376 98.94 194.376 102C194.376 105.06 192.216 107.2 189.316 107.2ZM189.316 105.36C191.056 105.36 192.376 104.02 192.376 102C192.376 99.98 191.056 98.64 189.316 98.64C187.576 98.64 186.256 99.98 186.256 102C186.256 104.02 187.576 105.36 189.316 105.36ZM198.497 102.42C198.497 104.42 199.397 105.44 200.877 105.44C202.337 105.44 203.237 104.42 203.237 102.42V97H205.237V107H203.237V105.4C202.617 106.58 201.557 107.2 200.257 107.2C198.117 107.2 196.497 105.8 196.497 102.82V97H198.497V102.42ZM210.199 97V98.8C210.919 97.5 212.139 96.8 213.659 96.8C213.899 96.8 214.139 96.82 214.299 96.86V99.04C213.999 98.94 213.639 98.88 213.239 98.88C211.319 98.88 210.199 99.92 210.199 101.98V107H208.199V97H210.199ZM222.679 107H220.679V92H227.399V93.84H222.679V98.76H226.799V100.6H222.679V107ZM228.971 95.48C228.971 92.86 230.671 91.8 232.751 91.8C234.891 91.8 236.571 93.1 236.571 95.8V96.72H234.571V95.86C234.571 94.32 233.871 93.64 232.751 93.64C231.691 93.64 230.971 94.28 230.971 95.48C230.971 96.66 231.751 97.36 232.731 98.02L234.351 99.18C235.691 100.12 236.791 101.26 236.791 103.2C236.791 105.88 234.991 107.2 232.771 107.2C230.551 107.2 228.751 105.78 228.751 103.2V102.08H230.751V103.06C230.751 104.48 231.551 105.36 232.771 105.36C234.011 105.36 234.791 104.64 234.791 103.44C234.791 102.2 234.031 101.4 233.011 100.7L231.431 99.6C230.071 98.66 228.971 97.48 228.971 95.48ZM241.178 92H244.178L247.538 107H245.518L244.738 103.32H240.618L239.838 107H237.818L241.178 92ZM241.018 101.48H244.338L242.678 93.6L241.018 101.48ZM255.668 97V98.8C256.388 97.5 257.608 96.8 259.128 96.8C259.368 96.8 259.608 96.82 259.768 96.86V99.04C259.468 98.94 259.108 98.88 258.708 98.88C256.788 98.88 255.668 99.92 255.668 101.98V107H253.668V97H255.668ZM264.438 107.2C262.658 107.2 261.038 106.34 261.038 104.36C261.038 100.04 267.778 102.2 267.778 99.92C267.778 98.94 266.838 98.4 265.618 98.4C264.318 98.4 263.418 99.06 263.418 100.36H261.338C261.338 97.78 263.418 96.8 265.618 96.8C267.778 96.8 269.778 97.68 269.778 100V107H267.818V105.32C267.158 106.64 265.878 107.2 264.438 107.2ZM263.078 104.24C263.078 105.1 263.818 105.52 264.838 105.52C266.378 105.52 267.818 104.62 267.818 102.88V102.16C266.118 102.98 263.078 102.56 263.078 104.24ZM275.114 103.58C275.114 104.82 275.654 105.36 276.814 105.36C277.254 105.36 277.654 105.3 277.994 105.18V106.96C277.634 107.08 277.014 107.2 276.434 107.2C274.514 107.2 273.114 106.42 273.114 103.7V98.76H271.474V97H273.114V94.04H275.114V97H277.994V98.76H275.114V103.58ZM281.347 94.82C280.587 94.82 280.027 94.24 280.027 93.48C280.027 92.72 280.587 92.16 281.347 92.16C282.127 92.16 282.667 92.72 282.667 93.48C282.667 94.24 282.127 94.82 281.347 94.82ZM282.347 107H280.347V97H282.347V107ZM292.148 101.54C292.148 99.56 291.228 98.56 289.728 98.56C288.228 98.56 287.308 99.56 287.308 101.54V107H285.308V97H287.308V98.58C287.928 97.42 289.028 96.8 290.348 96.8C292.528 96.8 294.148 98.2 294.148 101.14V107H292.148V101.54ZM301.067 107.2C298.327 107.2 296.267 105.06 296.267 102C296.267 98.94 298.327 96.8 301.067 96.8C302.407 96.8 303.567 97.44 304.347 98.5V97H306.347V107.08C306.347 110.12 304.167 112.2 301.427 112.2C298.807 112.2 296.867 110.46 296.507 107.88H298.527C298.787 109.38 299.867 110.36 301.427 110.36C303.267 110.36 304.347 109 304.347 107.08V105.5C303.567 106.56 302.407 107.2 301.067 107.2ZM301.307 105.36C303.047 105.36 304.347 104.02 304.347 102C304.347 99.98 303.047 98.64 301.307 98.64C299.567 98.64 298.267 99.98 298.267 102C298.267 104.02 299.567 105.36 301.307 105.36ZM316.481 103.58C316.481 104.82 317.021 105.36 318.181 105.36C318.621 105.36 319.021 105.3 319.361 105.18V106.96C319.001 107.08 318.381 107.2 317.801 107.2C315.881 107.2 314.481 106.42 314.481 103.7V98.76H312.841V97H314.481V94.04H316.481V97H319.361V98.76H316.481V103.58ZM325.937 107.2C323.037 107.2 320.877 105.06 320.877 102C320.877 98.94 323.037 96.8 325.937 96.8C328.837 96.8 330.997 98.94 330.997 102C330.997 105.06 328.837 107.2 325.937 107.2ZM325.937 105.36C327.677 105.36 328.997 104.02 328.997 102C328.997 99.98 327.677 98.64 325.937 98.64C324.197 98.64 322.877 99.98 322.877 102C322.877 104.02 324.197 105.36 325.937 105.36ZM341.888 107.2C339.148 107.2 337.088 105.06 337.088 102C337.088 98.94 339.148 96.8 341.888 96.8C343.228 96.8 344.388 97.44 345.168 98.5V97H347.168V107.08C347.168 110.12 344.988 112.2 342.248 112.2C339.628 112.2 337.688 110.46 337.328 107.88H339.348C339.608 109.38 340.688 110.36 342.248 110.36C344.088 110.36 345.168 109 345.168 107.08V105.5C344.388 106.56 343.228 107.2 341.888 107.2ZM342.128 105.36C343.868 105.36 345.168 104.02 345.168 102C345.168 99.98 343.868 98.64 342.128 98.64C340.388 98.64 339.088 99.98 339.088 102C339.088 104.02 340.388 105.36 342.128 105.36ZM359.192 102.68H351.352C351.592 104.42 352.712 105.44 354.392 105.44C355.612 105.44 356.412 104.9 356.812 104H358.972C358.352 106.06 356.612 107.2 354.312 107.2C351.472 107.2 349.392 105.06 349.392 102C349.392 98.94 351.472 96.8 354.312 96.8C357.152 96.8 359.232 98.94 359.232 102C359.232 102.24 359.212 102.46 359.192 102.68ZM354.312 98.56C352.692 98.56 351.612 99.56 351.372 101.24H357.252C357.012 99.56 355.912 98.56 354.312 98.56ZM364.02 103.58C364.02 104.82 364.56 105.36 365.72 105.36C366.16 105.36 366.56 105.3 366.9 105.18V106.96C366.54 107.08 365.92 107.2 365.34 107.2C363.42 107.2 362.02 106.42 362.02 103.7V98.76H360.38V97H362.02V94.04H364.02V97H366.9V98.76H364.02V103.58ZM381.583 104.18C381.583 106.06 379.903 107.2 377.583 107.2C375.123 107.2 373.263 105.96 373.263 103.78H375.343C375.343 105 376.303 105.62 377.583 105.62C378.803 105.62 379.523 105.16 379.523 104.26C379.523 101.84 373.463 103.76 373.463 99.74C373.463 97.92 375.123 96.8 377.283 96.8C379.623 96.8 381.383 98.22 381.383 100.06H379.303C379.303 99.1 378.443 98.4 377.283 98.4C376.203 98.4 375.483 98.86 375.483 99.66C375.483 101.88 381.583 100.1 381.583 104.18ZM386.501 103.58C386.501 104.82 387.041 105.36 388.201 105.36C388.641 105.36 389.041 105.3 389.381 105.18V106.96C389.021 107.08 388.401 107.2 387.821 107.2C385.901 107.2 384.501 106.42 384.501 103.7V98.76H382.861V97H384.501V94.04H386.501V97H389.381V98.76H386.501V103.58ZM394.614 107.2C392.834 107.2 391.214 106.34 391.214 104.36C391.214 100.04 397.954 102.2 397.954 99.92C397.954 98.94 397.014 98.4 395.794 98.4C394.494 98.4 393.594 99.06 393.594 100.36H391.514C391.514 97.78 393.594 96.8 395.794 96.8C397.954 96.8 399.954 97.68 399.954 100V107H397.994V105.32C397.334 106.64 396.054 107.2 394.614 107.2ZM393.254 104.24C393.254 105.1 393.994 105.52 395.014 105.52C396.554 105.52 397.994 104.62 397.994 102.88V102.16C396.294 102.98 393.254 102.56 393.254 104.24ZM404.73 97V98.8C405.45 97.5 406.67 96.8 408.19 96.8C408.43 96.8 408.67 96.82 408.83 96.86V99.04C408.53 98.94 408.17 98.88 407.77 98.88C405.85 98.88 404.73 99.92 404.73 101.98V107H402.73V97H404.73ZM413.356 103.58C413.356 104.82 413.896 105.36 415.056 105.36C415.496 105.36 415.896 105.3 416.236 105.18V106.96C415.876 107.08 415.256 107.2 414.676 107.2C412.756 107.2 411.356 106.42 411.356 103.7V98.76H409.716V97H411.356V94.04H413.356V97H416.236V98.76H413.356V103.58ZM427.552 102.68H419.712C419.952 104.42 421.072 105.44 422.752 105.44C423.972 105.44 424.772 104.9 425.172 104H427.332C426.712 106.06 424.972 107.2 422.672 107.2C419.832 107.2 417.752 105.06 417.752 102C417.752 98.94 419.832 96.8 422.672 96.8C425.512 96.8 427.592 98.94 427.592 102C427.592 102.24 427.572 102.46 427.552 102.68ZM422.672 98.56C421.052 98.56 419.972 99.56 419.732 101.24H425.612C425.372 99.56 424.272 98.56 422.672 98.56ZM433.88 96.8C435.22 96.8 436.38 97.44 437.16 98.5V92H439.16V107H437.16V105.5C436.38 106.56 435.22 107.2 433.88 107.2C431.14 107.2 429.08 105.06 429.08 102C429.08 98.94 431.14 96.8 433.88 96.8ZM434.12 98.64C432.38 98.64 431.08 99.98 431.08 102C431.08 104.02 432.38 105.36 434.12 105.36C435.86 105.36 437.16 104.02 437.16 102C437.16 99.98 435.86 98.64 434.12 98.64Z" fill="#565859"/>
<path d="M71.024 18.952C71.024 14.344 74.096 12.52 77.808 12.52C81.584 12.52 84.56 14.6 84.56 18.92V20.68H79.536V19.016C79.536 17.544 78.864 16.84 77.808 16.84C76.848 16.84 76.144 17.448 76.144 18.568C76.144 20.136 77.072 20.84 78.64 22.024L81.296 24.072C83.344 25.608 84.88 27.56 84.88 30.664C84.88 35.24 81.712 37.48 77.84 37.48C73.968 37.48 70.8 35.208 70.8 31.08V29H75.92V30.856C75.92 32.264 76.688 33.16 77.84 33.16C79.024 33.16 79.728 32.456 79.728 31.304C79.728 29.672 78.768 28.936 77.104 27.656L74.544 25.704C72.464 24.136 71.024 22.216 71.024 18.952ZM92.5713 37H87.1313V13H92.5713V37ZM102.092 37.48C97.9963 37.48 95.4363 34.728 95.4363 29.16V20.84C95.4363 15.272 98.4123 12.52 103.276 12.52C108.14 12.52 111.116 15.272 111.116 20.84V22.024H105.676V20.68C105.676 18.024 104.78 17.16 103.276 17.16C101.804 17.16 100.876 18.024 100.876 20.68V29.32C100.876 31.944 101.772 32.84 103.276 32.84C104.748 32.84 105.676 31.944 105.676 29.48V28.36H102.956V24.04H111.116V37H107.148V34.632C106.124 36.552 104.364 37.48 102.092 37.48ZM122.035 13L125.427 33.192V13H129.843V37H121.97L118.579 16.488V37H114.163V13H122.035ZM140.253 13H145.693V29.64C145.693 32.008 146.525 32.84 147.933 32.84C149.309 32.84 150.173 32.008 150.173 29.64V13H155.613V29.48C155.613 34.824 152.701 37.48 147.933 37.48C143.165 37.48 140.253 34.824 140.253 29.48V13ZM163.943 37H158.663V13H166.151C170.567 13 173.383 15.432 173.383 20.04V21.32C173.383 25.992 170.567 28.52 166.151 28.52H163.943V37ZM165.895 17.48H163.943V24.04H165.895C167.431 24.04 168.327 23.176 168.327 21V20.36C168.327 18.248 167.431 17.48 165.895 17.48Z" fill="#0F1114"/>
<path d="M45.8347 23.0834V25C45.8321 29.4926 44.3774 33.8639 41.6874 37.4622C38.9975 41.0604 35.2165 43.6927 30.9083 44.9665C26.6001 46.2403 21.9956 46.0873 17.7815 44.5304C13.5673 42.9735 9.96933 40.0961 7.52414 36.3273C5.07894 32.5584 3.91753 28.1002 4.21313 23.6174C4.50872 19.1346 6.24548 14.8674 9.16439 11.4523C12.0833 8.03717 16.0279 5.65709 20.41 4.66701C24.7921 3.67694 29.3769 4.12991 33.4805 5.95838" stroke="#00BFBA" stroke-width="4" stroke-linecap="round" stroke-linejoin="round"/>
<path d="M45.8333 8.3335L25 29.1877L18.75 22.9377" stroke="#00BFBA" stroke-width="4" stroke-linecap="round" stroke-linejoin="round"/>
<path d="M71.38 234H73.38V244.38C73.38 246.58 74.24 247.36 75.7 247.36C77.14 247.36 78.02 246.58 78.02 244.38V234H80.02V244.38C80.02 247.64 78.4 249.2 75.7 249.2C73 249.2 71.38 247.64 71.38 244.38V234ZM84.8863 254H82.8863V239H84.8863V240.5C85.6663 239.44 86.8263 238.8 88.1663 238.8C90.9063 238.8 92.9663 240.94 92.9663 244C92.9663 247.06 90.9063 249.2 88.1663 249.2C86.8263 249.2 85.6663 248.56 84.8863 247.5V254ZM87.9263 247.36C89.6663 247.36 90.9663 246.02 90.9663 244C90.9663 241.98 89.6663 240.64 87.9263 240.64C86.1863 240.64 84.8863 241.98 84.8863 244C84.8863 246.02 86.1863 247.36 87.9263 247.36ZM97.1909 249H95.1909V234H97.1909V249ZM104.472 249.2C101.572 249.2 99.4119 247.06 99.4119 244C99.4119 240.94 101.572 238.8 104.472 238.8C107.372 238.8 109.532 240.94 109.532 244C109.532 247.06 107.372 249.2 104.472 249.2ZM104.472 247.36C106.212 247.36 107.532 246.02 107.532 244C107.532 241.98 106.212 240.64 104.472 240.64C102.732 240.64 101.412 241.98 101.412 244C101.412 246.02 102.732 247.36 104.472 247.36ZM114.633 249.2C112.853 249.2 111.233 248.34 111.233 246.36C111.233 242.04 117.973 244.2 117.973 241.92C117.973 240.94 117.033 240.4 115.813 240.4C114.513 240.4 113.613 241.06 113.613 242.36H111.533C111.533 239.78 113.613 238.8 115.813 238.8C117.973 238.8 119.973 239.68 119.973 242V249H118.013V247.32C117.353 248.64 116.073 249.2 114.633 249.2ZM113.273 246.24C113.273 247.1 114.013 247.52 115.033 247.52C116.573 247.52 118.013 246.62 118.013 244.88V244.16C116.313 244.98 113.273 244.56 113.273 246.24ZM126.81 238.8C128.15 238.8 129.31 239.44 130.09 240.5V234H132.09V249H130.09V247.5C129.31 248.56 128.15 249.2 126.81 249.2C124.07 249.2 122.01 247.06 122.01 244C122.01 240.94 124.07 238.8 126.81 238.8ZM127.05 240.64C125.31 240.64 124.01 241.98 124.01 244C124.01 246.02 125.31 247.36 127.05 247.36C128.79 247.36 130.09 246.02 130.09 244C130.09 241.98 128.79 240.64 127.05 240.64ZM142.544 249.2C140.764 249.2 139.144 248.34 139.144 246.36C139.144 242.04 145.884 244.2 145.884 241.92C145.884 240.94 144.944 240.4 143.724 240.4C142.424 240.4 141.524 241.06 141.524 242.36H139.444C139.444 239.78 141.524 238.8 143.724 238.8C145.884 238.8 147.884 239.68 147.884 242V249H145.924V247.32C145.264 248.64 143.984 249.2 142.544 249.2ZM141.184 246.24C141.184 247.1 141.924 247.52 142.944 247.52C144.484 247.52 145.924 246.62 145.924 244.88V244.16C144.224 244.98 141.184 244.56 141.184 246.24ZM161.589 243.26C161.589 241.46 160.769 240.56 159.429 240.56C158.089 240.56 157.269 241.46 157.269 243.26V249H155.269V239H157.269V240.4C157.849 239.36 158.849 238.8 160.049 238.8C161.469 238.8 162.629 239.44 163.209 240.78C163.789 239.48 164.949 238.8 166.389 238.8C168.409 238.8 169.909 240.12 169.909 242.86V249H167.909V243.26C167.909 241.46 167.109 240.56 165.769 240.56C164.409 240.56 163.589 241.46 163.589 243.26V249H161.589V243.26ZM181.829 244.68H173.989C174.229 246.42 175.349 247.44 177.029 247.44C178.249 247.44 179.049 246.9 179.449 246H181.609C180.989 248.06 179.249 249.2 176.949 249.2C174.109 249.2 172.029 247.06 172.029 244C172.029 240.94 174.109 238.8 176.949 238.8C179.789 238.8 181.869 240.94 181.869 244C181.869 244.24 181.849 244.46 181.829 244.68ZM176.949 240.56C175.329 240.56 174.249 241.56 174.009 243.24H179.889C179.649 241.56 178.549 240.56 176.949 240.56ZM190.937 243.54C190.937 241.56 190.017 240.56 188.517 240.56C187.017 240.56 186.097 241.56 186.097 243.54V249H184.097V239H186.097V240.58C186.717 239.42 187.817 238.8 189.137 238.8C191.317 238.8 192.937 240.2 192.937 243.14V249H190.937V243.54ZM197.696 244.42C197.696 246.42 198.596 247.44 200.076 247.44C201.536 247.44 202.436 246.42 202.436 244.42V239H204.436V249H202.436V247.4C201.816 248.58 200.756 249.2 199.456 249.2C197.316 249.2 195.696 247.8 195.696 244.82V239H197.696V244.42ZM214.887 249.2C213.107 249.2 211.487 248.34 211.487 246.36C211.487 242.04 218.227 244.2 218.227 241.92C218.227 240.94 217.287 240.4 216.067 240.4C214.767 240.4 213.867 241.06 213.867 242.36H211.787C211.787 239.78 213.867 238.8 216.067 238.8C218.227 238.8 220.227 239.68 220.227 242V249H218.267V247.32C217.607 248.64 216.327 249.2 214.887 249.2ZM213.527 246.24C213.527 247.1 214.267 247.52 215.287 247.52C216.827 247.52 218.267 246.62 218.267 244.88V244.16C216.567 244.98 213.527 244.56 213.527 246.24ZM229.843 243.54C229.843 241.56 228.923 240.56 227.423 240.56C225.923 240.56 225.003 241.56 225.003 243.54V249H223.003V239H225.003V240.58C225.623 239.42 226.723 238.8 228.043 238.8C230.223 238.8 231.843 240.2 231.843 243.14V249H229.843V243.54ZM238.763 238.8C240.103 238.8 241.263 239.44 242.043 240.5V234H244.043V249H242.043V247.5C241.263 248.56 240.103 249.2 238.763 249.2C236.023 249.2 233.963 247.06 233.963 244C233.963 240.94 236.023 238.8 238.763 238.8ZM239.003 240.64C237.263 240.64 235.963 241.98 235.963 244C235.963 246.02 237.263 247.36 239.003 247.36C240.743 247.36 242.043 246.02 242.043 244C242.043 241.98 240.743 240.64 239.003 240.64ZM259.337 246.18C259.337 248.06 257.657 249.2 255.337 249.2C252.877 249.2 251.017 247.96 251.017 245.78H253.097C253.097 247 254.057 247.62 255.337 247.62C256.557 247.62 257.277 247.16 257.277 246.26C257.277 243.84 251.217 245.76 251.217 241.74C251.217 239.92 252.877 238.8 255.037 238.8C257.377 238.8 259.137 240.22 259.137 242.06H257.057C257.057 241.1 256.197 240.4 255.037 240.4C253.957 240.4 253.237 240.86 253.237 241.66C253.237 243.88 259.337 242.1 259.337 246.18ZM268.535 243.54C268.535 241.56 267.615 240.56 266.115 240.56C264.615 240.56 263.695 241.56 263.695 243.54V249H261.695V234H263.695V240.58C264.315 239.42 265.415 238.8 266.735 238.8C268.915 238.8 270.535 240.2 270.535 243.14V249H268.535V243.54ZM276.274 249.2C274.494 249.2 272.874 248.34 272.874 246.36C272.874 242.04 279.614 244.2 279.614 241.92C279.614 240.94 278.674 240.4 277.454 240.4C276.154 240.4 275.254 241.06 275.254 242.36H273.174C273.174 239.78 275.254 238.8 277.454 238.8C279.614 238.8 281.614 239.68 281.614 242V249H279.654V247.32C278.994 248.64 277.714 249.2 276.274 249.2ZM274.914 246.24C274.914 247.1 275.654 247.52 276.674 247.52C278.214 247.52 279.654 246.62 279.654 244.88V244.16C277.954 244.98 274.914 244.56 274.914 246.24ZM286.39 239V240.8C287.11 239.5 288.33 238.8 289.85 238.8C290.09 238.8 290.33 238.82 290.49 238.86V241.04C290.19 240.94 289.83 240.88 289.43 240.88C287.51 240.88 286.39 241.92 286.39 243.98V249H284.39V239H286.39ZM301.243 244.68H293.403C293.643 246.42 294.763 247.44 296.443 247.44C297.663 247.44 298.463 246.9 298.863 246H301.023C300.403 248.06 298.663 249.2 296.363 249.2C293.523 249.2 291.443 247.06 291.443 244C291.443 240.94 293.523 238.8 296.363 238.8C299.203 238.8 301.283 240.94 301.283 244C301.283 244.24 301.263 244.46 301.243 244.68ZM296.363 240.56C294.743 240.56 293.663 241.56 293.423 243.24H299.303C299.063 241.56 297.963 240.56 296.363 240.56ZM312.405 250.12C311.565 252.5 310.585 254.16 308.125 254.16C307.565 254.16 307.005 254.06 306.625 253.94V252.18C307.005 252.3 307.465 252.4 307.945 252.4C309.205 252.4 309.885 251.66 310.525 250.1L306.565 239H308.565L311.465 247.38L314.345 239H316.345L312.405 250.12ZM322.265 249.2C319.365 249.2 317.205 247.06 317.205 244C317.205 240.94 319.365 238.8 322.265 238.8C325.165 238.8 327.325 240.94 327.325 244C327.325 247.06 325.165 249.2 322.265 249.2ZM322.265 247.36C324.005 247.36 325.325 246.02 325.325 244C325.325 241.98 324.005 240.64 322.265 240.64C320.525 240.64 319.205 241.98 319.205 244C319.205 246.02 320.525 247.36 322.265 247.36ZM331.446 244.42C331.446 246.42 332.346 247.44 333.826 247.44C335.286 247.44 336.186 246.42 336.186 244.42V239H338.186V249H336.186V247.4C335.566 248.58 334.506 249.2 333.206 249.2C331.066 249.2 329.446 247.8 329.446 244.82V239H331.446V244.42ZM343.148 239V240.8C343.868 239.5 345.088 238.8 346.608 238.8C346.848 238.8 347.088 238.82 347.248 238.86V241.04C346.948 240.94 346.588 240.88 346.188 240.88C344.268 240.88 343.148 241.92 343.148 243.98V249H341.148V239H343.148ZM361.348 246.18C361.348 248.06 359.668 249.2 357.348 249.2C354.888 249.2 353.028 247.96 353.028 245.78H355.108C355.108 247 356.068 247.62 357.348 247.62C358.568 247.62 359.288 247.16 359.288 246.26C359.288 243.84 353.228 245.76 353.228 241.74C353.228 239.92 354.888 238.8 357.048 238.8C359.388 238.8 361.148 240.22 361.148 242.06H359.068C359.068 241.1 358.208 240.4 357.048 240.4C355.968 240.4 355.248 240.86 355.248 241.66C355.248 243.88 361.348 242.1 361.348 246.18ZM366.267 245.58C366.267 246.82 366.807 247.36 367.967 247.36C368.407 247.36 368.807 247.3 369.147 247.18V248.96C368.787 249.08 368.167 249.2 367.587 249.2C365.667 249.2 364.267 248.42 364.267 245.7V240.76H362.627V239H364.267V236.04H366.267V239H369.147V240.76H366.267V245.58ZM375.722 249.2C372.822 249.2 370.662 247.06 370.662 244C370.662 240.94 372.822 238.8 375.722 238.8C378.622 238.8 380.782 240.94 380.782 244C380.782 247.06 378.622 249.2 375.722 249.2ZM375.722 247.36C377.462 247.36 378.782 246.02 378.782 244C378.782 241.98 377.462 240.64 375.722 240.64C373.982 240.64 372.662 241.98 372.662 244C372.662 246.02 373.982 247.36 375.722 247.36ZM385.003 239V240.8C385.723 239.5 386.943 238.8 388.463 238.8C388.703 238.8 388.943 238.82 389.103 238.86V241.04C388.803 240.94 388.443 240.88 388.043 240.88C386.123 240.88 385.003 241.92 385.003 243.98V249H383.003V239H385.003ZM399.856 244.68H392.016C392.256 246.42 393.376 247.44 395.056 247.44C396.276 247.44 397.076 246.9 397.476 246H399.636C399.016 248.06 397.276 249.2 394.976 249.2C392.136 249.2 390.056 247.06 390.056 244C390.056 240.94 392.136 238.8 394.976 238.8C397.816 238.8 399.896 240.94 399.896 244C399.896 244.24 399.876 244.46 399.856 244.68ZM394.976 240.56C393.356 240.56 392.276 241.56 392.036 243.24H397.916C397.676 241.56 396.576 240.56 394.976 240.56ZM413.574 243.54C413.574 241.56 412.654 240.56 411.154 240.56C409.654 240.56 408.734 241.56 408.734 243.54V249H406.734V234H408.734V240.58C409.354 239.42 410.454 238.8 411.774 238.8C413.954 238.8 415.574 240.2 415.574 243.14V249H413.574V243.54ZM422.753 249.2C419.853 249.2 417.693 247.06 417.693 244C417.693 240.94 419.853 238.8 422.753 238.8C425.653 238.8 427.813 240.94 427.813 244C427.813 247.06 425.653 249.2 422.753 249.2ZM422.753 247.36C424.493 247.36 425.813 246.02 425.813 244C425.813 241.98 424.493 240.64 422.753 240.64C421.013 240.64 419.693 241.98 419.693 244C419.693 246.02 421.013 247.36 422.753 247.36ZM431.935 244.42C431.935 246.42 432.835 247.44 434.315 247.44C435.775 247.44 436.675 246.42 436.675 244.42V239H438.675V249H436.675V247.4C436.055 248.58 434.995 249.2 433.695 249.2C431.555 249.2 429.935 247.8 429.935 244.82V239H431.935V244.42ZM443.636 239V240.8C444.356 239.5 445.576 238.8 447.096 238.8C447.336 238.8 447.576 238.82 447.736 238.86V241.04C447.436 240.94 447.076 240.88 446.676 240.88C444.756 240.88 443.636 241.92 443.636 243.98V249H441.636V239H443.636ZM457.423 246.18C457.423 248.06 455.743 249.2 453.423 249.2C450.963 249.2 449.103 247.96 449.103 245.78H451.183C451.183 247 452.143 247.62 453.423 247.62C454.643 247.62 455.363 247.16 455.363 246.26C455.363 243.84 449.303 245.76 449.303 241.74C449.303 239.92 450.963 238.8 453.123 238.8C455.463 238.8 457.223 240.22 457.223 242.06H455.143C455.143 241.1 454.283 240.4 453.123 240.4C452.043 240.4 451.323 240.86 451.323 241.66C451.323 243.88 457.423 242.1 457.423 246.18Z" fill="#565859"/>
<path d="M71.024 185.952C71.024 181.344 74.096 179.52 77.808 179.52C81.584 179.52 84.56 181.6 84.56 185.92V187.68H79.536V186.016C79.536 184.544 78.864 183.84 77.808 183.84C76.848 183.84 76.144 184.448 76.144 185.568C76.144 187.136 77.072 187.84 78.64 189.024L81.296 191.072C83.344 192.608 84.88 194.56 84.88 197.664C84.88 202.24 81.712 204.48 77.84 204.48C73.968 204.48 70.8 202.208 70.8 198.08V196H75.92V197.856C75.92 199.264 76.688 200.16 77.84 200.16C79.024 200.16 79.728 199.456 79.728 198.304C79.728 196.672 78.768 195.936 77.104 194.656L74.544 192.704C72.464 191.136 71.024 189.216 71.024 185.952ZM99.0993 199.36V204H87.1313V180H99.0993V184.64H92.5073V189.44H98.4593V194.08H92.5073V199.36H99.0993ZM109.727 204H104.286V184.64H100.383V180H113.631V184.64H109.727V204ZM122.44 180H127.88V196.64C127.88 199.008 128.712 199.84 130.12 199.84C131.496 199.84 132.36 199.008 132.36 196.64V180H137.8V196.48C137.8 201.824 134.888 204.48 130.12 204.48C125.352 204.48 122.44 201.824 122.44 196.48V180ZM146.13 204H140.85V180H148.338C152.754 180 155.57 182.432 155.57 187.04V188.32C155.57 192.992 152.754 195.52 148.338 195.52H146.13V204ZM148.082 184.48H146.13V191.04H148.082C149.618 191.04 150.514 190.176 150.514 188V187.36C150.514 185.248 149.618 184.48 148.082 184.48Z" fill="#0F1114"/>
<path d="M45.8347 190.083V192C45.8321 196.493 44.3774 200.864 41.6874 204.462C38.9975 208.06 35.2165 210.693 30.9083 211.967C26.6001 213.24 21.9956 213.087 17.7815 211.53C13.5673 209.974 9.96933 207.096 7.52414 203.327C5.07894 199.558 3.91753 195.1 4.21313 190.617C4.50872 186.135 6.24548 181.867 9.16439 178.452C12.0833 175.037 16.0279 172.657 20.41 171.667C24.7921 170.677 29.3769 171.13 33.4805 172.958" stroke="#00BFBA" stroke-width="4" stroke-linecap="round" stroke-linejoin="round"/>
<path d="M45.8333 175.333L25 196.188L18.75 189.938" stroke="#00BFBA" stroke-width="4" stroke-linecap="round" stroke-linejoin="round"/>
<path d="M75.5 391H72.5L70.2 376H72.2L74.04 389.02L76 376H79L80.96 389.02L82.8 376H84.8L82.5 391H79.5L77.5 377.72L75.5 391ZM89.1647 391.2C87.3847 391.2 85.7647 390.34 85.7647 388.36C85.7647 384.04 92.5047 386.2 92.5047 383.92C92.5047 382.94 91.5647 382.4 90.3447 382.4C89.0447 382.4 88.1447 383.06 88.1447 384.36H86.0647C86.0647 381.78 88.1447 380.8 90.3447 380.8C92.5047 380.8 94.5047 381.68 94.5047 384V391H92.5447V389.32C91.8847 390.64 90.6047 391.2 89.1647 391.2ZM87.8047 388.24C87.8047 389.1 88.5447 389.52 89.5647 389.52C91.1047 389.52 92.5447 388.62 92.5447 386.88V386.16C90.8447 386.98 87.8047 386.56 87.8047 388.24ZM99.8408 387.58C99.8408 388.82 100.381 389.36 101.541 389.36C101.981 389.36 102.381 389.3 102.721 389.18V390.96C102.361 391.08 101.741 391.2 101.161 391.2C99.2408 391.2 97.8408 390.42 97.8408 387.7V382.76H96.2008V381H97.8408V378.04H99.8408V381H102.721V382.76H99.8408V387.58ZM112.076 384.98C111.876 383.46 110.656 382.64 109.216 382.64C107.516 382.64 106.236 383.98 106.236 386C106.236 388.02 107.516 389.36 109.216 389.36C110.676 389.36 111.916 388.46 112.116 386.8H114.196C114.036 389.44 111.936 391.2 109.216 391.2C106.356 391.2 104.236 389.06 104.236 386C104.236 382.94 106.356 380.8 109.216 380.8C111.856 380.8 113.916 382.48 114.156 384.98H112.076ZM123.261 385.54C123.261 383.56 122.341 382.56 120.841 382.56C119.341 382.56 118.421 383.56 118.421 385.54V391H116.421V376H118.421V382.58C119.041 381.42 120.141 380.8 121.461 380.8C123.641 380.8 125.261 382.2 125.261 385.14V391H123.261V385.54ZM135.29 387.58C135.29 388.82 135.83 389.36 136.99 389.36C137.43 389.36 137.83 389.3 138.17 389.18V390.96C137.81 391.08 137.19 391.2 136.61 391.2C134.69 391.2 133.29 390.42 133.29 387.7V382.76H131.65V381H133.29V378.04H135.29V381H138.17V382.76H135.29V387.58ZM147.363 385.54C147.363 383.56 146.443 382.56 144.943 382.56C143.443 382.56 142.523 383.56 142.523 385.54V391H140.523V376H142.523V382.58C143.143 381.42 144.243 380.8 145.563 380.8C147.743 380.8 149.363 382.2 149.363 385.14V391H147.363V385.54ZM161.282 386.68H153.442C153.682 388.42 154.802 389.44 156.482 389.44C157.702 389.44 158.502 388.9 158.902 388H161.062C160.442 390.06 158.702 391.2 156.402 391.2C153.562 391.2 151.482 389.06 151.482 386C151.482 382.94 153.562 380.8 156.402 380.8C159.242 380.8 161.322 382.94 161.322 386C161.322 386.24 161.302 386.46 161.282 386.68ZM156.402 382.56C154.782 382.56 153.702 383.56 153.462 385.24H159.342C159.102 383.56 158.002 382.56 156.402 382.56ZM172.48 391.2C169.58 391.2 167.42 389.06 167.42 386C167.42 382.94 169.58 380.8 172.48 380.8C175.38 380.8 177.54 382.94 177.54 386C177.54 389.06 175.38 391.2 172.48 391.2ZM172.48 389.36C174.22 389.36 175.54 388.02 175.54 386C175.54 383.98 174.22 382.64 172.48 382.64C170.74 382.64 169.42 383.98 169.42 386C169.42 388.02 170.74 389.36 172.48 389.36ZM181.761 381V382.8C182.481 381.5 183.701 380.8 185.221 380.8C185.461 380.8 185.701 380.82 185.861 380.86V383.04C185.561 382.94 185.201 382.88 184.801 382.88C182.881 382.88 181.761 383.92 181.761 385.98V391H179.761V381H181.761ZM191.614 380.8C192.954 380.8 194.114 381.44 194.894 382.5V376H196.894V391H194.894V389.5C194.114 390.56 192.954 391.2 191.614 391.2C188.874 391.2 186.814 389.06 186.814 386C186.814 382.94 188.874 380.8 191.614 380.8ZM191.854 382.64C190.114 382.64 188.814 383.98 188.814 386C188.814 388.02 190.114 389.36 191.854 389.36C193.594 389.36 194.894 388.02 194.894 386C194.894 383.98 193.594 382.64 191.854 382.64ZM208.919 386.68H201.079C201.319 388.42 202.439 389.44 204.119 389.44C205.339 389.44 206.139 388.9 206.539 388H208.699C208.079 390.06 206.339 391.2 204.039 391.2C201.199 391.2 199.119 389.06 199.119 386C199.119 382.94 201.199 380.8 204.039 380.8C206.879 380.8 208.959 382.94 208.959 386C208.959 386.24 208.939 386.46 208.919 386.68ZM204.039 382.56C202.419 382.56 201.339 383.56 201.099 385.24H206.979C206.739 383.56 205.639 382.56 204.039 382.56ZM213.187 381V382.8C213.907 381.5 215.127 380.8 216.647 380.8C216.887 380.8 217.127 380.82 217.287 380.86V383.04C216.987 382.94 216.627 382.88 216.227 382.88C214.307 382.88 213.187 383.92 213.187 385.98V391H211.187V381H213.187ZM226.973 388.18C226.973 390.06 225.293 391.2 222.973 391.2C220.513 391.2 218.653 389.96 218.653 387.78H220.733C220.733 389 221.693 389.62 222.973 389.62C224.193 389.62 224.913 389.16 224.913 388.26C224.913 385.84 218.853 387.76 218.853 383.74C218.853 381.92 220.513 380.8 222.673 380.8C225.013 380.8 226.773 382.22 226.773 384.06H224.693C224.693 383.1 223.833 382.4 222.673 382.4C221.593 382.4 220.873 382.86 220.873 383.66C220.873 385.88 226.973 384.1 226.973 388.18ZM241.041 384.98C240.841 383.46 239.621 382.64 238.181 382.64C236.481 382.64 235.201 383.98 235.201 386C235.201 388.02 236.481 389.36 238.181 389.36C239.641 389.36 240.881 388.46 241.081 386.8H243.161C243.001 389.44 240.901 391.2 238.181 391.2C235.321 391.2 233.201 389.06 233.201 386C233.201 382.94 235.321 380.8 238.181 380.8C240.821 380.8 242.881 382.48 243.121 384.98H241.041ZM249.706 391.2C246.806 391.2 244.646 389.06 244.646 386C244.646 382.94 246.806 380.8 249.706 380.8C252.606 380.8 254.766 382.94 254.766 386C254.766 389.06 252.606 391.2 249.706 391.2ZM249.706 389.36C251.446 389.36 252.766 388.02 252.766 386C252.766 383.98 251.446 382.64 249.706 382.64C247.966 382.64 246.646 383.98 246.646 386C246.646 388.02 247.966 389.36 249.706 389.36ZM263.308 385.26C263.308 383.46 262.488 382.56 261.148 382.56C259.808 382.56 258.988 383.46 258.988 385.26V391H256.988V381H258.988V382.4C259.568 381.36 260.568 380.8 261.768 380.8C263.188 380.8 264.348 381.44 264.928 382.78C265.508 381.48 266.668 380.8 268.108 380.8C270.128 380.8 271.628 382.12 271.628 384.86V391H269.628V385.26C269.628 383.46 268.828 382.56 267.488 382.56C266.128 382.56 265.308 383.46 265.308 385.26V391H263.308V385.26ZM283.548 386.68H275.708C275.948 388.42 277.068 389.44 278.748 389.44C279.968 389.44 280.768 388.9 281.168 388H283.328C282.708 390.06 280.968 391.2 278.668 391.2C275.828 391.2 273.748 389.06 273.748 386C273.748 382.94 275.828 380.8 278.668 380.8C281.508 380.8 283.588 382.94 283.588 386C283.588 386.24 283.568 386.46 283.548 386.68ZM278.668 382.56C277.048 382.56 275.968 383.56 275.728 385.24H281.608C281.368 383.56 280.268 382.56 278.668 382.56ZM291.425 378.82C290.665 378.82 290.105 378.24 290.105 377.48C290.105 376.72 290.665 376.16 291.425 376.16C292.205 376.16 292.745 376.72 292.745 377.48C292.745 378.24 292.205 378.82 291.425 378.82ZM292.425 391H290.425V381H292.425V391ZM302.226 385.54C302.226 383.56 301.306 382.56 299.806 382.56C298.306 382.56 297.386 383.56 297.386 385.54V391H295.386V381H297.386V382.58C298.006 381.42 299.106 380.8 300.426 380.8C302.606 380.8 304.226 382.2 304.226 385.14V391H302.226V385.54ZM314.575 391.2C312.795 391.2 311.175 390.34 311.175 388.36C311.175 384.04 317.915 386.2 317.915 383.92C317.915 382.94 316.975 382.4 315.755 382.4C314.455 382.4 313.555 383.06 313.555 384.36H311.475C311.475 381.78 313.555 380.8 315.755 380.8C317.915 380.8 319.915 381.68 319.915 384V391H317.955V389.32C317.295 390.64 316.015 391.2 314.575 391.2ZM313.215 388.24C313.215 389.1 313.955 389.52 314.975 389.52C316.515 389.52 317.955 388.62 317.955 386.88V386.16C316.255 386.98 313.215 386.56 313.215 388.24ZM329.531 385.54C329.531 383.56 328.611 382.56 327.111 382.56C325.611 382.56 324.691 383.56 324.691 385.54V391H322.691V381H324.691V382.58C325.311 381.42 326.411 380.8 327.731 380.8C329.911 380.8 331.531 382.2 331.531 385.14V391H329.531V385.54ZM338.45 380.8C339.79 380.8 340.95 381.44 341.73 382.5V376H343.73V391H341.73V389.5C340.95 390.56 339.79 391.2 338.45 391.2C335.71 391.2 333.65 389.06 333.65 386C333.65 382.94 335.71 380.8 338.45 380.8ZM338.69 382.64C336.95 382.64 335.65 383.98 335.65 386C335.65 388.02 336.95 389.36 338.69 389.36C340.43 389.36 341.73 388.02 341.73 386C341.73 383.98 340.43 382.64 338.69 382.64ZM353.864 387.58C353.864 388.82 354.404 389.36 355.564 389.36C356.004 389.36 356.404 389.3 356.744 389.18V390.96C356.384 391.08 355.764 391.2 355.184 391.2C353.264 391.2 351.864 390.42 351.864 387.7V382.76H350.224V381H351.864V378.04H353.864V381H356.744V382.76H353.864V387.58ZM361.097 381V382.8C361.817 381.5 363.037 380.8 364.557 380.8C364.797 380.8 365.037 380.82 365.197 380.86V383.04C364.897 382.94 364.537 382.88 364.137 382.88C362.217 382.88 361.097 383.92 361.097 385.98V391H359.097V381H361.097ZM369.868 391.2C368.088 391.2 366.468 390.34 366.468 388.36C366.468 384.04 373.208 386.2 373.208 383.92C373.208 382.94 372.268 382.4 371.048 382.4C369.748 382.4 368.848 383.06 368.848 384.36H366.768C366.768 381.78 368.848 380.8 371.048 380.8C373.208 380.8 375.208 381.68 375.208 384V391H373.248V389.32C372.588 390.64 371.308 391.2 369.868 391.2ZM368.508 388.24C368.508 389.1 369.248 389.52 370.268 389.52C371.808 389.52 373.248 388.62 373.248 386.88V386.16C371.548 386.98 368.508 386.56 368.508 388.24ZM385.084 384.98C384.884 383.46 383.664 382.64 382.224 382.64C380.524 382.64 379.244 383.98 379.244 386C379.244 388.02 380.524 389.36 382.224 389.36C383.684 389.36 384.924 388.46 385.124 386.8H387.204C387.044 389.44 384.944 391.2 382.224 391.2C379.364 391.2 377.244 389.06 377.244 386C377.244 382.94 379.364 380.8 382.224 380.8C384.864 380.8 386.924 382.48 387.164 384.98H385.084ZM391.429 376V385.44L395.729 381H398.389L393.689 385.56L398.749 391H396.209L391.429 385.74V391H389.429V376H391.429ZM407.243 387.58C407.243 388.82 407.783 389.36 408.943 389.36C409.383 389.36 409.783 389.3 410.123 389.18V390.96C409.763 391.08 409.143 391.2 408.563 391.2C406.643 391.2 405.243 390.42 405.243 387.7V382.76H403.603V381H405.243V378.04H407.243V381H410.123V382.76H407.243V387.58ZM419.316 385.54C419.316 383.56 418.396 382.56 416.896 382.56C415.396 382.56 414.476 383.56 414.476 385.54V391H412.476V376H414.476V382.58C415.096 381.42 416.196 380.8 417.516 380.8C419.696 380.8 421.316 382.2 421.316 385.14V391H419.316V385.54ZM433.235 386.68H425.395C425.635 388.42 426.755 389.44 428.435 389.44C429.655 389.44 430.455 388.9 430.855 388H433.015C432.395 390.06 430.655 391.2 428.355 391.2C425.515 391.2 423.435 389.06 423.435 386C423.435 382.94 425.515 380.8 428.355 380.8C431.195 380.8 433.275 382.94 433.275 386C433.275 386.24 433.255 386.46 433.235 386.68ZM428.355 382.56C426.735 382.56 425.655 383.56 425.415 385.24H431.295C431.055 383.56 429.955 382.56 428.355 382.56ZM441.823 385.26C441.823 383.46 441.003 382.56 439.663 382.56C438.323 382.56 437.503 383.46 437.503 385.26V391H435.503V381H437.503V382.4C438.083 381.36 439.083 380.8 440.283 380.8C441.703 380.8 442.863 381.44 443.443 382.78C444.023 381.48 445.183 380.8 446.623 380.8C448.643 380.8 450.143 382.12 450.143 384.86V391H448.143V385.26C448.143 383.46 447.343 382.56 446.003 382.56C444.643 382.56 443.823 383.46 443.823 385.26V391H441.823V385.26ZM462.142 391H459.342L455.942 381H458.022L460.742 389.4L463.462 381H465.542L462.142 391ZM468.222 378.82C467.462 378.82 466.902 378.24 466.902 377.48C466.902 376.72 467.462 376.16 468.222 376.16C469.002 376.16 469.542 376.72 469.542 377.48C469.542 378.24 469.002 378.82 468.222 378.82ZM469.222 391H467.222V381H469.222V391ZM475.063 391.2C473.283 391.2 471.663 390.34 471.663 388.36C471.663 384.04 478.403 386.2 478.403 383.92C478.403 382.94 477.463 382.4 476.243 382.4C474.943 382.4 474.043 383.06 474.043 384.36H471.963C471.963 381.78 474.043 380.8 476.243 380.8C478.403 380.8 480.403 381.68 480.403 384V391H478.443V389.32C477.783 390.64 476.503 391.2 475.063 391.2ZM473.703 388.24C473.703 389.1 474.443 389.52 475.463 389.52C477.003 389.52 478.443 388.62 478.443 386.88V386.16C476.743 386.98 473.703 386.56 473.703 388.24ZM489.789 391H487.789V376H489.789V382.36H494.629V376H496.629V391H494.629V384.2H489.789V391ZM501.485 386.42C501.485 388.42 502.385 389.44 503.865 389.44C505.325 389.44 506.225 388.42 506.225 386.42V381H508.225V391H506.225V389.4C505.605 390.58 504.545 391.2 503.245 391.2C501.105 391.2 499.485 389.8 499.485 386.82V381H501.485V386.42ZM516.467 380.8C519.207 380.8 521.267 382.94 521.267 386C521.267 389.06 519.207 391.2 516.467 391.2C515.127 391.2 513.967 390.56 513.187 389.5V391H511.187V376H513.187V382.5C513.967 381.44 515.127 380.8 516.467 380.8ZM516.227 382.64C514.487 382.64 513.187 383.98 513.187 386C513.187 388.02 514.487 389.36 516.227 389.36C517.967 389.36 519.267 388.02 519.267 386C519.267 383.98 517.967 382.64 516.227 382.64Z" fill="#565859"/>
<path d="M71.024 327.952C71.024 323.344 74.096 321.52 77.808 321.52C81.584 321.52 84.56 323.6 84.56 327.92V329.68H79.536V328.016C79.536 326.544 78.864 325.84 77.808 325.84C76.848 325.84 76.144 326.448 76.144 327.568C76.144 329.136 77.072 329.84 78.64 331.024L81.296 333.072C83.344 334.608 84.88 336.56 84.88 339.664C84.88 344.24 81.712 346.48 77.84 346.48C73.968 346.48 70.8 344.208 70.8 340.08V338H75.92V339.856C75.92 341.264 76.688 342.16 77.84 342.16C79.024 342.16 79.728 341.456 79.728 340.304C79.728 338.672 78.768 337.936 77.104 336.656L74.544 334.704C72.464 333.136 71.024 331.216 71.024 327.952ZM99.0993 341.36V346H87.1313V322H99.0993V326.64H92.5073V331.44H98.4593V336.08H92.5073V341.36H99.0993ZM113.631 341.36V346H101.663V322H107.103V341.36H113.631ZM127.506 341.36V346H115.538V322H120.978V341.36H127.506Z" fill="#0F1114"/>
<path d="M45.8347 332.083V334C45.8321 338.493 44.3774 342.864 41.6874 346.462C38.9975 350.06 35.2165 352.693 30.9083 353.967C26.6001 355.24 21.9956 355.087 17.7815 353.53C13.5673 351.974 9.96933 349.096 7.52414 345.327C5.07894 341.558 3.91753 337.1 4.21313 332.617C4.50872 328.135 6.24548 323.867 9.16439 320.452C12.0833 317.037 16.0279 314.657 20.41 313.667C24.7921 312.677 29.3769 313.13 33.4805 314.958" stroke="#00BFBA" stroke-width="4" stroke-linecap="round" stroke-linejoin="round"/>
<path d="M45.8333 317.333L25 338.188L18.75 331.938" stroke="#00BFBA" stroke-width="4" stroke-linecap="round" stroke-linejoin="round"/>
<line x1="24" y1="46" x2="24" y2="171" stroke="#00BFBA" stroke-width="4"/>
<line x1="24" y1="213" x2="24" y2="313" stroke="#00BFBA" stroke-width="4"/>
</svg>
