<svg width="810" height="757" viewBox="0 0 810 757" fill="none" xmlns="http://www.w3.org/2000/svg">
<g clip-path="url(#clip0_241_735)">
<rect width="810" height="757" rx="50" fill="#00BFBA"/>
<circle r="281" fill="#00B4AF"/>
<circle opacity="0.1" cx="810" cy="757" r="281" fill="white"/>
<path d="M556 378.364V379.749C555.634 425.825 537.041 469.889 504.273 502.341C471.505 534.793 427.217 553.001 381.06 553H284.86C276.41 553 268.306 549.649 262.331 543.685C256.357 537.721 253 529.631 253 521.196V411.362C264.406 420.793 276.978 428.721 290.409 434.952H290.887C292.753 435.86 294.618 436.671 296.532 437.483C310.69 443.496 325.441 448.009 340.542 450.95C345.66 452 350.923 452.908 356.328 453.624C356.328 453.624 381.777 457.588 429.854 453.624C430.491 453.671 431.13 453.671 431.767 453.624C434.099 453.343 436.325 452.495 438.252 451.154C440.179 449.814 441.746 448.022 442.817 445.936C443.104 445.363 443.392 444.79 443.631 444.169C444.619 441.578 444.602 438.713 443.584 436.133C442.567 433.554 440.622 431.447 438.13 430.225L437.651 429.986H438.512C441.127 430.032 443.69 429.259 445.843 427.778C447.996 426.296 449.631 424.18 450.519 421.724C450.541 421.486 450.541 421.247 450.519 421.008C450.732 420.277 450.86 419.524 450.902 418.764C450.926 418.541 450.926 418.317 450.902 418.095C450.83 415.863 450.127 413.696 448.874 411.846C447.621 409.996 445.87 408.536 443.822 407.637H443.487C445.236 407.454 446.964 407.119 448.654 406.634C450.442 406.222 452.074 405.305 453.355 403.993C454.635 402.68 455.511 401.028 455.877 399.232C455.921 398.964 455.921 398.689 455.877 398.42C455.9 398.166 455.9 397.911 455.877 397.656C455.877 397.656 455.877 397.322 455.877 397.179C455.925 396.655 455.925 396.127 455.877 395.603V395.03C455.9 394.84 455.9 394.647 455.877 394.457C455.905 394.283 455.905 394.106 455.877 393.932C455.245 392.004 454.21 390.233 452.841 388.735C451.472 387.237 449.8 386.045 447.936 385.24H447.458L446.74 384.906L446.023 384.572C448.641 384.155 451.138 383.178 453.342 381.707C454.983 380.557 456.347 379.056 457.332 377.312C458.316 375.569 458.898 373.628 459.034 371.631C459.034 371.057 459.034 370.532 459.034 370.007C459.05 367.75 458.471 365.53 457.354 363.568C456.237 361.607 454.622 359.973 452.672 358.832H452.337C450.501 357.766 448.494 357.023 446.405 356.636H445.592H444.253H392.541L393.163 355.155C396.276 344.752 396.979 333.779 395.22 323.065C394.98 321.107 394.646 319.053 394.263 316.952C394.004 315.686 393.652 314.442 393.21 313.228C392.6 310.712 391.197 308.459 389.208 306.8C387.218 305.141 384.748 304.163 382.16 304.011C380.595 304.06 379.06 304.458 377.669 305.177C376.278 305.896 375.067 306.917 374.123 308.166C373.174 309.382 372.578 310.836 372.401 312.368V313.657C371.746 318.954 370.82 324.214 369.627 329.416C367.042 337.681 362.721 345.301 356.95 351.765C355.706 353.245 354.415 354.773 353.075 356.206C349.571 359.988 345.815 363.53 341.833 366.807C340.588 367.635 339.179 368.187 337.702 368.426C336.225 368.665 334.714 368.585 333.271 368.192C323.703 366.712 309.83 365.136 299.498 358.928C298.985 358.622 298.49 358.287 298.015 357.925L297.201 357.448C288.848 352.015 281.514 345.161 275.531 337.2C272.367 332.963 269.582 328.457 267.208 323.733V323.351C253.431 295.797 251.995 260.841 254.674 231.759V231.473C255.365 224.228 258.739 217.5 264.136 212.608C269.533 207.715 276.565 205.008 283.855 205.017H379.96C476.208 203.68 556 282.187 556 378.364Z" fill="white"/>
</g>
<defs>
<clipPath id="clip0_241_735">
<rect width="810" height="757" rx="50" fill="white"/>
</clipPath>
</defs>
</svg>
