<svg width="83" height="83" viewBox="0 0 83 83" fill="none" xmlns="http://www.w3.org/2000/svg">
<rect x="0.5" y="0.5" width="82" height="82" rx="29.5" fill="#EDECE7" stroke="#C8C8C8"/>
<path d="M57.6476 35.73V48.27C57.6476 50.3233 56.5476 52.23 54.7693 53.275L43.8793 59.5634C42.1009 60.59 39.9009 60.59 38.1043 59.5634L27.2143 53.275C25.4359 52.2484 24.3359 50.3416 24.3359 48.27V35.73C24.3359 33.6767 25.4359 31.7699 27.2143 30.7249L38.1043 24.4366C39.8826 23.41 42.0826 23.41 43.8793 24.4366L54.7693 30.7249C56.5476 31.7699 57.6476 33.6584 57.6476 35.73Z" stroke="#0F1114" stroke-width="3" stroke-linecap="round" stroke-linejoin="round"/>
<path d="M41.0021 40.1667C43.3613 40.1667 45.2738 38.2542 45.2738 35.895C45.2738 33.5358 43.3613 31.6234 41.0021 31.6234C38.643 31.6234 36.7305 33.5358 36.7305 35.895C36.7305 38.2542 38.643 40.1667 41.0021 40.1667Z" stroke="#0F1114" stroke-width="3" stroke-linecap="round" stroke-linejoin="round"/>
<path d="M48.3346 50.5433C48.3346 47.2433 45.053 44.5668 41.0013 44.5668C36.9496 44.5668 33.668 47.2433 33.668 50.5433" stroke="#0F1114" stroke-width="3" stroke-linecap="round" stroke-linejoin="round"/>
</svg>
