<svg width="83" height="83" viewBox="0 0 83 83" fill="none" xmlns="http://www.w3.org/2000/svg">
<rect x="0.5" y="0.5" width="82" height="82" rx="29.5" fill="#EDECE7" stroke="#C8C8C8"/>
<path d="M33.668 23.6666V29.1666" stroke="#0F1114" stroke-width="3" stroke-miterlimit="10" stroke-linecap="round" stroke-linejoin="round"/>
<path d="M48.332 23.6666V29.1666" stroke="#0F1114" stroke-width="3" stroke-miterlimit="10" stroke-linecap="round" stroke-linejoin="round"/>
<path d="M25.418 36.665H56.5846" stroke="#0F1114" stroke-width="3" stroke-miterlimit="10" stroke-linecap="round" stroke-linejoin="round"/>
<path d="M54.2176 48.9117L47.7276 55.4017C47.4709 55.6584 47.2326 56.1351 47.1776 56.4834L46.8292 58.9584C46.7009 59.8567 47.3243 60.4801 48.2226 60.3518L50.6976 60.0034C51.0459 59.9484 51.5409 59.7101 51.7793 59.4534L58.2693 52.9634C59.3876 51.8451 59.9193 50.5434 58.2693 48.8934C56.6376 47.2618 55.3359 47.7934 54.2176 48.9117Z" stroke="#0F1114" stroke-width="3" stroke-miterlimit="10" stroke-linecap="round" stroke-linejoin="round"/>
<path d="M53.2812 49.8467C53.8312 51.8267 55.3713 53.3667 57.3513 53.9167" stroke="#0F1114" stroke-width="3" stroke-miterlimit="10" stroke-linecap="round" stroke-linejoin="round"/>
<path d="M41 60.3333H33.6667C27.25 60.3333 24.5 56.6666 24.5 51.1666V35.5833C24.5 30.0833 27.25 26.4166 33.6667 26.4166H48.3333C54.75 26.4166 57.5 30.0833 57.5 35.5833V42" stroke="#0F1114" stroke-width="3" stroke-miterlimit="10" stroke-linecap="round" stroke-linejoin="round"/>
<path d="M40.9925 45.1167H41.009" stroke="#0F1114" stroke-width="3" stroke-linecap="round" stroke-linejoin="round"/>
<path d="M34.2074 45.1167H34.2238" stroke="#0F1114" stroke-width="3" stroke-linecap="round" stroke-linejoin="round"/>
<path d="M34.2074 50.6167H34.2238" stroke="#0F1114" stroke-width="3" stroke-linecap="round" stroke-linejoin="round"/>
</svg>
