<svg width="61" height="60" viewBox="0 0 61 60" fill="none" xmlns="http://www.w3.org/2000/svg">
<path d="M8.42578 18.6001L30.5007 31.3751L52.4257 18.675" stroke="#292D32" stroke-width="4" stroke-linecap="round" stroke-linejoin="round"/>
<path d="M30.5 54.0251V31.3501" stroke="#292D32" stroke-width="4" stroke-linecap="round" stroke-linejoin="round"/>
<path d="M54.5265 22.925V37.0751C54.5265 37.2001 54.5265 37.3 54.5015 37.425C52.7515 35.9 50.5015 35 48.0015 35C45.6515 35 43.4765 35.8251 41.7515 37.2001C39.4515 39.0251 38.0015 41.85 38.0015 45C38.0015 46.875 38.5265 48.65 39.4515 50.15C39.6765 50.55 39.9515 50.9251 40.2515 51.2751L35.6765 53.8001C32.8265 55.4001 28.1765 55.4001 25.3265 53.8001L11.9765 46.4C8.95152 44.725 6.47656 40.5251 6.47656 37.0751V22.925C6.47656 19.475 8.95152 15.2751 11.9765 13.6001L25.3265 6.2C28.1765 4.6 32.8265 4.6 35.6765 6.2L49.0265 13.6001C52.0515 15.2751 54.5265 19.475 54.5265 22.925Z" stroke="#292D32" stroke-width="4" stroke-linecap="round" stroke-linejoin="round"/>
<path d="M57.999 44.7751C58.049 46.6501 57.5489 48.4251 56.6489 49.9501C56.1489 50.8501 55.474 51.6752 54.724 52.3502C52.999 53.9502 50.7239 54.9252 48.1989 55.0002C44.5489 55.0752 41.324 53.2002 39.549 50.3252C38.599 48.8502 38.024 47.0752 37.999 45.2002C37.924 42.0502 39.3239 39.2002 41.5739 37.3252C43.2739 35.9252 45.424 35.0502 47.774 35.0002C53.299 34.8752 57.874 39.2501 57.999 44.7751Z" stroke="#00BFBA" stroke-width="4" stroke-miterlimit="10" stroke-linecap="round" stroke-linejoin="round"/>
<path d="M44.0977 45.0754L46.6227 47.4753L51.8477 42.4253" stroke="#00BFBA" stroke-width="4" stroke-linecap="round" stroke-linejoin="round"/>
</svg>
