<svg width="83" height="83" viewBox="0 0 83 83" fill="none" xmlns="http://www.w3.org/2000/svg">
<rect x="0.5" y="0.5" width="82" height="82" rx="29.5" fill="#EDECE7" stroke="#C8C8C8"/>
<path d="M34.8984 46.2714C34.8984 48.6364 36.7134 50.5431 38.9684 50.5431H43.5701C45.5318 50.5431 47.1268 48.8748 47.1268 46.8214C47.1268 44.5848 46.1551 43.7964 44.7068 43.2831L37.3184 40.7164C35.8701 40.2031 34.8984 39.4148 34.8984 37.1781C34.8984 35.1248 36.4934 33.4564 38.4551 33.4564H43.0568C45.3118 33.4564 47.1268 35.3631 47.1268 37.7281" stroke="#0F1114" stroke-width="3" stroke-linecap="round" stroke-linejoin="round"/>
<path d="M41 31V53" stroke="#0F1114" stroke-width="3" stroke-linecap="round" stroke-linejoin="round"/>
<path d="M46.5013 60.3333H35.5013C26.3346 60.3333 22.668 56.6666 22.668 47.5V36.5C22.668 27.3333 26.3346 23.6666 35.5013 23.6666H46.5013C55.668 23.6666 59.3346 27.3333 59.3346 36.5V47.5C59.3346 56.6666 55.668 60.3333 46.5013 60.3333Z" stroke="#0F1114" stroke-width="3" stroke-linecap="round" stroke-linejoin="round"/>
</svg>
