<svg width="60" height="66" viewBox="0 0 60 66" fill="none" xmlns="http://www.w3.org/2000/svg">
<path d="M58.033 35.1785C58.0319 33.0873 57.3422 31.0546 56.0704 29.3947C54.7985 27.7347 53.0153 26.5399 50.9965 25.9947V14.983C50.9965 11.2054 49.5009 7.5815 46.8365 4.90357C44.1722 2.22563 40.5559 0.711558 36.7784 0.692383L21.3271 0.692383C17.5382 0.696224 13.9055 2.20307 11.2264 4.88225C8.54718 7.56143 7.04034 11.1941 7.0365 14.983V25.9947C5.01761 26.5399 3.23445 27.7347 1.9626 29.3947C0.690754 31.0546 0.00102212 33.0873 0 35.1785L0 35.5121C0.00808879 39.0374 1.16135 42.4645 3.2861 45.2774C5.41085 48.0904 8.39204 50.1368 11.7807 51.1085C10.2902 52.4477 9.09774 54.0851 8.28048 55.9146C7.46321 57.744 7.0394 59.7248 7.0365 61.7285H11.389C11.3928 59.0824 12.4457 56.5458 14.3168 54.6747C16.1879 52.8036 18.7245 51.7507 21.3706 51.7469H37.9971C40.6432 51.7507 43.1798 52.8036 45.0509 54.6747C46.922 56.5458 47.9749 59.0824 47.9787 61.7285H52.3312C52.3322 59.6475 51.8782 57.5914 51.0011 55.7043C50.1239 53.8172 48.8448 52.1446 47.2533 50.8038C50.4069 49.6765 53.1352 47.6023 55.0648 44.8651C56.9944 42.1278 58.031 38.8612 58.033 35.5121V35.193V35.1785ZM21.3271 5.04485H36.7784C39.4116 5.0487 41.9357 6.09745 43.7963 7.96079C45.657 9.82414 46.702 12.3497 46.702 14.983V25.8352C44.8484 26.2009 43.1443 27.1069 41.8044 28.439C40.4646 29.7711 39.5487 31.4699 39.1722 33.3214H18.8607C18.4862 31.4738 17.5747 29.7778 16.2404 28.446C14.9061 27.1143 13.2083 26.2061 11.36 25.8352V14.983C11.3599 13.6755 11.618 12.3808 12.1192 11.1731C12.6205 9.96547 13.3551 8.86861 14.281 7.94539C15.2069 7.02217 16.3059 6.29073 17.515 5.79301C18.7241 5.29528 20.0196 5.04104 21.3271 5.04485ZM53.6805 35.7443C53.6011 38.8477 52.3132 41.7976 50.091 43.9655C47.8689 46.1334 44.8882 47.3481 41.7837 47.3509H16.2492C13.1448 47.3481 10.164 46.1334 7.94192 43.9655C5.7198 41.7976 4.43188 38.8477 4.35247 35.7443C4.35971 35.6235 4.35971 35.5024 4.35247 35.3816V35.1785C4.35247 34.4983 4.48644 33.8248 4.74673 33.1964C5.00702 32.568 5.38854 31.997 5.86949 31.516C6.35045 31.0351 6.92143 30.6536 7.54983 30.3933C8.17822 30.133 8.85174 29.999 9.53191 29.999C10.2121 29.999 10.8856 30.133 11.514 30.3933C12.1424 30.6536 12.7134 31.0351 13.1943 31.516C13.6753 31.997 14.0568 32.568 14.3171 33.1964C14.5774 33.8248 14.7114 34.4983 14.7114 35.1785V35.3671C14.7025 35.6601 14.7518 35.9521 14.8564 36.226C14.9609 36.4999 15.1188 36.7504 15.3207 36.963C15.5241 37.1732 15.7675 37.3405 16.0366 37.4552C16.3057 37.5698 16.5951 37.6293 16.8876 37.6304H41.2179C41.5112 37.6306 41.8014 37.5715 42.0713 37.4568C42.3412 37.342 42.5851 37.1739 42.7883 36.9625C42.9916 36.7511 43.1501 36.5008 43.2542 36.2266C43.3583 35.9525 43.4059 35.6601 43.3941 35.3671C43.3941 35.3671 43.3941 35.1494 43.3941 35.1349C43.3941 34.4548 43.5281 33.7812 43.7884 33.1529C44.0487 32.5245 44.4302 31.9535 44.9112 31.4725C45.3921 30.9916 45.9631 30.61 46.5915 30.3498C47.2199 30.0895 47.8934 29.9555 48.5736 29.9555C49.2538 29.9555 49.9273 30.0895 50.5557 30.3498C51.1841 30.61 51.755 30.9916 52.236 31.4725C52.717 31.9535 53.0985 32.5245 53.3588 33.1529C53.6191 33.7812 53.753 34.4548 53.753 35.1349V35.3671C53.7195 35.4908 53.6952 35.6169 53.6805 35.7443Z" fill="#0F1114"/>
</svg>
