<svg width="243" height="243" viewBox="0 0 243 243" fill="none" xmlns="http://www.w3.org/2000/svg">
<g filter="url(#filter0_d_143_478)">
<rect x="80" y="40" width="83" height="83" rx="30" fill="white"/>
<rect x="80.5" y="40.5" width="82" height="82" rx="29.5" stroke="#C8C8C8"/>
</g>
<path d="M118.484 65.7166L110.167 68.8499C108.25 69.5666 106.684 71.8333 106.684 73.8666V86.2499C106.684 88.2166 107.984 90.7999 109.567 91.9833L116.734 97.3333C119.084 99.0999 122.95 99.0999 125.3 97.3333L132.467 91.9833C134.05 90.7999 135.35 88.2166 135.35 86.2499V73.8666C135.35 71.8166 133.784 69.5499 131.867 68.8333L123.55 65.7166C122.134 65.1999 119.867 65.1999 118.484 65.7166Z" fill="white" stroke="#0F1114" stroke-width="3" stroke-linecap="round" stroke-linejoin="round"/>
<path d="M116.082 81.7831L118.765 84.4665L125.932 77.2998" stroke="#00BFBA" stroke-width="3" stroke-linecap="round" stroke-linejoin="round"/>
<defs>
<filter id="filter0_d_143_478" x="0" y="0" width="243" height="243" filterUnits="userSpaceOnUse" color-interpolation-filters="sRGB">
<feFlood flood-opacity="0" result="BackgroundImageFix"/>
<feColorMatrix in="SourceAlpha" type="matrix" values="0 0 0 0 0 0 0 0 0 0 0 0 0 0 0 0 0 0 127 0" result="hardAlpha"/>
<feOffset dy="40"/>
<feGaussianBlur stdDeviation="40"/>
<feComposite in2="hardAlpha" operator="out"/>
<feColorMatrix type="matrix" values="0 0 0 0 0 0 0 0 0 0 0 0 0 0 0 0 0 0 0.16 0"/>
<feBlend mode="normal" in2="BackgroundImageFix" result="effect1_dropShadow_143_478"/>
<feBlend mode="normal" in="SourceGraphic" in2="effect1_dropShadow_143_478" result="shape"/>
</filter>
</defs>
</svg>
