<?xml version="1.0" encoding="utf-8"?>
<svg width="80px" height="421" viewBox="0 0 80 321" fill="none" xmlns="http://www.w3.org/2000/svg">
  <defs/>
  <path d="M45.8347 34.0834V36C45.8321 40.4926 44.3774 44.8639 41.6874 48.4622C38.9975 52.0604 35.2165 54.6927 30.9083 55.9665C26.6001 57.2403 21.9956 57.0873 17.7815 55.5304C13.5673 53.9735 9.96933 51.0961 7.52414 47.3273C5.07894 43.5584 3.91753 39.1002 4.21313 34.6174C4.50872 30.1346 6.24548 25.8674 9.16439 22.4523C12.0833 19.0372 16.0279 16.6571 20.41 15.667C24.7921 14.6769 29.3769 15.1299 33.4805 16.9584" stroke="white" stroke-width="4" stroke-linecap="round" stroke-linejoin="round"/>
  <path d="M45.8333 19.3333L25 40.1874L18.75 33.9374" stroke="white" stroke-width="4" stroke-linecap="round" stroke-linejoin="round"/>
  <path d="M45.8347 289.083V291C45.8321 295.493 44.3774 299.864 41.6874 303.462C38.9975 307.06 35.2165 309.693 30.9083 310.967C26.6001 312.24 21.9956 312.087 17.7815 310.53C13.5673 308.974 9.96933 306.096 7.52414 302.327C5.07894 298.558 3.91753 294.1 4.21313 289.617C4.50872 285.135 6.24548 280.867 9.16439 277.452C12.0833 274.037 16.0279 271.657 20.41 270.667C24.7921 269.677 29.3769 270.13 33.4805 271.958" stroke="white" stroke-width="4" stroke-linecap="round" stroke-linejoin="round"/>
  <path d="M45.8333 274.333L25 295.187L18.75 288.937" stroke="white" stroke-width="4" stroke-linecap="round" stroke-linejoin="round"/>
  <line x1="24" y1="57" x2="24" y2="270" stroke="white" stroke-width="4"/>
</svg>