<svg width="484" height="59" viewBox="0 0 484 59" fill="none" xmlns="http://www.w3.org/2000/svg">
<mask id="mask0_96_660" style="mask-type:alpha" maskUnits="userSpaceOnUse" x="106" y="0" width="60" height="59">
<rect x="106.121" width="59" height="59" fill="#D9D9D9"/>
</mask>
<g mask="url(#mask0_96_660)">
<path d="M118.413 41.7916C114.93 41.7916 112.011 40.6136 109.655 38.2577C107.299 35.9018 106.121 32.9826 106.121 29.4999C106.121 26.0173 107.32 23.098 109.716 20.7421C112.113 18.3862 115.012 17.2083 118.413 17.2083C121.568 17.2083 124.221 18.1506 126.372 20.0353C128.523 21.9201 129.885 24.2555 130.459 27.0416H132.057L127.632 14.7499H123.329V9.83325H135.621V14.7499H132.917L133.777 17.2083H145.577L142.013 7.37492H135.621V2.45825H142.013C143.078 2.45825 144.031 2.74506 144.871 3.31867C145.711 3.89228 146.315 4.67075 146.684 5.65409L150.863 17.0853H152.829C156.23 17.0853 159.129 18.2838 161.526 20.6806C163.923 23.0775 165.121 25.9763 165.121 29.377C165.121 32.8187 163.933 35.7482 161.557 38.1655C159.18 40.5829 156.271 41.7916 152.829 41.7916C149.879 41.7916 147.288 40.8697 145.055 39.026C142.822 37.1822 141.398 34.8263 140.784 31.9583H130.459C129.885 34.7853 128.492 37.131 126.279 38.9952C124.067 40.8595 121.445 41.7916 118.413 41.7916ZM118.413 36.8749C120.093 36.8749 121.537 36.414 122.746 35.4921C123.954 34.5702 124.804 33.3923 125.296 31.9583H118.413V27.0416H125.296C124.804 25.5666 123.954 24.3784 122.746 23.477C121.537 22.5756 120.093 22.1249 118.413 22.1249C116.323 22.1249 114.572 22.8317 113.158 24.2452C111.745 25.6588 111.038 27.4103 111.038 29.4999C111.038 31.5485 111.745 33.2899 113.158 34.7239C114.572 36.1579 116.323 36.8749 118.413 36.8749ZM137.342 27.0416H140.784C140.988 26.0992 141.265 25.2183 141.613 24.3989C141.962 23.5794 142.422 22.8214 142.996 22.1249H135.498L137.342 27.0416ZM152.829 36.8749C154.919 36.8749 156.671 36.1579 158.084 34.7239C159.498 33.2899 160.204 31.5485 160.204 29.4999C160.204 27.4103 159.498 25.6588 158.084 24.2452C156.671 22.8317 154.919 22.1249 152.829 22.1249H152.584L155.042 28.6395L150.371 30.3603L148.036 23.8458C147.216 24.5423 146.581 25.3617 146.13 26.3041C145.68 27.2464 145.454 28.3117 145.454 29.4999C145.454 31.5485 146.161 33.2899 147.575 34.7239C148.988 36.1579 150.74 36.8749 152.829 36.8749ZM138.079 56.5416L123.329 49.1666H133.163V44.2499L147.913 51.6249H138.079V56.5416Z" fill="#00BFBA"/>
</g>
<mask id="mask1_96_660" style="mask-type:alpha" maskUnits="userSpaceOnUse" x="212" y="0" width="60" height="59">
<rect x="212.234" width="59" height="59" fill="#D9D9D9"/>
</mask>
<g mask="url(#mask1_96_660)">
<path d="M233.129 46.7086L239.275 36.8752H235.587V29.5002L229.441 39.3336H233.129V46.7086ZM226.983 24.5836H241.733V12.2919H226.983V24.5836ZM226.983 46.7086H241.733V29.5002H226.983V46.7086ZM222.066 51.6252V12.2919C222.066 10.9398 222.548 9.78236 223.511 8.81951C224.474 7.85667 225.631 7.37524 226.983 7.37524H241.733C243.085 7.37524 244.243 7.85667 245.205 8.81951C246.168 9.78236 246.65 10.9398 246.65 12.2919V29.5002H249.723C250.911 29.5002 251.925 29.9202 252.765 30.7601C253.605 31.6001 254.025 32.6141 254.025 33.8023V45.1721C254.025 45.8686 254.312 46.5037 254.885 47.0773C255.459 47.6509 256.094 47.9377 256.79 47.9377C257.528 47.9377 258.173 47.6509 258.726 47.0773C259.279 46.5037 259.556 45.8686 259.556 45.1721V22.1252H258.941C258.245 22.1252 257.661 21.8897 257.19 21.4185C256.719 20.9473 256.483 20.3634 256.483 19.6669V14.7502H257.712V11.0627H260.171V14.7502H262.629V11.0627H265.087V14.7502H266.316V19.6669C266.316 20.3634 266.081 20.9473 265.61 21.4185C265.138 21.8897 264.555 22.1252 263.858 22.1252H263.243V45.1721C263.243 46.893 262.619 48.3987 261.369 49.6893C260.119 50.9799 258.593 51.6252 256.79 51.6252C255.029 51.6252 253.513 50.9799 252.242 49.6893C250.972 48.3987 250.337 46.893 250.337 45.1721V33.8023C250.337 33.5975 250.286 33.4438 250.184 33.3414C250.081 33.239 249.928 33.1877 249.723 33.1877H246.65V51.6252H222.066Z" fill="#00BFBA"/>
</g>
<mask id="mask2_96_660" style="mask-type:alpha" maskUnits="userSpaceOnUse" x="0" y="0" width="59" height="59">
<rect width="59" height="59" fill="#D9D9D9"/>
</mask>
<g mask="url(#mask2_96_660)">
<path d="M27.0404 44.2498H29.4987L39.332 29.4998H31.957V19.6665H29.4987L19.6654 34.4165H27.0404V44.2498ZM29.4987 54.0832C23.8855 54.0832 19.2044 52.1575 15.4555 48.3061C11.7065 44.4547 9.83203 39.6609 9.83203 33.9248C9.83203 29.8276 11.4607 25.3719 14.718 20.5577C17.9753 15.7434 22.9022 10.5297 29.4987 4.9165C36.0952 10.5297 41.0221 15.7434 44.2794 20.5577C47.5367 25.3719 49.1654 29.8276 49.1654 33.9248C49.1654 39.6609 47.2909 44.4547 43.5419 48.3061C39.793 52.1575 35.1119 54.0832 29.4987 54.0832ZM29.4987 49.1665C33.7598 49.1665 37.2834 47.7222 40.0695 44.8337C42.8556 41.9452 44.2487 38.3089 44.2487 33.9248C44.2487 30.9339 43.0093 27.5537 40.5305 23.7842C38.0516 20.0148 34.3744 15.8971 29.4987 11.4311C24.623 15.8971 20.9457 20.0148 18.4669 23.7842C15.9881 27.5537 14.7487 30.9339 14.7487 33.9248C14.7487 38.3089 16.1418 41.9452 18.9279 44.8337C21.714 47.7222 25.2376 49.1665 29.4987 49.1665Z" fill="#00BFBA"/>
</g>
<mask id="mask3_96_660" style="mask-type:alpha" maskUnits="userSpaceOnUse" x="318" y="0" width="60" height="59">
<rect x="318.355" width="59" height="59" fill="#D9D9D9"/>
</mask>
<g mask="url(#mask3_96_660)">
<path d="M330.403 42.0375C328.067 39.5791 326.295 36.8545 325.086 33.8635C323.878 30.8726 323.273 27.7792 323.273 24.5833C323.273 21.3875 323.878 18.2941 325.086 15.3031C326.295 12.3121 328.067 9.58748 330.403 7.12915L333.353 10.0792C331.386 12.0458 329.911 14.3095 328.928 16.8703C327.944 19.4311 327.453 22.0021 327.453 24.5833C327.453 27.1646 327.944 29.7356 328.928 32.2963C329.911 34.8571 331.386 37.1208 333.353 39.0875L330.403 42.0375ZM336.303 36.1375C334.705 34.5396 333.486 32.7368 332.646 30.7292C331.806 28.7215 331.386 26.6729 331.386 24.5833C331.386 22.4937 331.806 20.4451 332.646 18.4375C333.486 16.4298 334.705 14.6271 336.303 13.0292L339.253 15.9792C338.023 17.0854 337.102 18.3965 336.487 19.9125C335.872 21.4285 335.565 22.9854 335.565 24.5833C335.565 26.0583 335.872 27.5538 336.487 29.0698C337.102 30.5857 338.023 31.9583 339.253 33.1875L336.303 36.1375ZM335.565 54.0833L343.862 29.1927C343.206 28.6191 342.684 27.943 342.295 27.1646C341.906 26.3861 341.711 25.5257 341.711 24.5833C341.711 22.8625 342.305 21.408 343.493 20.2198C344.681 19.0316 346.136 18.4375 347.857 18.4375C349.578 18.4375 351.032 19.0316 352.22 20.2198C353.409 21.408 354.003 22.8625 354.003 24.5833C354.003 25.5257 353.808 26.3861 353.419 27.1646C353.03 27.943 352.507 28.6191 351.852 29.1927L360.148 54.0833H355.232L353.634 49.1666H342.141L340.482 54.0833H335.565ZM343.739 44.25H351.974L347.857 31.9583L343.739 44.25ZM359.411 36.1375L356.461 33.1875C357.69 32.0812 358.612 30.7701 359.227 29.2542C359.841 27.7382 360.148 26.1812 360.148 24.5833C360.148 23.1083 359.841 21.6128 359.227 20.0969C358.612 18.5809 357.69 17.2083 356.461 15.9792L359.411 13.0292C361.009 14.6271 362.197 16.4298 362.976 18.4375C363.754 20.4451 364.205 22.4937 364.328 24.5833C364.328 26.6729 363.908 28.7215 363.068 30.7292C362.228 32.7368 361.009 34.5396 359.411 36.1375ZM365.311 42.0375L362.361 39.0875C364.328 37.1208 365.803 34.8571 366.786 32.2963C367.769 29.7356 368.261 27.1646 368.261 24.5833C368.261 22.0021 367.769 19.4311 366.786 16.8703C365.803 14.3095 364.328 12.0458 362.361 10.0792L365.311 7.12915C367.646 9.58748 369.418 12.3121 370.627 15.3031C371.836 18.2941 372.44 21.3875 372.44 24.5833C372.44 27.7792 371.867 30.8726 370.719 33.8635C369.572 36.8545 367.769 39.5791 365.311 42.0375Z" fill="#00BFBA"/>
</g>
<mask id="mask4_96_660" style="mask-type:alpha" maskUnits="userSpaceOnUse" x="424" y="0" width="60" height="59">
<rect x="424.473" width="59" height="59" fill="#D9D9D9"/>
</mask>
<g mask="url(#mask4_96_660)">
<path d="M452.743 46.7086H455.202V42.1607L463.806 33.5565V22.1252H444.139V33.5565L452.743 42.1607V46.7086ZM447.827 51.6252V44.2502L439.223 35.6461V22.1252C439.223 20.7732 439.704 19.6157 440.667 18.6528C441.63 17.69 442.787 17.2086 444.139 17.2086H446.598L444.139 19.6669V7.37524H449.056V17.2086H458.889V7.37524H463.806V19.6669L461.348 17.2086H463.806C465.158 17.2086 466.316 17.69 467.278 18.6528C468.241 19.6157 468.723 20.7732 468.723 22.1252V35.6461L460.118 44.2502V51.6252H447.827Z" fill="#00BFBA"/>
</g>
</svg>
