<svg width="83" height="83" viewBox="0 0 83 83" fill="none" xmlns="http://www.w3.org/2000/svg">
<rect x="0.5" y="0.5" width="82" height="82" rx="29.5" fill="#EDECE7" stroke="#C8C8C8"/>
<path d="M38.23 24.0884L29.0817 27.5167C26.9733 28.305 25.25 30.7983 25.25 33.0533V46.675C25.25 48.8383 26.68 51.68 28.4217 52.9817L36.305 58.8667C38.89 60.81 43.1433 60.81 45.7283 58.8667L53.6117 52.9817C55.3533 51.68 56.7833 48.8383 56.7833 46.675V33.0533C56.7833 30.7983 55.06 28.305 52.9516 27.5167L43.8033 24.0884C42.245 23.52 39.7516 23.52 38.23 24.0884Z" stroke="#0F1114" stroke-width="3" stroke-linecap="round" stroke-linejoin="round"/>
<path d="M41.0007 40.02C40.9274 40.02 40.8357 40.02 40.7624 40.02C39.0391 39.965 37.6641 38.535 37.6641 36.7933C37.6641 35.015 39.1124 33.5667 40.8907 33.5667C42.6691 33.5667 44.1174 35.015 44.1174 36.7933C44.0991 38.5533 42.7241 39.965 41.0007 40.02Z" stroke="#0F1114" stroke-width="3" stroke-linecap="round" stroke-linejoin="round"/>
<path d="M37.3512 45.1534C35.5912 46.3267 35.5912 48.2517 37.3512 49.4251C39.3496 50.7634 42.6313 50.7634 44.6296 49.4251C46.3896 48.2517 46.3896 46.3267 44.6296 45.1534C42.6496 43.8151 39.3679 43.8151 37.3512 45.1534Z" stroke="#0F1114" stroke-width="3" stroke-linecap="round" stroke-linejoin="round"/>
</svg>
