<svg width="83" height="83" viewBox="0 0 83 83" fill="none" xmlns="http://www.w3.org/2000/svg">
<rect x="0.5" y="0.5" width="82" height="82" rx="29.5" fill="#EDECE7" stroke="#C8C8C8"/>
<path d="M38.23 24.0884L29.0817 27.535C26.9733 28.3234 25.25 30.8167 25.25 33.0534V46.675C25.25 48.8384 26.68 51.68 28.4217 52.9817L36.305 58.8667C38.89 60.81 43.1433 60.81 45.7283 58.8667L53.6117 52.9817C55.3533 51.68 56.7833 48.8384 56.7833 46.675V33.0534C56.7833 30.7984 55.06 28.305 52.9517 27.5167L43.8033 24.0884C42.245 23.52 39.7517 23.52 38.23 24.0884Z" stroke="#0F1114" stroke-width="3" stroke-linecap="round" stroke-linejoin="round"/>
<path d="M40.9987 42.9167C43.0237 42.9167 44.6654 41.2751 44.6654 39.25C44.6654 37.225 43.0237 35.5834 40.9987 35.5834C38.9737 35.5834 37.332 37.225 37.332 39.25C37.332 41.2751 38.9737 42.9167 40.9987 42.9167Z" stroke="#0F1114" stroke-width="3" stroke-miterlimit="10" stroke-linecap="round" stroke-linejoin="round"/>
<path d="M41 42.9166V48.4166" stroke="#0F1114" stroke-width="3" stroke-miterlimit="10" stroke-linecap="round" stroke-linejoin="round"/>
</svg>
