<svg width="60" height="60" viewBox="0 0 60 60" fill="none" xmlns="http://www.w3.org/2000/svg">
<path d="M30 42.5C25.825 42.5 23.75 44.575 23.75 48.75V55H36.25V48.75C36.25 44.575 34.175 42.5 30 42.5Z" stroke="#00BFBA" stroke-width="4" stroke-linecap="round" stroke-linejoin="round"/>
<path d="M7.52344 28.0498V39.2748C7.52344 50.4998 12.0234 54.9998 23.2484 54.9998H36.7234C47.9484 54.9998 52.4484 50.4998 52.4484 39.2748V28.0498" stroke="#0F1114" stroke-width="4" stroke-linecap="round" stroke-linejoin="round"/>
<path d="M30.0012 30C34.5762 30 37.9512 26.275 37.5012 21.7L35.8512 5H24.1762L22.5012 21.7C22.0512 26.275 25.4262 30 30.0012 30Z" stroke="#0F1114" stroke-width="4" stroke-linecap="round" stroke-linejoin="round"/>
<path d="M45.775 30C50.825 30 54.525 25.9 54.025 20.875L53.325 14C52.425 7.5 49.925 5 43.375 5H35.75L37.5 22.525C37.925 26.65 41.65 30 45.775 30Z" stroke="#0F1114" stroke-width="4" stroke-linecap="round" stroke-linejoin="round"/>
<path d="M14.1 30C18.225 30 21.95 26.65 22.35 22.525L22.9 17L24.1 5H16.475C9.92495 5 7.42495 7.5 6.52495 14L5.84995 20.875C5.34995 25.9 9.04995 30 14.1 30Z" stroke="#0F1114" stroke-width="4" stroke-linecap="round" stroke-linejoin="round"/>
</svg>
