<?xml version="1.0" encoding="utf-8"?>
<svg width="50px" height="392" viewBox="0 0 50 361" fill="none" xmlns="http://www.w3.org/2000/svg">
  <defs/>
  <path d="M45.8347 23.0834V25C45.8321 29.4926 44.3774 33.8639 41.6874 37.4622C38.9975 41.0604 35.2165 43.6927 30.9083 44.9665C26.6001 46.2403 21.9956 46.0873 17.7815 44.5304C13.5673 42.9735 9.96933 40.0961 7.52414 36.3273C5.07894 32.5584 3.91753 28.1002 4.21313 23.6174C4.50872 19.1346 6.24548 14.8674 9.16439 11.4523C12.0833 8.03717 16.0279 5.65709 20.41 4.66701C24.7921 3.67694 29.3769 4.12991 33.4805 5.95838" stroke="#00BFBA" stroke-width="4" stroke-linecap="round" stroke-linejoin="round"/>
  <path d="M45.8333 8.3335L25 29.1877L18.75 22.9377" stroke="#00BFBA" stroke-width="4" stroke-linecap="round" stroke-linejoin="round"/>
  <path d="M45.8347 190.083V192C45.8321 196.493 44.3774 200.864 41.6874 204.462C38.9975 208.06 35.2165 210.693 30.9083 211.967C26.6001 213.24 21.9956 213.087 17.7815 211.53C13.5673 209.974 9.96933 207.096 7.52414 203.327C5.07894 199.558 3.91753 195.1 4.21313 190.617C4.50872 186.135 6.24548 181.867 9.16439 178.452C12.0833 175.037 16.0279 172.657 20.41 171.667C24.7921 170.677 29.3769 171.13 33.4805 172.958" stroke="#00BFBA" stroke-width="4" stroke-linecap="round" stroke-linejoin="round"/>
  <path d="M45.8333 175.333L25 196.188L18.75 189.938" stroke="#00BFBA" stroke-width="4" stroke-linecap="round" stroke-linejoin="round"/>
  <path d="M45.8347 332.083V334C45.8321 338.493 44.3774 342.864 41.6874 346.462C38.9975 350.06 35.2165 352.693 30.9083 353.967C26.6001 355.24 21.9956 355.087 17.7815 353.53C13.5673 351.974 9.96933 349.096 7.52414 345.327C5.07894 341.558 3.91753 337.1 4.21313 332.617C4.50872 328.135 6.24548 323.867 9.16439 320.452C12.0833 317.037 16.0279 314.657 20.41 313.667C24.7921 312.677 29.3769 313.13 33.4805 314.958" stroke="#00BFBA" stroke-width="4" stroke-linecap="round" stroke-linejoin="round"/>
  <path d="M45.8333 317.333L25 338.188L18.75 331.938" stroke="#00BFBA" stroke-width="4" stroke-linecap="round" stroke-linejoin="round"/>
  <line x1="24" y1="46" x2="24" y2="171" stroke="#00BFBA" stroke-width="4"/>
  <line x1="24" y1="213" x2="24" y2="313" stroke="#00BFBA" stroke-width="4"/>
</svg>